<svg width="72" height="71" viewBox="0 0 72 71" fill="none" xmlns="http://www.w3.org/2000/svg">
<circle cx="35.9575" cy="35.3191" r="35.3191" fill="white"/>
<g clip-path="url(#clip0_1_719)">
<path d="M33.7135 19.8221L20.2917 25.3762C19.5452 25.6856 19.5531 26.7454 20.3041 27.0429L33.7816 32.3878C34.9658 32.8575 36.2846 32.8575 37.4687 32.3878L50.9462 27.0429C51.6972 26.7448 51.7056 25.6851 50.9586 25.3762L37.5374 19.8227C36.3129 19.3159 34.9374 19.3159 33.7129 19.8227" fill="#FFCC00"/>
<path d="M36.8213 35.3059V48.658C36.8215 48.8046 36.8575 48.949 36.9262 49.0786C36.995 49.2082 37.0943 49.319 37.2156 49.4014C37.337 49.4838 37.4766 49.5353 37.6224 49.5514C37.7681 49.5675 37.9156 49.5478 38.052 49.4939L53.0708 43.6641C53.2382 43.5976 53.3817 43.4823 53.4829 43.3333C53.5841 43.1843 53.6383 43.0084 53.6384 42.8282V29.4767C53.6382 29.3301 53.6021 29.1857 53.5334 29.0561C53.4647 28.9266 53.3653 28.8158 53.244 28.7334C53.1227 28.651 52.9831 28.5995 52.8373 28.5833C52.6915 28.5672 52.544 28.587 52.4076 28.6409L37.3889 34.4706C37.2215 34.5371 37.0779 34.6524 36.9767 34.8014C36.8755 34.9504 36.8214 35.1258 36.8213 35.3059Z" fill="#31C2F2"/>
<path d="M33.3152 35.9949L28.4057 38.3658L18.9968 42.8743C18.4005 43.1623 17.6389 42.728 17.6389 42.0643V29.5329C17.6389 29.2933 17.7615 29.0863 17.9269 28.931C17.9945 28.8637 18.0712 28.8061 18.1547 28.76C18.3797 28.625 18.7004 28.589 18.9732 28.697L33.241 34.3502C33.9722 34.6382 34.0285 35.654 33.3158 35.9955" fill="#ED3049"/>
<path d="M33.3151 35.9953L28.8579 38.1474L17.9263 28.9303C17.9939 28.863 18.0705 28.8054 18.1541 28.7593C18.3791 28.6243 18.6997 28.5883 18.9725 28.6963L33.2403 34.3494C33.9716 34.6374 34.0278 35.6539 33.3151 35.9953Z" fill="#C62842"/>
</g>
<defs>
<clipPath id="clip0_1_719">
<rect width="36" height="36" fill="white" transform="translate(17.6383 16.5)"/>
</clipPath>
</defs>
</svg>
