<svg width="71" height="71" viewBox="0 0 71 71" fill="none" xmlns="http://www.w3.org/2000/svg">
<circle cx="35.3191" cy="35.3191" r="35.3191" fill="white"/>
<g clip-path="url(#clip0_1_677)">
<path d="M39.8096 17.0013H25.5526C24.1685 17.0013 23.0366 18.1404 23.0366 19.5238V51.3957C23.0366 52.7799 24.1685 53.9118 25.5526 53.9118H47.3554C48.7396 53.9118 49.8714 52.7799 49.8714 51.3957V27.0704L43.9974 22.8761L39.8096 17.0013Z" fill="#0F9D58"/>
<path d="M29.7477 35.0343V47.2006H43.1683V35.0343H29.7477ZM35.6153 45.5215H31.4209V43.4244H35.6153V45.5215ZM35.6153 42.1628H31.4209V40.0656H35.6153V42.1628ZM35.6153 38.8112H31.4209V36.714H35.6153V38.8112ZM41.4893 45.5215H37.2943V43.4244H41.4886V45.5215H41.4893ZM41.4893 42.1628H37.2943V40.0656H41.4886V42.1628H41.4893ZM41.4893 38.8112H37.2943V36.714H41.4886V38.8112H41.4893Z" fill="#F1F1F1"/>
<path d="M40.5449 26.335L49.8715 35.6615V27.0703L40.5449 26.335Z" fill="url(#paint0_linear_1_677)"/>
<path d="M39.8114 17.0042V24.5507C39.8114 25.9414 40.936 27.0668 42.3274 27.0668H49.8733L39.8114 17.0042Z" fill="#87CEAC"/>
<path d="M25.5526 17.0013C24.1685 17.0013 23.0366 18.1404 23.0366 19.5238V19.7329C23.0366 18.3487 24.1685 17.2169 25.5526 17.2169H39.8096V17.0006H25.5526V17.0013Z" fill="white" fill-opacity="0.2"/>
<path d="M47.3562 53.6946H25.5526C24.1685 53.6946 23.0366 52.5628 23.0366 51.1786V51.3877C23.0366 52.7718 24.1685 53.9037 25.5526 53.9037H47.3554C48.7396 53.9037 49.8714 52.7718 49.8714 51.3877V51.1786C49.8714 52.5635 48.7396 53.6946 47.3562 53.6946Z" fill="#263238" fill-opacity="0.2"/>
<path d="M42.3256 27.0703C40.9349 27.0703 39.8096 25.9457 39.8096 24.5543V24.7634C39.8096 26.154 40.9342 27.2794 42.3256 27.2794H49.8715V27.0703H42.3256Z" fill="#263238" fill-opacity="0.1"/>
<path d="M39.8096 17.0013H25.5526C24.1685 17.0013 23.0366 18.1404 23.0366 19.5238V51.3957C23.0366 52.7799 24.1685 53.9118 25.5526 53.9118H47.3554C48.7396 53.9118 49.8714 52.7799 49.8714 51.3957V27.0704L39.8096 17.0013Z" fill="url(#paint1_radial_1_677)"/>
</g>
<defs>
<linearGradient id="paint0_linear_1_677" x1="45.2081" y1="27.1346" x2="45.2081" y2="35.6614" gradientUnits="userSpaceOnUse">
<stop stop-color="#263238" stop-opacity="0.2"/>
<stop offset="1" stop-color="#263238" stop-opacity="0.02"/>
</linearGradient>
<radialGradient id="paint1_radial_1_677" cx="0" cy="0" r="1" gradientUnits="userSpaceOnUse" gradientTransform="translate(23.8867 18.0055) scale(43.2786 43.2787)">
<stop stop-color="white" stop-opacity="0.1"/>
<stop offset="1" stop-color="white" stop-opacity="0"/>
</radialGradient>
<clipPath id="clip0_1_677">
<rect width="36.9111" height="36.9111" fill="white" transform="translate(18 17)"/>
</clipPath>
</defs>
</svg>
