<svg width="71" height="71" viewBox="0 0 71 71" fill="none" xmlns="http://www.w3.org/2000/svg">
<circle cx="35.3191" cy="35.3191" r="35.3191" fill="white"/>
<g clip-path="url(#clip0_1_707)">
<path d="M40.0214 13.9448H24.7023C23.2623 13.9448 22 15.2056 22 16.6487V50.8883C22 52.3298 23.2607 53.5922 24.7038 53.5922H48.1313C49.5728 53.5922 50.8351 52.3314 50.8351 50.8883V24.757L44.5283 20.2517L40.0214 13.9448Z" fill="#4285F4"/>
<path d="M29.2076 42.7784H43.6244V40.9769H29.2092L29.2076 42.7784ZM29.2076 46.383H40.0198V44.5815H29.2076V46.383ZM29.2076 33.7677V35.5692H43.6244V33.7677H29.2076ZM29.2076 39.1738H43.6244V37.3723H29.2092L29.2076 39.1738Z" fill="#F1F1F1"/>
<path d="M40.0214 13.9448V22.0548C40.0214 23.4963 41.2821 24.757 42.7236 24.757H50.8336L40.0214 13.9448Z" fill="#A1C2FA"/>
</g>
<defs>
<clipPath id="clip0_1_707">
<rect width="28.8336" height="39.6458" fill="white" transform="translate(22 13.9448)"/>
</clipPath>
</defs>
</svg>
