<svg width="72" height="71" viewBox="0 0 72 71" fill="none" xmlns="http://www.w3.org/2000/svg">
<circle cx="35.9575" cy="35.3191" r="35.3191" fill="white"/>
<g clip-path="url(#clip0_1_730)">
<path d="M30.7874 18.081C25.25 18.4907 20.5427 18.8675 20.3214 18.9116C19.7008 19.0223 19.1363 19.4432 18.8708 19.9973L18.6383 20.4847L18.6607 32.1029L18.6936 43.7211L19.048 44.4411C19.2476 44.8396 20.5987 46.7005 22.0716 48.6161C24.9846 52.3927 25.1947 52.6035 26.302 52.7141C26.6235 52.7471 29.0378 52.6364 31.6517 52.4816C34.2767 52.3156 38.4847 52.0607 41.0103 51.9171C51.7971 51.2622 51.2431 51.3176 51.863 50.7859C52.6383 50.1437 52.583 51.1957 52.6159 37.075C52.6383 25.1024 52.6271 24.3166 52.4499 23.951C52.2398 23.5413 51.863 23.2534 46.9455 19.7976C43.6564 17.494 43.4239 17.3722 41.9503 17.3498C41.3416 17.3281 36.3135 17.66 30.7874 18.081ZM43.2355 19.598C43.7006 19.8082 47.101 22.1783 47.599 22.6328C47.732 22.7659 47.7762 22.8766 47.7096 22.9431C47.5548 23.0762 26.5115 24.3278 25.9028 24.2389C25.6262 24.1947 25.2164 24.0287 24.9839 23.8732C24.0201 23.2198 21.6283 21.2594 21.6283 21.1158C21.6283 20.739 21.5505 20.739 30.9316 20.0638C32.7261 19.9419 35.6719 19.7206 37.4663 19.5763C41.3528 19.266 42.5162 19.2773 43.2355 19.598ZM49.925 25.6565C50.0798 25.8112 50.2128 26.1103 50.257 26.3982C50.2899 26.6643 50.3123 31.6259 50.2899 37.407C50.257 47.3302 50.2458 47.9507 50.0574 48.2386C49.9467 48.4158 49.7254 48.6042 49.5587 48.6595C49.0943 48.848 27.0438 50.0996 26.5899 49.9665C26.3798 49.9112 26.0912 49.734 25.9364 49.5792L25.6703 49.2913L25.6374 38.5928C25.6149 31.0838 25.6374 27.7611 25.7263 27.4621C25.7928 27.2407 25.9588 26.9746 26.1031 26.8863C26.3027 26.7533 27.6097 26.6426 32.1062 26.3772C35.2629 26.2 40.1468 25.9009 42.949 25.7349C49.6147 25.3245 49.593 25.3245 49.925 25.6565Z" fill="black"/>
<path d="M43.9996 29.3223C42.8033 29.4001 41.7401 29.5107 41.6182 29.5773C41.2526 29.7657 41.0313 30.076 40.9872 30.4304C40.9543 30.796 41.0649 30.8401 42.2605 30.9844L42.7809 31.0509V35.78C42.7809 38.5928 42.7368 40.4537 42.6814 40.3984C42.6261 40.3319 41.0537 37.94 39.1816 35.0824C37.3101 32.2143 35.7594 29.8546 35.737 29.8329C35.7146 29.8105 34.4966 29.8771 33.0349 29.9772C31.2405 30.0991 30.255 30.2097 30.0554 30.3204C29.7339 30.4864 29.3795 31.0733 29.3795 31.4613C29.3795 31.6939 29.8005 31.8157 30.6865 31.8157H31.1515V45.416L30.3986 45.6486C29.8117 45.8258 29.612 45.9364 29.5126 46.1577C29.3354 46.5346 29.3466 46.8778 29.5238 46.8778C29.5903 46.8778 30.8419 46.8 32.2813 46.7118C35.1277 46.5458 35.4484 46.468 35.7475 45.8811C35.8365 45.7039 35.9135 45.5155 35.9135 45.4602C35.9135 45.416 35.5262 45.283 35.0604 45.1723C34.5842 45.0616 34.1079 44.951 34.0084 44.9286C33.82 44.8732 33.8088 44.53 33.8088 39.7673V34.6615L37.1756 39.9445C40.7084 45.4819 41.1518 46.1136 41.6946 46.3903C42.3705 46.7447 44.0871 46.5009 44.9507 45.9364L45.2169 45.7704L45.2393 38.2174L45.2722 30.6531L45.8591 30.5424C46.5567 30.4094 46.8782 30.0886 46.8782 29.5346C46.8782 29.1802 46.8558 29.1577 46.5238 29.169C46.3256 29.1781 45.1846 29.2446 43.9996 29.3223Z" fill="black"/>
</g>
<defs>
<clipPath id="clip0_1_730">
<rect width="34" height="36.1856" fill="white" transform="translate(18.6383 16.9448)"/>
</clipPath>
</defs>
</svg>
