<svg width="71" height="71" viewBox="0 0 71 71" fill="none" xmlns="http://www.w3.org/2000/svg">
<circle cx="35.5958" cy="35.3191" r="35.3191" fill="white"/>
<g clip-path="url(#clip0_1_747)">
<path d="M34.5538 31.5258C33.0204 34.1037 31.5512 36.6 30.0514 39.0776C29.6662 39.7137 29.4756 40.2318 29.7833 41.0403C30.6328 43.2739 29.4344 45.4475 27.182 46.0375C25.0578 46.5941 22.9883 45.1981 22.5668 42.9239C22.1934 40.911 23.7555 38.9377 25.9749 38.623C26.1608 38.5964 26.3507 38.5934 26.6632 38.57L30.0391 32.909C27.9158 30.7977 26.652 28.3298 26.9317 25.2715C27.1294 23.1098 27.9795 21.2416 29.5333 19.7104C32.5092 16.7782 37.0492 16.3034 40.5532 18.554C43.9184 20.7159 45.4597 24.927 44.1459 28.5311C43.1553 28.2626 42.1578 27.9918 41.0612 27.6943C41.4737 25.6904 41.1686 23.891 39.8171 22.3494C38.9242 21.3316 37.7783 20.7981 36.4755 20.6016C33.8636 20.207 31.2991 21.885 30.5382 24.4487C29.6745 27.3581 30.9817 29.7348 34.5538 31.5258Z" fill="#C73A63"/>
<path d="M38.9333 28.4771C40.0136 30.383 41.1106 32.3177 42.1978 34.2346C47.6929 32.5345 51.836 35.5765 53.3224 38.8332C55.1177 42.7672 53.8904 47.4266 50.3645 49.8537C46.7455 52.3451 42.1686 51.9195 38.9622 48.719C39.7794 48.0349 40.6006 47.3478 41.478 46.6137C44.645 48.6649 47.4149 48.5684 49.4713 46.1394C51.2249 44.0672 51.1869 40.9776 49.3825 38.949C47.3 36.608 44.5107 36.5366 41.1391 38.7838C39.7405 36.3024 38.3176 33.8409 36.9632 31.3417C36.5065 30.4994 36.0023 30.0106 34.973 29.8324C33.2541 29.5343 32.1444 28.0582 32.0777 26.4045C32.0123 24.769 32.9758 23.2906 34.4819 22.7146C35.9737 22.1439 37.7244 22.6045 38.7279 23.8729C39.548 24.9092 39.8086 26.0756 39.377 27.3536C39.257 27.7101 39.1017 28.0548 38.9333 28.4771Z" fill="#4B4B4B"/>
<path d="M41.5155 44.0578H34.9003C34.2662 46.6657 32.8967 48.7712 30.5369 50.1102C28.7024 51.1508 26.7252 51.5036 24.6208 51.1638C20.7462 50.539 17.5781 47.051 17.2991 43.1235C16.9835 38.6743 20.0416 34.7195 24.1178 33.8312C24.3992 34.8532 24.6837 35.885 24.9651 36.9045C21.2252 38.8126 19.9308 41.2167 20.9775 44.223C21.8988 46.8685 24.5162 48.3186 27.3581 47.7578C30.2603 47.1851 31.7235 44.7732 31.5449 40.9024C34.2962 40.9024 37.0498 40.8739 39.8013 40.9164C40.8758 40.9333 41.7053 40.8219 42.5146 39.8746C43.8472 38.316 46.3001 38.4566 47.7352 39.9287C49.202 41.4331 49.1317 43.8537 47.5796 45.2947C46.0821 46.6851 43.7163 46.6108 42.3152 45.1126C42.0273 44.8038 41.8004 44.4372 41.5155 44.0578Z" fill="#4A4A4A"/>
</g>
<defs>
<clipPath id="clip0_1_747">
<rect width="37" height="34.5432" fill="white" transform="translate(17.2766 17)"/>
</clipPath>
</defs>
</svg>
