<svg width="71" height="71" viewBox="0 0 71 71" fill="none" xmlns="http://www.w3.org/2000/svg">
<circle cx="35.5958" cy="35.3191" r="35.3191" fill="white"/>
<path d="M40.2765 35.0088C40.2771 36.451 40.017 37.8816 39.5085 39.2313C38.1583 39.7397 36.7275 40.0002 35.2847 40.0005H35.2679C33.7822 39.9986 32.3588 39.727 31.0454 39.2319C30.5366 37.882 30.2761 36.4513 30.2766 35.0088V34.9912C30.2759 33.5492 30.5358 32.119 31.0438 30.7694C32.3939 30.26 33.825 29.9994 35.268 30H35.2849C36.7277 29.9993 38.1587 30.2599 39.5086 30.7692C40.0172 32.1187 40.2774 33.549 40.2766 34.9911V35.0086L40.2765 35.0088ZM54.9988 31.6667H43.3244L51.579 23.4116C50.9311 22.5014 50.2083 21.647 49.4183 20.857V20.8564C48.6283 20.0673 47.7741 19.3453 46.8644 18.6977L38.6093 26.9528V15.2784C37.5113 15.0937 36.4 15.0006 35.2866 15L35.266 15C34.1335 15.0006 33.0243 15.0969 31.9433 15.2784V26.9528L23.6882 18.6977C22.7784 19.3451 21.9245 20.0677 21.1355 20.8578L21.1311 20.8609C20.3425 21.6499 19.6208 22.503 18.9735 23.4116L27.2293 31.6667H15.555C15.555 31.6667 15.2766 33.8594 15.2766 34.9931V35.0069C15.2766 36.1406 15.3727 37.2517 15.555 38.3333H27.2294L18.9736 46.5884C20.2723 48.4109 21.8657 50.0043 23.6882 51.303L31.9433 43.0472V54.7222C33.04 54.906 34.1501 54.9989 35.2621 55H35.2904C36.4024 54.999 37.5124 54.9061 38.6091 54.7222V43.0472L46.865 51.303C47.7745 50.6551 48.6285 49.9329 49.4183 49.1436L49.4202 49.1417C50.2091 48.3518 50.9312 47.4977 51.579 46.5884L43.3232 38.3333H54.9988C55.1805 37.2536 55.2754 36.1458 55.2766 35.0145V34.9855C55.2754 33.8542 55.1805 32.7464 54.9988 31.6667Z" fill="#FF4A00"/>
</svg>
