<svg width="593" height="502" viewBox="0 0 593 502" fill="none" xmlns="http://www.w3.org/2000/svg">
<rect x="33" width="560" height="502" rx="10" fill="#2E1065"/>
<rect y="67" width="536.912" height="91.3252" rx="8.02859" fill="white"/>
<path d="M0 75.0286C0 70.5945 3.59452 67 8.02859 67H49V159H8.02859C3.59452 159 0 155.405 0 150.971V75.0286Z" fill="#8B5CF6"/>
<path d="M71.422 108.231L75.2747 96.841H78.4242L82.277 108.231H79.6932L78.9288 105.907H74.7549L73.9905 108.231H71.422ZM75.4123 103.843H78.2714L76.5284 98.4616H77.1706L75.4123 103.843ZM86.9232 108.415C86.1078 108.415 85.379 108.221 84.7369 107.834C84.0947 107.446 83.5851 106.921 83.208 106.259C82.841 105.596 82.6576 104.863 82.6576 104.057C82.6576 103.242 82.8461 102.508 83.2233 101.856C83.6004 101.193 84.11 100.668 84.7521 100.281C85.3943 99.8937 86.1128 99.7 86.9079 99.7C87.5194 99.7 88.0596 99.8173 88.5285 100.052C89.0075 100.276 89.3847 100.597 89.6599 101.015L89.3082 101.474V96.6576H91.6015V108.231H89.4611V106.702L89.6751 107.176C89.3898 107.584 89.0024 107.895 88.5132 108.109C88.024 108.313 87.4939 108.415 86.9232 108.415ZM87.1984 106.351C87.6162 106.351 87.9832 106.254 88.2991 106.06C88.6151 105.867 88.8597 105.596 89.033 105.25C89.2165 104.903 89.3082 104.506 89.3082 104.057C89.3082 103.609 89.2165 103.211 89.033 102.865C88.8597 102.518 88.6151 102.248 88.2991 102.055C87.9832 101.861 87.6162 101.764 87.1984 101.764C86.7805 101.764 86.4033 101.866 86.067 102.07C85.7408 102.263 85.486 102.534 85.3025 102.88C85.1191 103.216 85.0273 103.609 85.0273 104.057C85.0273 104.506 85.1191 104.903 85.3025 105.25C85.486 105.596 85.7408 105.867 86.067 106.06C86.4033 106.254 86.7805 106.351 87.1984 106.351ZM97.2103 108.415C96.3949 108.415 95.6661 108.221 95.024 107.834C94.3818 107.446 93.8722 106.921 93.4951 106.259C93.1281 105.596 92.9447 104.863 92.9447 104.057C92.9447 103.242 93.1332 102.508 93.5104 101.856C93.8875 101.193 94.3971 100.668 95.0393 100.281C95.6814 99.8937 96.4 99.7 97.195 99.7C97.8065 99.7 98.3467 99.8173 98.8156 100.052C99.2946 100.276 99.6718 100.597 99.947 101.015L99.5953 101.474V96.6576H101.889V108.231H99.7482V106.702L99.9623 107.176C99.6769 107.584 99.2895 107.895 98.8003 108.109C98.3111 108.313 97.781 108.415 97.2103 108.415ZM97.4855 106.351C97.9034 106.351 98.2703 106.254 98.5863 106.06C98.9022 105.867 99.1468 105.596 99.3201 105.25C99.5036 104.903 99.5953 104.506 99.5953 104.057C99.5953 103.609 99.5036 103.211 99.3201 102.865C99.1468 102.518 98.9022 102.248 98.5863 102.055C98.2703 101.861 97.9034 101.764 97.4855 101.764C97.0676 101.764 96.6904 101.866 96.3541 102.07C96.0279 102.263 95.7731 102.534 95.5896 102.88C95.4062 103.216 95.3145 103.609 95.3145 104.057C95.3145 104.506 95.4062 104.903 95.5896 105.25C95.7731 105.596 96.0279 105.867 96.3541 106.06C96.6904 106.254 97.0676 106.351 97.4855 106.351ZM112.186 108.415C111.33 108.415 110.535 108.267 109.801 107.971C109.067 107.676 108.425 107.263 107.875 106.733C107.335 106.193 106.912 105.566 106.606 104.852C106.3 104.139 106.147 103.364 106.147 102.528C106.147 101.693 106.295 100.918 106.591 100.205C106.896 99.4911 107.319 98.8693 107.86 98.3393C108.41 97.8093 109.052 97.3965 109.786 97.1009C110.52 96.8054 111.32 96.6576 112.186 96.6576C113.053 96.6576 113.853 96.8054 114.587 97.1009C115.32 97.3965 115.958 97.8093 116.498 98.3393C117.048 98.8693 117.471 99.4911 117.767 100.205C118.072 100.918 118.225 101.693 118.225 102.528C118.225 103.364 118.072 104.139 117.767 104.852C117.461 105.566 117.033 106.193 116.482 106.733C115.942 107.263 115.305 107.676 114.571 107.971C113.837 108.267 113.042 108.415 112.186 108.415ZM112.186 106.274C112.706 106.274 113.185 106.182 113.623 105.999C114.072 105.816 114.464 105.561 114.801 105.235C115.137 104.898 115.397 104.501 115.58 104.042C115.764 103.583 115.856 103.079 115.856 102.528C115.856 101.978 115.764 101.479 115.58 101.03C115.397 100.572 115.137 100.174 114.801 99.8376C114.464 99.5013 114.072 99.2465 113.623 99.0732C113.185 98.8897 112.706 98.798 112.186 98.798C111.666 98.798 111.182 98.8897 110.734 99.0732C110.296 99.2465 109.908 99.5013 109.572 99.8376C109.236 100.174 108.976 100.572 108.792 101.03C108.609 101.479 108.517 101.978 108.517 102.528C108.517 103.079 108.609 103.583 108.792 104.042C108.976 104.501 109.236 104.898 109.572 105.235C109.908 105.561 110.296 105.816 110.734 105.999C111.182 106.182 111.666 106.274 112.186 106.274ZM114.602 109.607L111.208 103.675H113.654L117.094 109.607H114.602ZM122.734 108.415C122.062 108.415 121.486 108.272 121.007 107.987C120.538 107.691 120.181 107.283 119.937 106.763C119.692 106.244 119.57 105.637 119.57 104.944V99.8835H121.863V104.761C121.863 105.077 121.924 105.357 122.046 105.602C122.179 105.836 122.362 106.019 122.597 106.152C122.831 106.284 123.096 106.351 123.392 106.351C123.698 106.351 123.963 106.284 124.187 106.152C124.421 106.019 124.6 105.836 124.722 105.602C124.855 105.357 124.921 105.077 124.921 104.761V99.8835H127.214V108.231H125.074V106.58L125.196 106.947C125.002 107.446 124.686 107.818 124.248 108.063C123.82 108.297 123.315 108.415 122.734 108.415ZM132.911 108.415C132.024 108.415 131.255 108.221 130.603 107.834C129.95 107.436 129.446 106.906 129.089 106.244C128.732 105.581 128.554 104.847 128.554 104.042C128.554 103.206 128.737 102.462 129.104 101.81C129.481 101.158 129.986 100.643 130.618 100.266C131.25 99.8886 131.963 99.7 132.758 99.7C133.421 99.7 134.007 99.8071 134.517 100.021C135.026 100.225 135.454 100.515 135.801 100.893C136.158 101.27 136.428 101.708 136.611 102.207C136.795 102.697 136.886 103.232 136.886 103.813C136.886 103.976 136.876 104.139 136.856 104.302C136.846 104.455 136.82 104.587 136.779 104.699H130.526V103.018H135.48L134.394 103.813C134.496 103.374 134.491 102.987 134.379 102.651C134.267 102.304 134.068 102.034 133.783 101.84C133.507 101.637 133.166 101.535 132.758 101.535C132.361 101.535 132.019 101.632 131.734 101.825C131.449 102.019 131.235 102.304 131.092 102.681C130.949 103.058 130.893 103.517 130.924 104.057C130.883 104.526 130.939 104.939 131.092 105.296C131.245 105.652 131.479 105.933 131.795 106.137C132.111 106.33 132.493 106.427 132.942 106.427C133.349 106.427 133.696 106.346 133.981 106.182C134.277 106.019 134.506 105.795 134.669 105.51L136.504 106.381C136.341 106.789 136.081 107.146 135.724 107.451C135.378 107.757 134.965 107.997 134.486 108.17C134.007 108.333 133.482 108.415 132.911 108.415ZM141.509 108.415C140.591 108.415 139.791 108.201 139.108 107.773C138.435 107.334 137.977 106.748 137.732 106.014L139.414 105.219C139.628 105.668 139.919 106.019 140.285 106.274C140.652 106.529 141.06 106.656 141.509 106.656C141.835 106.656 142.084 106.59 142.258 106.458C142.431 106.325 142.518 106.142 142.518 105.907C142.518 105.785 142.487 105.683 142.426 105.602C142.365 105.51 142.273 105.428 142.151 105.357C142.028 105.286 141.875 105.224 141.692 105.173L140.27 104.776C139.587 104.582 139.062 104.271 138.695 103.843C138.328 103.405 138.145 102.89 138.145 102.299C138.145 101.779 138.278 101.326 138.543 100.938C138.808 100.551 139.18 100.25 139.659 100.036C140.138 99.8122 140.688 99.7 141.31 99.7C142.125 99.7 142.839 99.8937 143.45 100.281C144.072 100.658 144.51 101.193 144.765 101.886L143.068 102.681C142.946 102.335 142.721 102.06 142.395 101.856C142.079 101.642 141.717 101.535 141.31 101.535C141.014 101.535 140.78 101.596 140.607 101.718C140.443 101.84 140.362 102.009 140.362 102.223C140.362 102.335 140.392 102.437 140.454 102.528C140.515 102.62 140.612 102.702 140.744 102.773C140.887 102.844 141.06 102.911 141.264 102.972L142.594 103.369C143.287 103.573 143.817 103.884 144.184 104.302C144.551 104.71 144.734 105.214 144.734 105.816C144.734 106.335 144.597 106.789 144.322 107.176C144.057 107.564 143.685 107.869 143.206 108.094C142.727 108.308 142.161 108.415 141.509 108.415ZM150.126 108.323C149.117 108.323 148.332 108.053 147.772 107.513C147.221 106.962 146.946 106.198 146.946 105.219V101.871H145.539V99.8835H145.616C146.044 99.8835 146.37 99.7765 146.594 99.5624C146.829 99.3484 146.946 99.0273 146.946 98.5992V97.9877H149.239V99.8835H151.196V101.871H149.239V105.066C149.239 105.352 149.29 105.591 149.392 105.785C149.494 105.968 149.652 106.106 149.866 106.198C150.08 106.29 150.345 106.335 150.661 106.335C150.733 106.335 150.814 106.33 150.906 106.32C150.998 106.31 151.094 106.3 151.196 106.29V108.231C151.043 108.252 150.87 108.272 150.676 108.292C150.483 108.313 150.299 108.323 150.126 108.323ZM152.54 108.231V99.8835H154.833V108.231H152.54ZM152.54 99.1344V96.841H154.833V99.1344H152.54ZM160.655 108.415C159.829 108.415 159.075 108.226 158.392 107.849C157.719 107.472 157.179 106.957 156.772 106.305C156.374 105.642 156.175 104.893 156.175 104.057C156.175 103.211 156.374 102.462 156.772 101.81C157.179 101.158 157.719 100.643 158.392 100.266C159.075 99.8886 159.829 99.7 160.655 99.7C161.481 99.7 162.23 99.8886 162.902 100.266C163.575 100.643 164.11 101.158 164.508 101.81C164.915 102.462 165.119 103.211 165.119 104.057C165.119 104.893 164.915 105.642 164.508 106.305C164.11 106.957 163.575 107.472 162.902 107.849C162.23 108.226 161.481 108.415 160.655 108.415ZM160.655 106.351C161.073 106.351 161.435 106.254 161.74 106.06C162.056 105.867 162.301 105.596 162.474 105.25C162.658 104.903 162.75 104.506 162.75 104.057C162.75 103.609 162.658 103.216 162.474 102.88C162.301 102.534 162.056 102.263 161.74 102.07C161.435 101.866 161.073 101.764 160.655 101.764C160.237 101.764 159.87 101.866 159.554 102.07C159.238 102.263 158.988 102.534 158.805 102.88C158.632 103.216 158.545 103.609 158.545 104.057C158.545 104.506 158.632 104.903 158.805 105.25C158.988 105.596 159.238 105.867 159.554 106.06C159.87 106.254 160.237 106.351 160.655 106.351ZM166.47 108.231V99.8835H168.611V101.535L168.488 101.168C168.682 100.668 168.993 100.301 169.421 100.067C169.859 99.8223 170.369 99.7 170.95 99.7C171.582 99.7 172.132 99.8325 172.601 100.098C173.08 100.363 173.452 100.735 173.717 101.214C173.982 101.682 174.115 102.233 174.115 102.865V108.231H171.821V103.354C171.821 103.028 171.755 102.748 171.623 102.513C171.5 102.279 171.322 102.095 171.088 101.963C170.863 101.83 170.598 101.764 170.293 101.764C169.997 101.764 169.732 101.83 169.497 101.963C169.263 102.095 169.08 102.279 168.947 102.513C168.825 102.748 168.764 103.028 168.764 103.354V108.231H166.47ZM71.422 131.231L75.5041 119.841H77.2776L81.3597 131.231H79.7544L78.8218 128.556H73.9599L73.0273 131.231H71.422ZM74.4339 127.18H78.3478L76.1768 120.927H76.6049L74.4339 127.18ZM86.0739 131.415C85.2993 131.415 84.6011 131.226 83.9793 130.849C83.3678 130.472 82.8836 129.957 82.5269 129.305C82.1702 128.652 81.9918 127.924 81.9918 127.119C81.9918 126.293 82.1702 125.559 82.5269 124.917C82.8836 124.265 83.3678 123.75 83.9793 123.373C84.6011 122.996 85.2993 122.807 86.0739 122.807C86.7568 122.807 87.3633 122.955 87.8933 123.25C88.4233 123.536 88.8412 123.923 89.147 124.412L88.9176 124.764V119.658H90.3548V131.231H88.9635V129.473L89.147 129.718C88.8616 130.258 88.4437 130.676 87.8933 130.971C87.3531 131.267 86.7466 131.415 86.0739 131.415ZM86.1962 130.039C86.716 130.039 87.1798 129.911 87.5875 129.656C87.9952 129.402 88.3163 129.055 88.5507 128.617C88.7953 128.168 88.9176 127.669 88.9176 127.119C88.9176 126.558 88.7953 126.058 88.5507 125.62C88.3163 125.172 87.9952 124.82 87.5875 124.565C87.1798 124.31 86.716 124.183 86.1962 124.183C85.6866 124.183 85.2228 124.316 84.8049 124.581C84.3972 124.835 84.0762 125.182 83.8417 125.62C83.6073 126.048 83.4901 126.548 83.4901 127.119C83.4901 127.669 83.6073 128.168 83.8417 128.617C84.0762 129.055 84.3972 129.402 84.8049 129.656C85.2126 129.911 85.6764 130.039 86.1962 130.039ZM96.3013 131.415C95.5267 131.415 94.8285 131.226 94.2067 130.849C93.5952 130.472 93.111 129.957 92.7543 129.305C92.3975 128.652 92.2192 127.924 92.2192 127.119C92.2192 126.293 92.3975 125.559 92.7543 124.917C93.111 124.265 93.5952 123.75 94.2067 123.373C94.8285 122.996 95.5267 122.807 96.3013 122.807C96.9842 122.807 97.5907 122.955 98.1207 123.25C98.6507 123.536 99.0686 123.923 99.3743 124.412L99.145 124.764V119.658H100.582V131.231H99.1909V129.473L99.3743 129.718C99.089 130.258 98.6711 130.676 98.1207 130.971C97.5805 131.267 96.974 131.415 96.3013 131.415ZM96.4236 130.039C96.9434 130.039 97.4072 129.911 97.8149 129.656C98.2226 129.402 98.5437 129.055 98.7781 128.617C99.0227 128.168 99.145 127.669 99.145 127.119C99.145 126.558 99.0227 126.058 98.7781 125.62C98.5437 125.172 98.2226 124.82 97.8149 124.565C97.4072 124.31 96.9434 124.183 96.4236 124.183C95.914 124.183 95.4502 124.316 95.0323 124.581C94.6246 124.835 94.3036 125.182 94.0691 125.62C93.8347 126.048 93.7175 126.548 93.7175 127.119C93.7175 127.669 93.8347 128.168 94.0691 128.617C94.3036 129.055 94.6246 129.402 95.0323 129.656C95.44 129.911 95.9038 130.039 96.4236 130.039ZM107.841 131.415C107.301 131.415 106.822 131.318 106.404 131.124C105.996 130.92 105.675 130.645 105.441 130.299C105.206 129.942 105.089 129.534 105.089 129.075C105.089 128.637 105.181 128.245 105.364 127.898C105.558 127.541 105.854 127.241 106.251 126.996C106.659 126.752 107.169 126.578 107.78 126.476L110.838 125.972V127.164L108.101 127.623C107.571 127.715 107.184 127.883 106.939 128.128C106.705 128.372 106.588 128.673 106.588 129.03C106.588 129.366 106.72 129.646 106.985 129.87C107.26 130.095 107.602 130.207 108.009 130.207C108.529 130.207 108.978 130.1 109.355 129.886C109.742 129.662 110.043 129.361 110.257 128.984C110.481 128.607 110.593 128.189 110.593 127.73V125.635C110.593 125.187 110.425 124.825 110.089 124.55C109.763 124.265 109.329 124.122 108.789 124.122C108.32 124.122 107.902 124.244 107.535 124.489C107.179 124.723 106.914 125.039 106.74 125.437L105.502 124.795C105.655 124.417 105.9 124.081 106.236 123.786C106.572 123.48 106.965 123.24 107.413 123.067C107.862 122.894 108.33 122.807 108.82 122.807C109.452 122.807 110.007 122.929 110.486 123.174C110.965 123.408 111.337 123.74 111.602 124.168C111.878 124.586 112.015 125.075 112.015 125.635V131.231H110.624V129.672L110.884 129.763C110.71 130.09 110.476 130.375 110.18 130.62C109.885 130.864 109.538 131.058 109.141 131.201C108.743 131.343 108.31 131.415 107.841 131.415ZM116.862 131.231V122.991H118.254V124.596L118.024 124.458C118.228 123.938 118.554 123.536 119.003 123.25C119.461 122.955 119.997 122.807 120.608 122.807C121.199 122.807 121.724 122.94 122.183 123.205C122.652 123.47 123.019 123.837 123.284 124.305C123.559 124.774 123.696 125.304 123.696 125.895V131.231H122.259V126.354C122.259 125.895 122.178 125.508 122.015 125.192C121.852 124.876 121.617 124.632 121.311 124.458C121.016 124.275 120.674 124.183 120.287 124.183C119.9 124.183 119.553 124.275 119.247 124.458C118.952 124.632 118.717 124.881 118.544 125.207C118.371 125.523 118.284 125.906 118.284 126.354V131.231H116.862ZM129.523 131.415C128.728 131.415 128.019 131.226 127.398 130.849C126.776 130.472 126.287 129.957 125.93 129.305C125.573 128.642 125.395 127.903 125.395 127.088C125.395 126.262 125.568 125.528 125.915 124.886C126.271 124.244 126.75 123.74 127.352 123.373C127.963 122.996 128.646 122.807 129.4 122.807C130.012 122.807 130.552 122.919 131.021 123.143C131.5 123.357 131.903 123.653 132.229 124.03C132.565 124.397 132.82 124.82 132.993 125.299C133.177 125.768 133.268 126.257 133.268 126.767C133.268 126.879 133.258 127.006 133.238 127.149C133.228 127.282 133.212 127.409 133.192 127.531H126.434V126.308H132.366L131.694 126.859C131.785 126.329 131.734 125.855 131.541 125.437C131.347 125.019 131.062 124.688 130.685 124.443C130.308 124.198 129.879 124.076 129.4 124.076C128.921 124.076 128.483 124.198 128.086 124.443C127.688 124.688 127.377 125.039 127.153 125.498C126.939 125.946 126.852 126.481 126.893 127.103C126.852 127.705 126.944 128.235 127.168 128.693C127.403 129.142 127.729 129.493 128.147 129.748C128.575 129.993 129.039 130.115 129.538 130.115C130.088 130.115 130.552 129.988 130.929 129.733C131.306 129.478 131.612 129.152 131.847 128.754L133.039 129.366C132.876 129.743 132.621 130.09 132.275 130.406C131.938 130.711 131.536 130.956 131.067 131.139C130.608 131.323 130.093 131.415 129.523 131.415ZM137.018 131.231L134.19 122.991H135.764L138.012 129.886L137.462 129.87L139.663 122.991H141.009L143.21 129.87L142.66 129.886L144.923 122.991H146.482L143.654 131.231H142.293L140.122 124.351H140.55L138.379 131.231H137.018ZM156.986 134.289V129.473L157.215 129.718C156.93 130.258 156.512 130.676 155.961 130.971C155.421 131.267 154.815 131.415 154.142 131.415C153.367 131.415 152.669 131.226 152.047 130.849C151.436 130.472 150.952 129.957 150.595 129.305C150.238 128.652 150.06 127.924 150.06 127.119C150.06 126.293 150.238 125.559 150.595 124.917C150.952 124.265 151.436 123.75 152.047 123.373C152.669 122.996 153.367 122.807 154.142 122.807C154.825 122.807 155.431 122.955 155.961 123.25C156.491 123.536 156.909 123.923 157.215 124.412L157.032 124.764V122.991H158.423V134.289H156.986ZM154.264 130.039C154.784 130.039 155.248 129.911 155.656 129.656C156.063 129.402 156.384 129.055 156.619 128.617C156.863 128.168 156.986 127.669 156.986 127.119C156.986 126.558 156.863 126.058 156.619 125.62C156.384 125.172 156.063 124.82 155.656 124.565C155.248 124.31 154.784 124.183 154.264 124.183C153.755 124.183 153.291 124.316 152.873 124.581C152.465 124.835 152.144 125.182 151.91 125.62C151.675 126.048 151.558 126.548 151.558 127.119C151.558 127.669 151.675 128.168 151.91 128.617C152.144 129.055 152.465 129.402 152.873 129.656C153.281 129.911 153.745 130.039 154.264 130.039ZM163.544 131.415C162.953 131.415 162.418 131.277 161.938 131.002C161.47 130.727 161.103 130.344 160.838 129.855C160.583 129.356 160.455 128.785 160.455 128.143V122.991H161.877V127.99C161.877 128.398 161.959 128.754 162.122 129.06C162.295 129.366 162.53 129.605 162.825 129.779C163.131 129.952 163.478 130.039 163.865 130.039C164.252 130.039 164.594 129.952 164.889 129.779C165.195 129.605 165.429 129.356 165.593 129.03C165.766 128.703 165.852 128.316 165.852 127.868V122.991H167.29V131.231H165.898V129.626L166.128 129.763C165.934 130.283 165.603 130.691 165.134 130.987C164.675 131.272 164.145 131.415 163.544 131.415ZM173.284 131.415C172.489 131.415 171.781 131.226 171.159 130.849C170.537 130.472 170.048 129.957 169.691 129.305C169.334 128.642 169.156 127.903 169.156 127.088C169.156 126.262 169.329 125.528 169.676 124.886C170.033 124.244 170.512 123.74 171.113 123.373C171.725 122.996 172.407 122.807 173.162 122.807C173.773 122.807 174.313 122.919 174.782 123.143C175.261 123.357 175.664 123.653 175.99 124.03C176.326 124.397 176.581 124.82 176.755 125.299C176.938 125.768 177.03 126.257 177.03 126.767C177.03 126.879 177.02 127.006 176.999 127.149C176.989 127.282 176.974 127.409 176.953 127.531H170.196V126.308H176.128L175.455 126.859C175.547 126.329 175.496 125.855 175.302 125.437C175.108 125.019 174.823 124.688 174.446 124.443C174.069 124.198 173.641 124.076 173.162 124.076C172.683 124.076 172.244 124.198 171.847 124.443C171.449 124.688 171.138 125.039 170.914 125.498C170.7 125.946 170.614 126.481 170.654 127.103C170.614 127.705 170.705 128.235 170.93 128.693C171.164 129.142 171.49 129.493 171.908 129.748C172.336 129.993 172.8 130.115 173.299 130.115C173.85 130.115 174.313 129.988 174.691 129.733C175.068 129.478 175.373 129.152 175.608 128.754L176.8 129.366C176.637 129.743 176.383 130.09 176.036 130.406C175.7 130.711 175.297 130.956 174.828 131.139C174.369 131.323 173.855 131.415 173.284 131.415ZM181.834 131.415C181.009 131.415 180.29 131.211 179.679 130.803C179.067 130.395 178.634 129.845 178.379 129.152L179.51 128.602C179.745 129.091 180.066 129.478 180.474 129.763C180.881 130.049 181.335 130.192 181.834 130.192C182.283 130.192 182.655 130.085 182.95 129.87C183.246 129.656 183.394 129.376 183.394 129.03C183.394 128.785 183.322 128.591 183.18 128.449C183.047 128.296 182.884 128.179 182.691 128.097C182.497 128.005 182.319 127.939 182.155 127.898L180.917 127.547C180.173 127.333 179.628 127.027 179.281 126.629C178.945 126.232 178.777 125.768 178.777 125.238C178.777 124.749 178.899 124.326 179.144 123.969C179.398 123.602 179.74 123.317 180.168 123.113C180.606 122.909 181.095 122.807 181.636 122.807C182.359 122.807 183.007 122.991 183.577 123.357C184.158 123.724 184.571 124.239 184.816 124.902L183.654 125.437C183.47 125.009 183.195 124.672 182.828 124.428C182.461 124.173 182.048 124.045 181.59 124.045C181.172 124.045 180.841 124.152 180.596 124.367C180.351 124.57 180.229 124.83 180.229 125.146C180.229 125.381 180.29 125.574 180.413 125.727C180.535 125.87 180.683 125.982 180.856 126.064C181.029 126.135 181.197 126.196 181.36 126.247L182.706 126.645C183.379 126.838 183.898 127.139 184.265 127.547C184.642 127.954 184.831 128.444 184.831 129.014C184.831 129.473 184.704 129.886 184.449 130.253C184.194 130.62 183.842 130.905 183.394 131.109C182.945 131.313 182.426 131.415 181.834 131.415ZM190.041 131.323C189.235 131.323 188.614 131.094 188.175 130.635C187.747 130.176 187.533 129.529 187.533 128.693V124.351H186.035V122.991H186.341C186.708 122.991 186.998 122.878 187.212 122.654C187.426 122.43 187.533 122.134 187.533 121.767V121.095H188.955V122.991H190.805V124.351H188.955V128.647C188.955 128.923 188.996 129.162 189.077 129.366C189.169 129.57 189.317 129.733 189.521 129.855C189.725 129.967 189.995 130.023 190.331 130.023C190.402 130.023 190.489 130.018 190.591 130.008C190.703 129.998 190.805 129.988 190.897 129.978V131.231C190.764 131.262 190.616 131.282 190.453 131.292C190.29 131.313 190.153 131.323 190.041 131.323ZM192.754 131.231V122.991H194.176V131.231H192.754ZM192.754 121.676V119.841H194.176V121.676H192.754ZM200.296 131.415C199.501 131.415 198.783 131.231 198.14 130.864C197.498 130.487 196.989 129.972 196.611 129.32C196.234 128.668 196.046 127.929 196.046 127.103C196.046 126.278 196.229 125.544 196.596 124.902C196.973 124.259 197.483 123.75 198.125 123.373C198.767 122.996 199.491 122.807 200.296 122.807C201.091 122.807 201.81 122.996 202.452 123.373C203.094 123.74 203.598 124.244 203.965 124.886C204.343 125.528 204.531 126.267 204.531 127.103C204.531 127.939 204.337 128.683 203.95 129.335C203.563 129.978 203.048 130.487 202.406 130.864C201.774 131.231 201.071 131.415 200.296 131.415ZM200.296 130.039C200.806 130.039 201.264 129.911 201.672 129.656C202.09 129.402 202.416 129.05 202.651 128.602C202.895 128.153 203.018 127.654 203.018 127.103C203.018 126.543 202.895 126.048 202.651 125.62C202.416 125.182 202.09 124.835 201.672 124.581C201.264 124.316 200.806 124.183 200.296 124.183C199.776 124.183 199.307 124.316 198.89 124.581C198.482 124.835 198.156 125.182 197.911 125.62C197.666 126.048 197.544 126.543 197.544 127.103C197.544 127.654 197.666 128.153 197.911 128.602C198.156 129.05 198.482 129.402 198.89 129.656C199.307 129.911 199.776 130.039 200.296 130.039ZM206.386 131.231V122.991H207.777V124.596L207.548 124.458C207.751 123.938 208.078 123.536 208.526 123.25C208.985 122.955 209.52 122.807 210.131 122.807C210.723 122.807 211.247 122.94 211.706 123.205C212.175 123.47 212.542 123.837 212.807 124.305C213.082 124.774 213.22 125.304 213.22 125.895V131.231H211.783V126.354C211.783 125.895 211.701 125.508 211.538 125.192C211.375 124.876 211.14 124.632 210.835 124.458C210.539 124.275 210.198 124.183 209.81 124.183C209.423 124.183 209.076 124.275 208.771 124.458C208.475 124.632 208.241 124.881 208.067 125.207C207.894 125.523 207.807 125.906 207.807 126.354V131.231H206.386ZM221.245 131.323C220.44 131.323 219.818 131.094 219.38 130.635C218.952 130.176 218.738 129.529 218.738 128.693V124.351H217.24V122.991H217.545C217.912 122.991 218.203 122.878 218.417 122.654C218.631 122.43 218.738 122.134 218.738 121.767V121.095H220.16V122.991H222.01V124.351H220.16V128.647C220.16 128.923 220.201 129.162 220.282 129.366C220.374 129.57 220.522 129.733 220.725 129.855C220.929 129.967 221.199 130.023 221.536 130.023C221.607 130.023 221.694 130.018 221.796 130.008C221.908 129.998 222.01 129.988 222.101 129.978V131.231C221.969 131.262 221.821 131.282 221.658 131.292C221.495 131.313 221.357 131.323 221.245 131.323ZM227.649 131.415C226.854 131.415 226.135 131.231 225.493 130.864C224.851 130.487 224.341 129.972 223.964 129.32C223.587 128.668 223.398 127.929 223.398 127.103C223.398 126.278 223.582 125.544 223.949 124.902C224.326 124.259 224.836 123.75 225.478 123.373C226.12 122.996 226.844 122.807 227.649 122.807C228.444 122.807 229.162 122.996 229.804 123.373C230.447 123.74 230.951 124.244 231.318 124.886C231.695 125.528 231.884 126.267 231.884 127.103C231.884 127.939 231.69 128.683 231.303 129.335C230.915 129.978 230.401 130.487 229.759 130.864C229.127 131.231 228.423 131.415 227.649 131.415ZM227.649 130.039C228.158 130.039 228.617 129.911 229.025 129.656C229.443 129.402 229.769 129.05 230.003 128.602C230.248 128.153 230.37 127.654 230.37 127.103C230.37 126.543 230.248 126.048 230.003 125.62C229.769 125.182 229.443 124.835 229.025 124.581C228.617 124.316 228.158 124.183 227.649 124.183C227.129 124.183 226.66 124.316 226.242 124.581C225.834 124.835 225.508 125.182 225.264 125.62C225.019 126.048 224.897 126.543 224.897 127.103C224.897 127.654 225.019 128.153 225.264 128.602C225.508 129.05 225.834 129.402 226.242 129.656C226.66 129.911 227.129 130.039 227.649 130.039ZM236.824 134.595C236.641 134.595 236.457 134.579 236.274 134.549C236.09 134.518 235.917 134.467 235.754 134.396V133.127C235.866 133.147 236.004 133.168 236.167 133.188C236.34 133.219 236.508 133.234 236.671 133.234C237.15 133.234 237.512 133.127 237.757 132.913C238.012 132.709 238.251 132.352 238.476 131.843L238.995 130.604L238.965 131.843L235.448 122.991H236.993L239.729 130.023H239.271L241.992 122.991H243.567L239.852 132.21C239.678 132.648 239.454 133.045 239.179 133.402C238.914 133.769 238.588 134.06 238.2 134.274C237.813 134.488 237.354 134.595 236.824 134.595ZM248.596 131.415C247.801 131.415 247.083 131.231 246.441 130.864C245.798 130.487 245.289 129.972 244.912 129.32C244.535 128.668 244.346 127.929 244.346 127.103C244.346 126.278 244.529 125.544 244.896 124.902C245.273 124.259 245.783 123.75 246.425 123.373C247.067 122.996 247.791 122.807 248.596 122.807C249.391 122.807 250.11 122.996 250.752 123.373C251.394 123.74 251.899 124.244 252.266 124.886C252.643 125.528 252.831 126.267 252.831 127.103C252.831 127.939 252.638 128.683 252.25 129.335C251.863 129.978 251.348 130.487 250.706 130.864C250.074 131.231 249.371 131.415 248.596 131.415ZM248.596 130.039C249.106 130.039 249.565 129.911 249.972 129.656C250.39 129.402 250.716 129.05 250.951 128.602C251.195 128.153 251.318 127.654 251.318 127.103C251.318 126.543 251.195 126.048 250.951 125.62C250.716 125.182 250.39 124.835 249.972 124.581C249.565 124.316 249.106 124.183 248.596 124.183C248.076 124.183 247.608 124.316 247.19 124.581C246.782 124.835 246.456 125.182 246.211 125.62C245.967 126.048 245.844 126.543 245.844 127.103C245.844 127.654 245.967 128.153 246.211 128.602C246.456 129.05 246.782 129.402 247.19 129.656C247.608 129.911 248.076 130.039 248.596 130.039ZM257.606 131.415C257.015 131.415 256.48 131.277 256.001 131.002C255.532 130.727 255.165 130.344 254.9 129.855C254.645 129.356 254.518 128.785 254.518 128.143V122.991H255.939V127.99C255.939 128.398 256.021 128.754 256.184 129.06C256.357 129.366 256.592 129.605 256.887 129.779C257.193 129.952 257.54 130.039 257.927 130.039C258.314 130.039 258.656 129.952 258.951 129.779C259.257 129.605 259.492 129.356 259.655 129.03C259.828 128.703 259.915 128.316 259.915 127.868V122.991H261.352V131.231H259.96V129.626L260.19 129.763C259.996 130.283 259.665 130.691 259.196 130.987C258.737 131.272 258.207 131.415 257.606 131.415ZM263.554 131.231V122.991H264.946V124.504L264.793 124.29C264.987 123.821 265.282 123.475 265.68 123.25C266.077 123.016 266.561 122.899 267.132 122.899H267.637V124.244H266.918C266.337 124.244 265.868 124.428 265.511 124.795C265.155 125.151 264.976 125.661 264.976 126.323V131.231H263.554ZM274.493 131.415C273.667 131.415 272.949 131.211 272.337 130.803C271.726 130.395 271.293 129.845 271.038 129.152L272.169 128.602C272.404 129.091 272.725 129.478 273.132 129.763C273.54 130.049 273.994 130.192 274.493 130.192C274.941 130.192 275.314 130.085 275.609 129.87C275.905 129.656 276.052 129.376 276.052 129.03C276.052 128.785 275.981 128.591 275.838 128.449C275.706 128.296 275.543 128.179 275.349 128.097C275.156 128.005 274.977 127.939 274.814 127.898L273.576 127.547C272.832 127.333 272.286 127.027 271.94 126.629C271.603 126.232 271.435 125.768 271.435 125.238C271.435 124.749 271.558 124.326 271.802 123.969C272.057 123.602 272.398 123.317 272.827 123.113C273.265 122.909 273.754 122.807 274.294 122.807C275.018 122.807 275.665 122.991 276.236 123.357C276.817 123.724 277.23 124.239 277.474 124.902L276.312 125.437C276.129 125.009 275.854 124.672 275.487 124.428C275.12 124.173 274.707 124.045 274.248 124.045C273.83 124.045 273.499 124.152 273.255 124.367C273.01 124.57 272.888 124.83 272.888 125.146C272.888 125.381 272.949 125.574 273.071 125.727C273.193 125.87 273.341 125.982 273.515 126.064C273.688 126.135 273.856 126.196 274.019 126.247L275.364 126.645C276.037 126.838 276.557 127.139 276.924 127.547C277.301 127.954 277.49 128.444 277.49 129.014C277.49 129.473 277.362 129.886 277.107 130.253C276.853 130.62 276.501 130.905 276.052 131.109C275.604 131.313 275.084 131.415 274.493 131.415ZM282.271 131.415C281.68 131.415 281.145 131.277 280.666 131.002C280.197 130.727 279.83 130.344 279.565 129.855C279.31 129.356 279.183 128.785 279.183 128.143V122.991H280.605V127.99C280.605 128.398 280.686 128.754 280.849 129.06C281.022 129.366 281.257 129.605 281.553 129.779C281.858 129.952 282.205 130.039 282.592 130.039C282.979 130.039 283.321 129.952 283.616 129.779C283.922 129.605 284.157 129.356 284.32 129.03C284.493 128.703 284.58 128.316 284.58 127.868V122.991H286.017V131.231H284.626V129.626L284.855 129.763C284.661 130.283 284.33 130.691 283.861 130.987C283.402 131.272 282.872 131.415 282.271 131.415ZM288.22 131.231V122.991H289.611V124.504L289.458 124.29C289.652 123.821 289.947 123.475 290.345 123.25C290.742 123.016 291.226 122.899 291.797 122.899H292.302V124.244H291.583C291.002 124.244 290.533 124.428 290.177 124.795C289.82 125.151 289.641 125.661 289.641 126.323V131.231H288.22ZM295.858 131.231L292.632 122.991H294.222L296.806 129.962H296.256L298.855 122.991H300.445L297.203 131.231H295.858ZM305.359 131.415C304.564 131.415 303.856 131.226 303.234 130.849C302.612 130.472 302.123 129.957 301.766 129.305C301.41 128.642 301.231 127.903 301.231 127.088C301.231 126.262 301.404 125.528 301.751 124.886C302.108 124.244 302.587 123.74 303.188 123.373C303.8 122.996 304.483 122.807 305.237 122.807C305.848 122.807 306.389 122.919 306.857 123.143C307.336 123.357 307.739 123.653 308.065 124.03C308.402 124.397 308.656 124.82 308.83 125.299C309.013 125.768 309.105 126.257 309.105 126.767C309.105 126.879 309.095 127.006 309.074 127.149C309.064 127.282 309.049 127.409 309.028 127.531H302.271V126.308H308.203L307.53 126.859C307.622 126.329 307.571 125.855 307.377 125.437C307.184 125.019 306.898 124.688 306.521 124.443C306.144 124.198 305.716 124.076 305.237 124.076C304.758 124.076 304.319 124.198 303.922 124.443C303.524 124.688 303.214 125.039 302.989 125.498C302.775 125.946 302.689 126.481 302.729 127.103C302.689 127.705 302.78 128.235 303.005 128.693C303.239 129.142 303.565 129.493 303.983 129.748C304.411 129.993 304.875 130.115 305.374 130.115C305.925 130.115 306.389 129.988 306.766 129.733C307.143 129.478 307.449 129.152 307.683 128.754L308.876 129.366C308.712 129.743 308.458 130.09 308.111 130.406C307.775 130.711 307.372 130.956 306.903 131.139C306.445 131.323 305.93 131.415 305.359 131.415ZM311.402 134.595C311.219 134.595 311.035 134.579 310.852 134.549C310.668 134.518 310.495 134.467 310.332 134.396V133.127C310.444 133.147 310.582 133.168 310.745 133.188C310.918 133.219 311.086 133.234 311.249 133.234C311.728 133.234 312.09 133.127 312.335 132.913C312.59 132.709 312.829 132.352 313.053 131.843L313.573 130.604L313.543 131.843L310.026 122.991H311.57L314.307 130.023H313.848L316.57 122.991H318.145L314.429 132.21C314.256 132.648 314.032 133.045 313.757 133.402C313.492 133.769 313.165 134.06 312.778 134.274C312.391 134.488 311.932 134.595 311.402 134.595Z" fill="#2E1065"/>
<path d="M23.584 104.132V122.197M32.6162 113.164L14.5519 113.164" stroke="white" stroke-width="1.69353" stroke-linecap="round" stroke-linejoin="round"/>
<rect x="126.591" y="168.729" width="390.819" height="43.4243" rx="6.78505" fill="white" stroke="#2E1065" stroke-width="0.904673"/>
<path d="M165.278 196.49V186.222H171.784V187.462H166.629V190.784H171.301V192.024H166.629V196.49H165.278ZM172.745 196.49V189.061H173.999V190.426L173.861 190.233C174.036 189.81 174.302 189.498 174.66 189.295C175.019 189.084 175.455 188.978 175.97 188.978H176.425V190.191H175.777C175.253 190.191 174.83 190.357 174.509 190.687C174.187 191.009 174.026 191.468 174.026 192.066V196.49H172.745ZM180.981 196.655C180.264 196.655 179.626 196.485 179.065 196.145C178.505 195.805 178.064 195.341 177.742 194.753C177.421 194.156 177.26 193.49 177.26 192.755C177.26 192.011 177.416 191.349 177.728 190.77C178.05 190.191 178.482 189.737 179.024 189.406C179.575 189.066 180.191 188.896 180.871 188.896C181.422 188.896 181.909 188.997 182.332 189.199C182.764 189.392 183.126 189.658 183.42 189.998C183.724 190.329 183.953 190.71 184.11 191.142C184.275 191.565 184.358 192.006 184.358 192.465C184.358 192.566 184.348 192.681 184.33 192.81C184.321 192.929 184.307 193.044 184.289 193.154H178.197V192.052H183.544L182.938 192.548C183.021 192.07 182.975 191.643 182.8 191.266C182.626 190.89 182.368 190.591 182.028 190.37C181.689 190.15 181.303 190.04 180.871 190.04C180.439 190.04 180.044 190.15 179.685 190.37C179.327 190.591 179.047 190.908 178.845 191.321C178.652 191.726 178.574 192.208 178.61 192.769C178.574 193.311 178.656 193.788 178.859 194.202C179.07 194.606 179.364 194.923 179.741 195.153C180.127 195.373 180.545 195.484 180.995 195.484C181.491 195.484 181.909 195.369 182.249 195.139C182.589 194.909 182.865 194.615 183.076 194.257L184.151 194.808C184.004 195.148 183.774 195.461 183.462 195.746C183.159 196.021 182.796 196.242 182.373 196.407C181.96 196.572 181.496 196.655 180.981 196.655ZM189.447 196.655C188.73 196.655 188.092 196.485 187.531 196.145C186.971 195.805 186.53 195.341 186.208 194.753C185.886 194.156 185.726 193.49 185.726 192.755C185.726 192.011 185.882 191.349 186.194 190.77C186.516 190.191 186.948 189.737 187.49 189.406C188.041 189.066 188.657 188.896 189.337 188.896C189.888 188.896 190.375 188.997 190.797 189.199C191.229 189.392 191.592 189.658 191.886 189.998C192.189 190.329 192.419 190.71 192.575 191.142C192.741 191.565 192.823 192.006 192.823 192.465C192.823 192.566 192.814 192.681 192.796 192.81C192.787 192.929 192.773 193.044 192.755 193.154H186.663V192.052H192.01L191.404 192.548C191.487 192.07 191.441 191.643 191.266 191.266C191.091 190.89 190.834 190.591 190.494 190.37C190.154 190.15 189.768 190.04 189.337 190.04C188.905 190.04 188.51 190.15 188.151 190.37C187.793 190.591 187.513 190.908 187.311 191.321C187.118 191.726 187.04 192.208 187.076 192.769C187.04 193.311 187.122 193.788 187.324 194.202C187.536 194.606 187.83 194.923 188.206 195.153C188.592 195.373 189.01 195.484 189.461 195.484C189.957 195.484 190.375 195.369 190.715 195.139C191.055 194.909 191.33 194.615 191.542 194.257L192.617 194.808C192.47 195.148 192.24 195.461 191.928 195.746C191.624 196.021 191.261 196.242 190.839 196.407C190.425 196.572 189.961 196.655 189.447 196.655ZM199.895 196.572C199.169 196.572 198.609 196.366 198.214 195.952C197.828 195.539 197.635 194.955 197.635 194.202V190.288H196.284V189.061H196.56C196.891 189.061 197.153 188.96 197.345 188.758C197.538 188.556 197.635 188.289 197.635 187.959V187.352H198.917V189.061H200.584V190.288H198.917V194.161C198.917 194.409 198.953 194.625 199.027 194.808C199.11 194.992 199.243 195.139 199.427 195.249C199.61 195.35 199.854 195.401 200.157 195.401C200.221 195.401 200.299 195.396 200.391 195.387C200.492 195.378 200.584 195.369 200.667 195.36V196.49C200.548 196.517 200.414 196.536 200.267 196.545C200.12 196.563 199.996 196.572 199.895 196.572ZM205.557 196.655C204.841 196.655 204.202 196.485 203.642 196.145C203.081 195.805 202.64 195.341 202.319 194.753C201.997 194.156 201.836 193.49 201.836 192.755C201.836 192.011 201.992 191.349 202.305 190.77C202.626 190.191 203.058 189.737 203.6 189.406C204.152 189.066 204.767 188.896 205.447 188.896C205.998 188.896 206.485 188.997 206.908 189.199C207.34 189.392 207.703 189.658 207.997 189.998C208.3 190.329 208.53 190.71 208.686 191.142C208.851 191.565 208.934 192.006 208.934 192.465C208.934 192.566 208.925 192.681 208.906 192.81C208.897 192.929 208.883 193.044 208.865 193.154H202.773V192.052H208.121L207.514 192.548C207.597 192.07 207.551 191.643 207.377 191.266C207.202 190.89 206.945 190.591 206.605 190.37C206.265 190.15 205.879 190.04 205.447 190.04C205.015 190.04 204.62 190.15 204.262 190.37C203.903 190.591 203.623 190.908 203.421 191.321C203.228 191.726 203.15 192.208 203.187 192.769C203.15 193.311 203.233 193.788 203.435 194.202C203.646 194.606 203.94 194.923 204.317 195.153C204.703 195.373 205.121 195.484 205.571 195.484C206.067 195.484 206.485 195.369 206.825 195.139C207.165 194.909 207.441 194.615 207.652 194.257L208.727 194.808C208.58 195.148 208.351 195.461 208.038 195.746C207.735 196.021 207.372 196.242 206.949 196.407C206.536 196.572 206.072 196.655 205.557 196.655ZM209.63 196.49L212.235 192.769L209.644 189.061H211.187L213.406 192.286H212.621L214.812 189.061H216.369L213.778 192.769L216.356 196.49H214.812L212.621 193.265H213.392L211.201 196.49H209.63ZM220.528 196.572C219.802 196.572 219.242 196.366 218.847 195.952C218.461 195.539 218.268 194.955 218.268 194.202V190.288H216.917V189.061H217.193C217.523 189.061 217.785 188.96 217.978 188.758C218.171 188.556 218.268 188.289 218.268 187.959V187.352H219.549V189.061H221.217V190.288H219.549V194.161C219.549 194.409 219.586 194.625 219.66 194.808C219.742 194.992 219.876 195.139 220.059 195.249C220.243 195.35 220.487 195.401 220.79 195.401C220.854 195.401 220.932 195.396 221.024 195.387C221.125 195.378 221.217 195.369 221.3 195.36V196.49C221.18 196.517 221.047 196.536 220.9 196.545C220.753 196.563 220.629 196.572 220.528 196.572Z" fill="#2E1065"/>
<path d="M143.327 189.989H148.755M143.327 193.608H148.755M150.564 198.131H141.518C140.518 198.131 139.708 197.321 139.708 196.322V183.656C139.708 182.657 140.518 181.847 141.518 181.847H146.571C146.811 181.847 147.041 181.942 147.211 182.112L152.109 187.01C152.278 187.18 152.374 187.41 152.374 187.65V196.322C152.374 197.321 151.564 198.131 150.564 198.131Z" stroke="#6F44F3" stroke-width="1.52664" stroke-linecap="round" stroke-linejoin="round"/>
<rect x="81.357" y="222.105" width="390.819" height="43.4243" rx="6.78505" fill="white" stroke="#2E1065" stroke-width="0.904673"/>
<path d="M127.192 249.578C126.539 249.578 125.942 249.459 125.4 249.22C124.858 248.972 124.399 248.636 124.022 248.214C123.645 247.791 123.374 247.318 123.209 246.794L124.38 246.312C124.628 246.973 124.996 247.483 125.483 247.842C125.979 248.191 126.558 248.365 127.219 248.365C127.624 248.365 127.977 248.301 128.281 248.172C128.584 248.044 128.818 247.865 128.983 247.635C129.158 247.396 129.245 247.12 129.245 246.808C129.245 246.376 129.121 246.036 128.873 245.788C128.634 245.531 128.281 245.338 127.812 245.209L125.924 244.63C125.18 244.401 124.61 244.038 124.215 243.542C123.82 243.045 123.622 242.476 123.622 241.833C123.622 241.272 123.755 240.781 124.022 240.358C124.298 239.926 124.674 239.591 125.152 239.352C125.639 239.104 126.19 238.98 126.806 238.98C127.421 238.98 127.977 239.09 128.474 239.311C128.979 239.531 129.406 239.83 129.755 240.206C130.104 240.574 130.362 240.997 130.527 241.474L129.369 241.957C129.149 241.378 128.818 240.941 128.377 240.647C127.936 240.344 127.417 240.193 126.82 240.193C126.452 240.193 126.126 240.257 125.841 240.386C125.566 240.505 125.35 240.684 125.193 240.923C125.046 241.153 124.973 241.428 124.973 241.75C124.973 242.127 125.092 242.462 125.331 242.756C125.57 243.05 125.933 243.275 126.42 243.431L128.143 243.941C128.951 244.189 129.562 244.543 129.976 245.003C130.389 245.462 130.596 246.032 130.596 246.712C130.596 247.272 130.449 247.768 130.155 248.2C129.87 248.632 129.47 248.972 128.956 249.22C128.451 249.459 127.863 249.578 127.192 249.578ZM135.867 249.578C135.142 249.578 134.494 249.408 133.924 249.068C133.364 248.728 132.923 248.264 132.601 247.676C132.279 247.088 132.119 246.427 132.119 245.692C132.119 244.947 132.279 244.286 132.601 243.707C132.923 243.128 133.364 242.669 133.924 242.329C134.494 241.989 135.142 241.819 135.867 241.819C136.354 241.819 136.809 241.906 137.232 242.081C137.655 242.255 138.027 242.49 138.348 242.784C138.67 243.078 138.904 243.422 139.051 243.817L137.907 244.369C137.733 243.983 137.466 243.67 137.108 243.431C136.749 243.183 136.336 243.059 135.867 243.059C135.417 243.059 135.008 243.174 134.641 243.404C134.282 243.634 133.998 243.946 133.786 244.341C133.575 244.736 133.469 245.191 133.469 245.705C133.469 246.202 133.575 246.652 133.786 247.056C133.998 247.451 134.282 247.764 134.641 247.993C135.008 248.223 135.417 248.338 135.867 248.338C136.336 248.338 136.749 248.218 137.108 247.98C137.466 247.731 137.733 247.405 137.907 247.001L139.051 247.58C138.904 247.966 138.67 248.31 138.348 248.613C138.027 248.907 137.655 249.142 137.232 249.316C136.809 249.491 136.354 249.578 135.867 249.578ZM140.726 249.413V238.98H142.008V243.431L141.774 243.307C141.957 242.839 142.251 242.476 142.656 242.219C143.069 241.952 143.552 241.819 144.103 241.819C144.636 241.819 145.109 241.938 145.522 242.177C145.945 242.416 146.276 242.747 146.515 243.17C146.763 243.592 146.887 244.07 146.887 244.603V249.413H145.591V245.016C145.591 244.603 145.513 244.254 145.357 243.969C145.21 243.684 145.003 243.464 144.737 243.307C144.47 243.142 144.163 243.059 143.813 243.059C143.473 243.059 143.166 243.142 142.89 243.307C142.614 243.464 142.398 243.689 142.242 243.983C142.086 244.268 142.008 244.612 142.008 245.016V249.413H140.726ZM152.139 249.578C151.422 249.578 150.784 249.408 150.223 249.068C149.663 248.728 149.222 248.264 148.9 247.676C148.578 247.079 148.418 246.413 148.418 245.678C148.418 244.934 148.574 244.272 148.886 243.693C149.208 243.114 149.64 242.66 150.182 242.329C150.733 241.989 151.349 241.819 152.029 241.819C152.58 241.819 153.067 241.92 153.489 242.122C153.921 242.315 154.284 242.582 154.578 242.921C154.881 243.252 155.111 243.634 155.267 244.065C155.433 244.488 155.515 244.929 155.515 245.388C155.515 245.49 155.506 245.604 155.488 245.733C155.479 245.852 155.465 245.967 155.447 246.078H149.355V244.975H154.702L154.096 245.471C154.179 244.993 154.133 244.566 153.958 244.189C153.784 243.813 153.526 243.514 153.186 243.294C152.846 243.073 152.46 242.963 152.029 242.963C151.597 242.963 151.202 243.073 150.843 243.294C150.485 243.514 150.205 243.831 150.003 244.245C149.81 244.649 149.732 245.131 149.768 245.692C149.732 246.234 149.814 246.712 150.016 247.125C150.228 247.529 150.522 247.846 150.898 248.076C151.284 248.296 151.702 248.407 152.153 248.407C152.649 248.407 153.067 248.292 153.407 248.062C153.747 247.832 154.022 247.538 154.234 247.18L155.309 247.731C155.162 248.071 154.932 248.384 154.62 248.669C154.316 248.944 153.953 249.165 153.531 249.33C153.117 249.496 152.653 249.578 152.139 249.578ZM160.563 249.578C159.865 249.578 159.236 249.408 158.675 249.068C158.124 248.728 157.687 248.264 157.366 247.676C157.044 247.088 156.883 246.431 156.883 245.705C156.883 244.961 157.044 244.3 157.366 243.721C157.687 243.133 158.124 242.669 158.675 242.329C159.236 241.989 159.865 241.819 160.563 241.819C161.179 241.819 161.726 241.952 162.203 242.219C162.681 242.476 163.058 242.825 163.333 243.266L163.127 243.583V238.98H164.422V249.413H163.168V247.828L163.333 248.048C163.076 248.535 162.7 248.912 162.203 249.179C161.716 249.445 161.17 249.578 160.563 249.578ZM160.674 248.338C161.142 248.338 161.56 248.223 161.928 247.993C162.295 247.764 162.585 247.451 162.796 247.056C163.016 246.652 163.127 246.202 163.127 245.705C163.127 245.2 163.016 244.75 162.796 244.355C162.585 243.951 162.295 243.634 161.928 243.404C161.56 243.174 161.142 243.059 160.674 243.059C160.214 243.059 159.796 243.179 159.419 243.418C159.052 243.647 158.762 243.96 158.551 244.355C158.34 244.741 158.234 245.191 158.234 245.705C158.234 246.202 158.34 246.652 158.551 247.056C158.762 247.451 159.052 247.764 159.419 247.993C159.787 248.223 160.205 248.338 160.674 248.338ZM169.039 249.578C168.506 249.578 168.023 249.454 167.591 249.206C167.169 248.958 166.838 248.613 166.599 248.172C166.369 247.722 166.255 247.208 166.255 246.629V241.984H167.536V246.491C167.536 246.859 167.61 247.18 167.757 247.456C167.913 247.731 168.124 247.947 168.391 248.104C168.666 248.26 168.979 248.338 169.328 248.338C169.677 248.338 169.985 248.26 170.251 248.104C170.527 247.947 170.738 247.722 170.885 247.428C171.042 247.134 171.12 246.785 171.12 246.381V241.984H172.415V249.413H171.161V247.966L171.368 248.09C171.193 248.558 170.895 248.926 170.472 249.192C170.058 249.45 169.581 249.578 169.039 249.578ZM174.401 249.413V238.98H175.683V249.413H174.401ZM181.089 249.578C180.373 249.578 179.734 249.408 179.174 249.068C178.613 248.728 178.172 248.264 177.851 247.676C177.529 247.079 177.368 246.413 177.368 245.678C177.368 244.934 177.524 244.272 177.837 243.693C178.158 243.114 178.59 242.66 179.132 242.329C179.684 241.989 180.299 241.819 180.979 241.819C181.53 241.819 182.017 241.92 182.44 242.122C182.872 242.315 183.235 242.582 183.529 242.921C183.832 243.252 184.062 243.634 184.218 244.065C184.383 244.488 184.466 244.929 184.466 245.388C184.466 245.49 184.457 245.604 184.438 245.733C184.429 245.852 184.415 245.967 184.397 246.078H178.305V244.975H183.653L183.046 245.471C183.129 244.993 183.083 244.566 182.909 244.189C182.734 243.813 182.477 243.514 182.137 243.294C181.797 243.073 181.411 242.963 180.979 242.963C180.547 242.963 180.152 243.073 179.794 243.294C179.436 243.514 179.155 243.831 178.953 244.245C178.76 244.649 178.682 245.131 178.719 245.692C178.682 246.234 178.765 246.712 178.967 247.125C179.178 247.529 179.472 247.846 179.849 248.076C180.235 248.296 180.653 248.407 181.103 248.407C181.599 248.407 182.017 248.292 182.357 248.062C182.697 247.832 182.973 247.538 183.184 247.18L184.259 247.731C184.112 248.071 183.883 248.384 183.57 248.669C183.267 248.944 182.904 249.165 182.481 249.33C182.068 249.496 181.604 249.578 181.089 249.578ZM190.697 249.578C190.21 249.578 189.778 249.491 189.402 249.316C189.034 249.133 188.745 248.885 188.533 248.572C188.322 248.251 188.216 247.883 188.216 247.47C188.216 247.074 188.299 246.721 188.464 246.408C188.639 246.087 188.905 245.816 189.264 245.595C189.631 245.375 190.091 245.218 190.642 245.127L193.398 244.672V245.747L190.931 246.16C190.454 246.243 190.104 246.395 189.884 246.615C189.673 246.836 189.567 247.107 189.567 247.428C189.567 247.731 189.686 247.984 189.925 248.186C190.173 248.388 190.481 248.489 190.849 248.489C191.317 248.489 191.722 248.393 192.061 248.2C192.411 247.998 192.682 247.727 192.875 247.387C193.077 247.047 193.178 246.67 193.178 246.257V244.369C193.178 243.964 193.026 243.638 192.723 243.39C192.429 243.133 192.038 243.004 191.552 243.004C191.129 243.004 190.752 243.114 190.421 243.335C190.1 243.546 189.861 243.831 189.705 244.189L188.588 243.611C188.726 243.271 188.947 242.967 189.25 242.701C189.553 242.425 189.907 242.209 190.311 242.053C190.715 241.897 191.138 241.819 191.579 241.819C192.149 241.819 192.65 241.929 193.081 242.15C193.513 242.361 193.849 242.66 194.087 243.045C194.336 243.422 194.46 243.863 194.46 244.369V249.413H193.205V248.007L193.44 248.09C193.283 248.384 193.072 248.641 192.806 248.862C192.539 249.082 192.227 249.257 191.869 249.385C191.51 249.514 191.12 249.578 190.697 249.578ZM198.829 249.413V241.984H200.083V243.5L199.904 243.266C200.088 242.797 200.382 242.439 200.786 242.191C201.19 241.943 201.645 241.819 202.151 241.819C202.729 241.819 203.249 241.98 203.708 242.301C204.177 242.623 204.498 243.045 204.673 243.569L204.314 243.583C204.507 243.004 204.834 242.568 205.293 242.274C205.752 241.97 206.262 241.819 206.823 241.819C207.337 241.819 207.801 241.938 208.215 242.177C208.637 242.416 208.973 242.747 209.221 243.17C209.469 243.592 209.593 244.07 209.593 244.603V249.413H208.297V245.016C208.297 244.603 208.224 244.254 208.077 243.969C207.93 243.684 207.728 243.464 207.471 243.307C207.222 243.142 206.928 243.059 206.588 243.059C206.258 243.059 205.959 243.142 205.693 243.307C205.435 243.464 205.229 243.689 205.072 243.983C204.925 244.268 204.852 244.612 204.852 245.016V249.413H203.556V245.016C203.556 244.603 203.483 244.254 203.336 243.969C203.189 243.684 202.987 243.464 202.729 243.307C202.481 243.142 202.187 243.059 201.847 243.059C201.517 243.059 201.218 243.142 200.952 243.307C200.694 243.464 200.488 243.689 200.331 243.983C200.184 244.268 200.111 244.612 200.111 245.016V249.413H198.829ZM214.831 249.578C214.115 249.578 213.476 249.408 212.916 249.068C212.355 248.728 211.914 248.264 211.593 247.676C211.271 247.079 211.11 246.413 211.11 245.678C211.11 244.934 211.266 244.272 211.579 243.693C211.9 243.114 212.332 242.66 212.874 242.329C213.426 241.989 214.041 241.819 214.721 241.819C215.272 241.819 215.759 241.92 216.182 242.122C216.614 242.315 216.977 242.582 217.271 242.921C217.574 243.252 217.804 243.634 217.96 244.065C218.125 244.488 218.208 244.929 218.208 245.388C218.208 245.49 218.199 245.604 218.18 245.733C218.171 245.852 218.157 245.967 218.139 246.078H212.047V244.975H217.395L216.788 245.471C216.871 244.993 216.825 244.566 216.651 244.189C216.476 243.813 216.219 243.514 215.879 243.294C215.539 243.073 215.153 242.963 214.721 242.963C214.289 242.963 213.894 243.073 213.536 243.294C213.178 243.514 212.897 243.831 212.695 244.245C212.502 244.649 212.424 245.131 212.461 245.692C212.424 246.234 212.507 246.712 212.709 247.125C212.92 247.529 213.214 247.846 213.591 248.076C213.977 248.296 214.395 248.407 214.845 248.407C215.341 248.407 215.759 248.292 216.099 248.062C216.439 247.832 216.715 247.538 216.926 247.18L218.001 247.731C217.854 248.071 217.625 248.384 217.312 248.669C217.009 248.944 216.646 249.165 216.223 249.33C215.81 249.496 215.346 249.578 214.831 249.578ZM223.297 249.578C222.58 249.578 221.942 249.408 221.381 249.068C220.821 248.728 220.38 248.264 220.058 247.676C219.737 247.079 219.576 246.413 219.576 245.678C219.576 244.934 219.732 244.272 220.045 243.693C220.366 243.114 220.798 242.66 221.34 242.329C221.891 241.989 222.507 241.819 223.187 241.819C223.738 241.819 224.225 241.92 224.648 242.122C225.08 242.315 225.443 242.582 225.737 242.921C226.04 243.252 226.269 243.634 226.426 244.065C226.591 244.488 226.674 244.929 226.674 245.388C226.674 245.49 226.665 245.604 226.646 245.733C226.637 245.852 226.623 245.967 226.605 246.078H220.513V244.975H225.861L225.254 245.471C225.337 244.993 225.291 244.566 225.116 244.189C224.942 243.813 224.685 243.514 224.345 243.294C224.005 243.073 223.619 242.963 223.187 242.963C222.755 242.963 222.36 243.073 222.002 243.294C221.643 243.514 221.363 243.831 221.161 244.245C220.968 244.649 220.89 245.131 220.927 245.692C220.89 246.234 220.973 246.712 221.175 247.125C221.386 247.529 221.68 247.846 222.057 248.076C222.443 248.296 222.861 248.407 223.311 248.407C223.807 248.407 224.225 248.292 224.565 248.062C224.905 247.832 225.181 247.538 225.392 247.18L226.467 247.731C226.32 248.071 226.09 248.384 225.778 248.669C225.475 248.944 225.112 249.165 224.689 249.33C224.276 249.496 223.812 249.578 223.297 249.578ZM231.363 249.496C230.637 249.496 230.077 249.289 229.682 248.875C229.296 248.462 229.103 247.878 229.103 247.125V243.211H227.752V241.984H228.028C228.359 241.984 228.621 241.883 228.814 241.681C229.007 241.479 229.103 241.212 229.103 240.882V240.275H230.385V241.984H232.052V243.211H230.385V247.084C230.385 247.332 230.421 247.548 230.495 247.731C230.578 247.915 230.711 248.062 230.895 248.172C231.078 248.274 231.322 248.324 231.625 248.324C231.689 248.324 231.768 248.319 231.859 248.31C231.96 248.301 232.052 248.292 232.135 248.283V249.413C232.016 249.44 231.882 249.459 231.735 249.468C231.588 249.486 231.464 249.496 231.363 249.496ZM233.809 249.413V241.984H235.091V249.413H233.809ZM233.809 240.799V239.145H235.091V240.799H233.809ZM237.08 249.413V241.984H238.334V243.431L238.127 243.307C238.311 242.839 238.605 242.476 239.009 242.219C239.423 241.952 239.905 241.819 240.457 241.819C240.989 241.819 241.463 241.938 241.876 242.177C242.299 242.416 242.63 242.747 242.868 243.17C243.116 243.592 243.241 244.07 243.241 244.603V249.413H241.945V245.016C241.945 244.603 241.872 244.254 241.724 243.969C241.577 243.684 241.366 243.464 241.091 243.307C240.824 243.142 240.516 243.059 240.167 243.059C239.818 243.059 239.506 243.142 239.23 243.307C238.963 243.464 238.752 243.689 238.596 243.983C238.44 244.268 238.362 244.612 238.362 245.016V249.413H237.08ZM248.617 252.445C248.093 252.445 247.606 252.362 247.156 252.197C246.715 252.031 246.333 251.802 246.012 251.508C245.699 251.223 245.461 250.888 245.295 250.502L246.494 249.95C246.623 250.299 246.866 250.594 247.225 250.832C247.592 251.08 248.052 251.205 248.603 251.205C249.026 251.205 249.407 251.122 249.747 250.956C250.096 250.8 250.372 250.561 250.574 250.24C250.776 249.927 250.877 249.546 250.877 249.096V247.428L251.111 247.676C250.854 248.182 250.482 248.568 249.995 248.834C249.517 249.1 248.989 249.234 248.41 249.234C247.712 249.234 247.087 249.073 246.536 248.751C245.984 248.421 245.552 247.975 245.24 247.414C244.928 246.845 244.771 246.215 244.771 245.526C244.771 244.828 244.928 244.199 245.24 243.638C245.552 243.078 245.98 242.637 246.522 242.315C247.073 241.984 247.698 241.819 248.396 241.819C248.975 241.819 249.499 241.952 249.967 242.219C250.445 242.476 250.826 242.834 251.111 243.294L250.918 243.638V241.984H252.172V249.096C252.172 249.739 252.021 250.313 251.718 250.819C251.414 251.324 250.992 251.719 250.45 252.004C249.917 252.298 249.306 252.445 248.617 252.445ZM248.52 247.993C248.961 247.993 249.356 247.883 249.705 247.663C250.064 247.442 250.349 247.148 250.56 246.78C250.771 246.404 250.877 245.986 250.877 245.526C250.877 245.076 250.771 244.663 250.56 244.286C250.349 243.909 250.064 243.611 249.705 243.39C249.356 243.17 248.961 243.059 248.52 243.059C248.07 243.059 247.661 243.17 247.294 243.39C246.926 243.611 246.637 243.909 246.425 244.286C246.223 244.653 246.122 245.067 246.122 245.526C246.122 245.986 246.223 246.404 246.425 246.78C246.637 247.148 246.921 247.442 247.28 247.663C247.647 247.883 248.061 247.993 248.52 247.993Z" fill="#2E1065"/>
<path d="M112.568 235.222L107.14 240.65M107.14 240.65V236.127M107.14 240.65H111.663M98.0934 235.222C97.0941 235.222 96.2841 236.032 96.2841 237.032V237.936C96.2841 245.431 102.36 251.507 109.854 251.507H110.759C111.758 251.507 112.568 250.696 112.568 249.697V246.731C112.568 246.341 112.319 245.995 111.95 245.872L107.884 244.517C107.457 244.375 106.991 244.568 106.789 244.971L105.768 247.013C103.557 246.016 101.775 244.234 100.778 242.022L102.82 241.001C103.222 240.8 103.416 240.333 103.273 239.906L101.918 235.841C101.795 235.472 101.449 235.222 101.06 235.222H98.0934Z" stroke="#6F44F3" stroke-width="1.41355" stroke-linecap="round" stroke-linejoin="round"/>
<rect x="126.591" y="275.48" width="390.819" height="43.4243" rx="6.78505" fill="white" stroke="#2E1065" stroke-width="0.904673"/>
<path d="M168.897 302.789V292.521H172.522C173.202 292.521 173.799 292.65 174.314 292.907C174.828 293.164 175.228 293.532 175.513 294.009C175.807 294.487 175.954 295.048 175.954 295.691C175.954 296.334 175.807 296.894 175.513 297.372C175.228 297.841 174.828 298.208 174.314 298.475C173.808 298.732 173.211 298.861 172.522 298.861H170.248V302.789H168.897ZM170.248 297.62H172.563C172.977 297.62 173.335 297.542 173.638 297.386C173.941 297.23 174.176 297.005 174.341 296.711C174.507 296.417 174.589 296.077 174.589 295.691C174.589 295.296 174.507 294.956 174.341 294.671C174.176 294.377 173.941 294.152 173.638 293.996C173.335 293.839 172.977 293.761 172.563 293.761H170.248V297.62ZM177.629 302.789V295.36H178.91V302.789H177.629ZM177.629 294.175V292.521H178.91V294.175H177.629ZM184.345 302.954C183.619 302.954 182.971 302.784 182.401 302.444C181.841 302.104 181.4 301.64 181.078 301.052C180.757 300.464 180.596 299.802 180.596 299.067C180.596 298.323 180.757 297.662 181.078 297.083C181.4 296.504 181.841 296.045 182.401 295.705C182.971 295.365 183.619 295.195 184.345 295.195C184.832 295.195 185.286 295.282 185.709 295.456C186.132 295.631 186.504 295.865 186.825 296.159C187.147 296.453 187.381 296.798 187.528 297.193L186.384 297.744C186.21 297.358 185.943 297.046 185.585 296.807C185.227 296.559 184.813 296.435 184.345 296.435C183.894 296.435 183.486 296.55 183.118 296.78C182.76 297.009 182.475 297.322 182.264 297.717C182.052 298.112 181.947 298.567 181.947 299.081C181.947 299.577 182.052 300.028 182.264 300.432C182.475 300.827 182.76 301.139 183.118 301.369C183.486 301.599 183.894 301.714 184.345 301.714C184.813 301.714 185.227 301.594 185.585 301.355C185.943 301.107 186.21 300.781 186.384 300.377L187.528 300.956C187.381 301.341 187.147 301.686 186.825 301.989C186.504 302.283 186.132 302.518 185.709 302.692C185.286 302.867 184.832 302.954 184.345 302.954ZM192.222 302.871C191.496 302.871 190.935 302.665 190.54 302.251C190.154 301.838 189.961 301.254 189.961 300.501V296.587H188.611V295.36H188.886C189.217 295.36 189.479 295.259 189.672 295.057C189.865 294.855 189.961 294.588 189.961 294.257V293.651H191.243V295.36H192.911V296.587H191.243V300.459C191.243 300.707 191.28 300.923 191.353 301.107C191.436 301.291 191.569 301.438 191.753 301.548C191.937 301.649 192.18 301.7 192.484 301.7C192.548 301.7 192.626 301.695 192.718 301.686C192.819 301.677 192.911 301.668 192.994 301.658V302.789C192.874 302.816 192.741 302.835 192.594 302.844C192.447 302.862 192.323 302.871 192.222 302.871ZM197.3 302.954C196.767 302.954 196.285 302.83 195.853 302.582C195.43 302.334 195.1 301.989 194.861 301.548C194.631 301.098 194.516 300.583 194.516 300.005V295.36H195.798V299.867C195.798 300.234 195.871 300.556 196.018 300.832C196.175 301.107 196.386 301.323 196.652 301.479C196.928 301.635 197.241 301.714 197.59 301.714C197.939 301.714 198.247 301.635 198.513 301.479C198.789 301.323 199 301.098 199.147 300.804C199.303 300.51 199.381 300.161 199.381 299.757V295.36H200.677V302.789H199.423V301.341L199.629 301.465C199.455 301.934 199.156 302.302 198.734 302.568C198.32 302.825 197.842 302.954 197.3 302.954ZM202.663 302.789V295.36H203.917V296.724L203.779 296.531C203.953 296.109 204.22 295.796 204.578 295.594C204.937 295.383 205.373 295.277 205.888 295.277H206.342V296.49H205.695C205.171 296.49 204.748 296.656 204.427 296.986C204.105 297.308 203.944 297.767 203.944 298.365V302.789H202.663ZM210.899 302.954C210.182 302.954 209.544 302.784 208.983 302.444C208.423 302.104 207.982 301.64 207.66 301.052C207.339 300.455 207.178 299.789 207.178 299.054C207.178 298.309 207.334 297.648 207.646 297.069C207.968 296.49 208.4 296.035 208.942 295.705C209.493 295.365 210.109 295.195 210.789 295.195C211.34 295.195 211.827 295.296 212.25 295.498C212.681 295.691 213.044 295.957 213.338 296.297C213.642 296.628 213.871 297.009 214.027 297.441C214.193 297.864 214.276 298.305 214.276 298.764C214.276 298.865 214.266 298.98 214.248 299.109C214.239 299.228 214.225 299.343 214.207 299.453H208.115V298.351H213.462L212.856 298.847C212.939 298.369 212.893 297.942 212.718 297.565C212.544 297.188 212.286 296.89 211.946 296.669C211.606 296.449 211.22 296.339 210.789 296.339C210.357 296.339 209.962 296.449 209.603 296.669C209.245 296.89 208.965 297.207 208.763 297.62C208.57 298.025 208.492 298.507 208.528 299.067C208.492 299.609 208.574 300.087 208.776 300.501C208.988 300.905 209.282 301.222 209.658 301.452C210.044 301.672 210.462 301.782 210.913 301.782C211.409 301.782 211.827 301.668 212.167 301.438C212.507 301.208 212.782 300.914 212.994 300.556L214.069 301.107C213.922 301.447 213.692 301.76 213.38 302.044C213.076 302.32 212.714 302.54 212.291 302.706C211.877 302.871 211.413 302.954 210.899 302.954ZM222.009 302.954C221.356 302.954 220.759 302.835 220.217 302.596C219.675 302.348 219.216 302.012 218.839 301.59C218.462 301.167 218.191 300.694 218.026 300.17L219.197 299.688C219.445 300.349 219.813 300.859 220.3 301.217C220.796 301.567 221.375 301.741 222.036 301.741C222.441 301.741 222.794 301.677 223.098 301.548C223.401 301.42 223.635 301.24 223.8 301.011C223.975 300.772 224.062 300.496 224.062 300.184C224.062 299.752 223.938 299.412 223.69 299.164C223.451 298.907 223.098 298.714 222.629 298.585L220.741 298.006C219.997 297.776 219.427 297.414 219.032 296.917C218.637 296.421 218.439 295.852 218.439 295.208C218.439 294.648 218.572 294.156 218.839 293.734C219.115 293.302 219.491 292.967 219.969 292.728C220.456 292.48 221.007 292.356 221.623 292.356C222.238 292.356 222.794 292.466 223.291 292.686C223.796 292.907 224.223 293.205 224.572 293.582C224.921 293.95 225.179 294.372 225.344 294.85L224.186 295.332C223.966 294.754 223.635 294.317 223.194 294.023C222.753 293.72 222.234 293.568 221.637 293.568C221.269 293.568 220.943 293.633 220.658 293.761C220.383 293.881 220.167 294.06 220.01 294.299C219.863 294.528 219.79 294.804 219.79 295.126C219.79 295.502 219.909 295.838 220.148 296.132C220.387 296.426 220.75 296.651 221.237 296.807L222.96 297.317C223.768 297.565 224.379 297.919 224.793 298.378C225.206 298.838 225.413 299.407 225.413 300.087C225.413 300.648 225.266 301.144 224.972 301.576C224.687 302.008 224.287 302.348 223.773 302.596C223.268 302.835 222.68 302.954 222.009 302.954ZM230.657 302.954C229.94 302.954 229.302 302.784 228.741 302.444C228.181 302.104 227.74 301.64 227.418 301.052C227.096 300.455 226.936 299.789 226.936 299.054C226.936 298.309 227.092 297.648 227.404 297.069C227.726 296.49 228.158 296.035 228.7 295.705C229.251 295.365 229.867 295.195 230.547 295.195C231.098 295.195 231.585 295.296 232.008 295.498C232.439 295.691 232.802 295.957 233.096 296.297C233.4 296.628 233.629 297.009 233.785 297.441C233.951 297.864 234.033 298.305 234.033 298.764C234.033 298.865 234.024 298.98 234.006 299.109C233.997 299.228 233.983 299.343 233.965 299.453H227.873V298.351H233.22L232.614 298.847C232.697 298.369 232.651 297.942 232.476 297.565C232.302 297.188 232.044 296.89 231.704 296.669C231.364 296.449 230.978 296.339 230.547 296.339C230.115 296.339 229.72 296.449 229.361 296.669C229.003 296.89 228.723 297.207 228.521 297.62C228.328 298.025 228.25 298.507 228.286 299.067C228.25 299.609 228.332 300.087 228.534 300.501C228.746 300.905 229.04 301.222 229.416 301.452C229.802 301.672 230.22 301.782 230.671 301.782C231.167 301.782 231.585 301.668 231.925 301.438C232.265 301.208 232.54 300.914 232.752 300.556L233.827 301.107C233.68 301.447 233.45 301.76 233.138 302.044C232.834 302.32 232.472 302.54 232.049 302.706C231.635 302.871 231.171 302.954 230.657 302.954ZM235.705 302.789V292.356H236.986V302.789H235.705ZM242.393 302.954C241.677 302.954 241.038 302.784 240.477 302.444C239.917 302.104 239.476 301.64 239.154 301.052C238.833 300.455 238.672 299.789 238.672 299.054C238.672 298.309 238.828 297.648 239.141 297.069C239.462 296.49 239.894 296.035 240.436 295.705C240.987 295.365 241.603 295.195 242.283 295.195C242.834 295.195 243.321 295.296 243.744 295.498C244.176 295.691 244.539 295.957 244.833 296.297C245.136 296.628 245.366 297.009 245.522 297.441C245.687 297.864 245.77 298.305 245.77 298.764C245.77 298.865 245.761 298.98 245.742 299.109C245.733 299.228 245.719 299.343 245.701 299.453H239.609V298.351H244.957L244.35 298.847C244.433 298.369 244.387 297.942 244.212 297.565C244.038 297.188 243.781 296.89 243.441 296.669C243.101 296.449 242.715 296.339 242.283 296.339C241.851 296.339 241.456 296.449 241.098 296.669C240.739 296.89 240.459 297.207 240.257 297.62C240.064 298.025 239.986 298.507 240.023 299.067C239.986 299.609 240.069 300.087 240.271 300.501C240.482 300.905 240.776 301.222 241.153 301.452C241.539 301.672 241.957 301.782 242.407 301.782C242.903 301.782 243.321 301.668 243.661 301.438C244.001 301.208 244.277 300.914 244.488 300.556L245.563 301.107C245.416 301.447 245.186 301.76 244.874 302.044C244.571 302.32 244.208 302.54 243.785 302.706C243.372 302.871 242.908 302.954 242.393 302.954ZM250.887 302.954C250.161 302.954 249.513 302.784 248.943 302.444C248.383 302.104 247.942 301.64 247.62 301.052C247.299 300.464 247.138 299.802 247.138 299.067C247.138 298.323 247.299 297.662 247.62 297.083C247.942 296.504 248.383 296.045 248.943 295.705C249.513 295.365 250.161 295.195 250.887 295.195C251.374 295.195 251.828 295.282 252.251 295.456C252.674 295.631 253.046 295.865 253.367 296.159C253.689 296.453 253.923 296.798 254.07 297.193L252.926 297.744C252.752 297.358 252.485 297.046 252.127 296.807C251.769 296.559 251.355 296.435 250.887 296.435C250.436 296.435 250.027 296.55 249.66 296.78C249.302 297.009 249.017 297.322 248.805 297.717C248.594 298.112 248.488 298.567 248.488 299.081C248.488 299.577 248.594 300.028 248.805 300.432C249.017 300.827 249.302 301.139 249.66 301.369C250.027 301.599 250.436 301.714 250.887 301.714C251.355 301.714 251.769 301.594 252.127 301.355C252.485 301.107 252.752 300.781 252.926 300.377L254.07 300.956C253.923 301.341 253.689 301.686 253.367 301.989C253.046 302.283 252.674 302.518 252.251 302.692C251.828 302.867 251.374 302.954 250.887 302.954ZM258.764 302.871C258.038 302.871 257.477 302.665 257.082 302.251C256.696 301.838 256.503 301.254 256.503 300.501V296.587H255.153V295.36H255.428C255.759 295.36 256.021 295.259 256.214 295.057C256.407 294.855 256.503 294.588 256.503 294.257V293.651H257.785V295.36H259.453V296.587H257.785V300.459C257.785 300.707 257.822 300.923 257.895 301.107C257.978 301.291 258.111 301.438 258.295 301.548C258.479 301.649 258.722 301.7 259.025 301.7C259.09 301.7 259.168 301.695 259.26 301.686C259.361 301.677 259.453 301.668 259.535 301.658V302.789C259.416 302.816 259.283 302.835 259.136 302.844C258.989 302.862 258.865 302.871 258.764 302.871ZM261.21 302.789V295.36H262.491V302.789H261.21ZM261.21 294.175V292.521H262.491V294.175H261.21ZM268.008 302.954C267.292 302.954 266.644 302.789 266.065 302.458C265.486 302.118 265.027 301.654 264.687 301.066C264.347 300.478 264.177 299.812 264.177 299.067C264.177 298.323 264.342 297.662 264.673 297.083C265.013 296.504 265.473 296.045 266.051 295.705C266.63 295.365 267.283 295.195 268.008 295.195C268.725 295.195 269.373 295.365 269.952 295.705C270.531 296.035 270.985 296.49 271.316 297.069C271.656 297.648 271.826 298.314 271.826 299.067C271.826 299.821 271.652 300.492 271.302 301.08C270.953 301.658 270.489 302.118 269.91 302.458C269.341 302.789 268.707 302.954 268.008 302.954ZM268.008 301.714C268.468 301.714 268.881 301.599 269.249 301.369C269.626 301.139 269.92 300.822 270.131 300.418C270.351 300.014 270.462 299.564 270.462 299.067C270.462 298.562 270.351 298.116 270.131 297.731C269.92 297.335 269.626 297.023 269.249 296.793C268.881 296.554 268.468 296.435 268.008 296.435C267.54 296.435 267.117 296.554 266.741 296.793C266.373 297.023 266.079 297.335 265.858 297.731C265.638 298.116 265.528 298.562 265.528 299.067C265.528 299.564 265.638 300.014 265.858 300.418C266.079 300.822 266.373 301.139 266.741 301.369C267.117 301.599 267.54 301.714 268.008 301.714ZM273.498 302.789V295.36H274.752V296.807L274.545 296.683C274.729 296.214 275.023 295.852 275.427 295.594C275.841 295.328 276.323 295.195 276.874 295.195C277.407 295.195 277.881 295.314 278.294 295.553C278.717 295.792 279.047 296.123 279.286 296.545C279.534 296.968 279.658 297.446 279.658 297.979V302.789H278.363V298.392C278.363 297.979 278.289 297.629 278.142 297.345C277.995 297.06 277.784 296.839 277.508 296.683C277.242 296.518 276.934 296.435 276.585 296.435C276.236 296.435 275.923 296.518 275.648 296.683C275.381 296.839 275.17 297.064 275.014 297.358C274.858 297.643 274.78 297.988 274.78 298.392V302.789H273.498Z" fill="#2E1065"/>
<path d="M142.422 300.359L146.571 296.21C147.278 295.504 148.423 295.504 149.13 296.21L153.278 300.359M151.469 298.55L152.904 297.115C153.61 296.408 154.756 296.408 155.463 297.115L156.897 298.55M151.469 293.122H151.478M144.232 303.978H155.088C156.087 303.978 156.897 303.168 156.897 302.168V291.312C156.897 290.313 156.087 289.503 155.088 289.503H144.232C143.232 289.503 142.422 290.313 142.422 291.312V302.168C142.422 303.168 143.232 303.978 144.232 303.978Z" stroke="#6F44F3" stroke-width="1.41355" stroke-linecap="round" stroke-linejoin="round"/>
<rect x="80.4523" y="328.856" width="390.819" height="43.4243" rx="6.78505" fill="white" stroke="#2E1065" stroke-width="0.904673"/>
<path d="M127.486 356.33C126.76 356.33 126.09 356.202 125.474 355.944C124.868 355.678 124.335 355.306 123.875 354.828C123.425 354.35 123.076 353.79 122.828 353.147C122.58 352.503 122.456 351.8 122.456 351.038C122.456 350.266 122.58 349.559 122.828 348.915C123.076 348.272 123.425 347.712 123.875 347.234C124.325 346.756 124.858 346.389 125.474 346.131C126.09 345.865 126.76 345.732 127.486 345.732C128.194 345.732 128.828 345.856 129.388 346.104C129.958 346.352 130.436 346.674 130.821 347.069C131.217 347.464 131.497 347.886 131.662 348.337L130.422 348.902C130.183 348.332 129.811 347.873 129.305 347.523C128.8 347.165 128.194 346.986 127.486 346.986C126.77 346.986 126.131 347.156 125.57 347.496C125.019 347.836 124.587 348.309 124.275 348.915C123.963 349.522 123.806 350.229 123.806 351.038C123.806 351.837 123.963 352.54 124.275 353.147C124.587 353.753 125.019 354.226 125.57 354.566C126.131 354.906 126.77 355.076 127.486 355.076C128.194 355.076 128.8 354.901 129.305 354.552C129.811 354.194 130.183 353.73 130.422 353.16L131.662 353.725C131.497 354.176 131.217 354.598 130.821 354.993C130.436 355.388 129.958 355.71 129.388 355.958C128.828 356.206 128.194 356.33 127.486 356.33ZM135.391 356.33C134.904 356.33 134.472 356.243 134.095 356.068C133.728 355.885 133.438 355.636 133.227 355.324C133.016 355.003 132.91 354.635 132.91 354.222C132.91 353.826 132.993 353.473 133.158 353.16C133.333 352.839 133.599 352.568 133.957 352.347C134.325 352.127 134.784 351.97 135.336 351.879L138.092 351.424V352.499L135.625 352.912C135.147 352.995 134.798 353.147 134.578 353.367C134.366 353.588 134.261 353.859 134.261 354.18C134.261 354.483 134.38 354.736 134.619 354.938C134.867 355.14 135.175 355.241 135.542 355.241C136.011 355.241 136.415 355.145 136.755 354.952C137.104 354.75 137.375 354.479 137.568 354.139C137.77 353.799 137.871 353.422 137.871 353.009V351.121C137.871 350.716 137.72 350.39 137.417 350.142C137.123 349.885 136.732 349.756 136.245 349.756C135.822 349.756 135.446 349.866 135.115 350.087C134.793 350.298 134.555 350.583 134.398 350.941L133.282 350.363C133.42 350.023 133.64 349.719 133.944 349.453C134.247 349.177 134.6 348.961 135.005 348.805C135.409 348.649 135.832 348.571 136.273 348.571C136.842 348.571 137.343 348.681 137.775 348.902C138.207 349.113 138.542 349.412 138.781 349.797C139.029 350.174 139.153 350.615 139.153 351.121V356.165H137.899V354.759L138.133 354.842C137.977 355.136 137.766 355.393 137.499 355.614C137.233 355.834 136.92 356.009 136.562 356.137C136.204 356.266 135.813 356.33 135.391 356.33ZM141.14 356.165V345.732H142.422V356.165H141.14ZM144.411 356.165V345.732H145.693V356.165H144.411ZM147.778 353.036V351.865H152.946V353.036H147.778ZM158.035 356.247C157.309 356.247 156.749 356.041 156.354 355.627C155.968 355.214 155.775 354.63 155.775 353.877V349.963H154.424V348.736H154.7C155.031 348.736 155.292 348.635 155.485 348.433C155.678 348.231 155.775 347.964 155.775 347.634V347.027H157.057V348.736H158.724V349.963H157.057V353.836C157.057 354.084 157.093 354.3 157.167 354.483C157.25 354.667 157.383 354.814 157.567 354.924C157.75 355.025 157.994 355.076 158.297 355.076C158.361 355.076 158.439 355.071 158.531 355.062C158.632 355.053 158.724 355.044 158.807 355.035V356.165C158.687 356.192 158.554 356.211 158.407 356.22C158.26 356.238 158.136 356.247 158.035 356.247ZM163.808 356.33C163.091 356.33 162.443 356.165 161.864 355.834C161.285 355.494 160.826 355.03 160.486 354.442C160.146 353.854 159.976 353.188 159.976 352.444C159.976 351.699 160.142 351.038 160.472 350.459C160.812 349.88 161.272 349.421 161.851 349.081C162.429 348.741 163.082 348.571 163.808 348.571C164.524 348.571 165.172 348.741 165.751 349.081C166.33 349.412 166.785 349.866 167.115 350.445C167.455 351.024 167.625 351.69 167.625 352.444C167.625 353.197 167.451 353.868 167.101 354.456C166.752 355.035 166.288 355.494 165.71 355.834C165.14 356.165 164.506 356.33 163.808 356.33ZM163.808 355.09C164.267 355.09 164.68 354.975 165.048 354.745C165.425 354.516 165.719 354.199 165.93 353.794C166.151 353.39 166.261 352.94 166.261 352.444C166.261 351.938 166.151 351.493 165.93 351.107C165.719 350.712 165.425 350.399 165.048 350.17C164.68 349.931 164.267 349.811 163.808 349.811C163.339 349.811 162.916 349.931 162.54 350.17C162.172 350.399 161.878 350.712 161.658 351.107C161.437 351.493 161.327 351.938 161.327 352.444C161.327 352.94 161.437 353.39 161.658 353.794C161.878 354.199 162.172 354.516 162.54 354.745C162.916 354.975 163.339 355.09 163.808 355.09ZM169.393 353.036V351.865H174.562V353.036H169.393ZM175.791 356.165L179.471 345.897H181.07L184.75 356.165H183.303L182.462 353.753H178.079L177.239 356.165H175.791ZM178.507 352.513H182.035L180.078 346.876H180.464L178.507 352.513ZM189.068 356.33C188.343 356.33 187.695 356.16 187.125 355.82C186.565 355.48 186.124 355.016 185.802 354.428C185.48 353.84 185.32 353.179 185.32 352.444C185.32 351.699 185.48 351.038 185.802 350.459C186.124 349.88 186.565 349.421 187.125 349.081C187.695 348.741 188.343 348.571 189.068 348.571C189.555 348.571 190.01 348.658 190.433 348.833C190.855 349.007 191.228 349.242 191.549 349.536C191.871 349.83 192.105 350.174 192.252 350.569L191.108 351.121C190.934 350.735 190.667 350.422 190.309 350.183C189.95 349.935 189.537 349.811 189.068 349.811C188.618 349.811 188.209 349.926 187.842 350.156C187.483 350.385 187.199 350.698 186.987 351.093C186.776 351.488 186.67 351.943 186.67 352.457C186.67 352.954 186.776 353.404 186.987 353.808C187.199 354.203 187.483 354.516 187.842 354.745C188.209 354.975 188.618 355.09 189.068 355.09C189.537 355.09 189.95 354.97 190.309 354.731C190.667 354.483 190.934 354.157 191.108 353.753L192.252 354.332C192.105 354.718 191.871 355.062 191.549 355.365C191.228 355.659 190.855 355.894 190.433 356.068C190.01 356.243 189.555 356.33 189.068 356.33ZM196.945 356.247C196.22 356.247 195.659 356.041 195.264 355.627C194.878 355.214 194.685 354.63 194.685 353.877V349.963H193.334V348.736H193.61C193.941 348.736 194.203 348.635 194.396 348.433C194.589 348.231 194.685 347.964 194.685 347.634V347.027H195.967V348.736H197.635V349.963H195.967V353.836C195.967 354.084 196.004 354.3 196.077 354.483C196.16 354.667 196.293 354.814 196.477 354.924C196.661 355.025 196.904 355.076 197.207 355.076C197.272 355.076 197.35 355.071 197.442 355.062C197.543 355.053 197.635 355.044 197.717 355.035V356.165C197.598 356.192 197.465 356.211 197.318 356.22C197.171 356.238 197.046 356.247 196.945 356.247ZM199.392 356.165V348.736H200.673V356.165H199.392ZM199.392 347.551V345.897H200.673V347.551H199.392ZM206.19 356.33C205.474 356.33 204.826 356.165 204.247 355.834C203.668 355.494 203.209 355.03 202.869 354.442C202.529 353.854 202.359 353.188 202.359 352.444C202.359 351.699 202.524 351.038 202.855 350.459C203.195 349.88 203.654 349.421 204.233 349.081C204.812 348.741 205.464 348.571 206.19 348.571C206.907 348.571 207.555 348.741 208.134 349.081C208.712 349.412 209.167 349.866 209.498 350.445C209.838 351.024 210.008 351.69 210.008 352.444C210.008 353.197 209.833 353.868 209.484 354.456C209.135 355.035 208.671 355.494 208.092 355.834C207.523 356.165 206.889 356.33 206.19 356.33ZM206.19 355.09C206.65 355.09 207.063 354.975 207.431 354.745C207.807 354.516 208.101 354.199 208.313 353.794C208.533 353.39 208.644 352.94 208.644 352.444C208.644 351.938 208.533 351.493 208.313 351.107C208.101 350.712 207.807 350.399 207.431 350.17C207.063 349.931 206.65 349.811 206.19 349.811C205.722 349.811 205.299 349.931 204.922 350.17C204.555 350.399 204.261 350.712 204.04 351.107C203.82 351.493 203.71 351.938 203.71 352.444C203.71 352.94 203.82 353.39 204.04 353.794C204.261 354.199 204.555 354.516 204.922 354.745C205.299 354.975 205.722 355.09 206.19 355.09ZM211.68 356.165V348.736H212.934V350.183L212.727 350.059C212.911 349.591 213.205 349.228 213.609 348.971C214.023 348.704 214.505 348.571 215.056 348.571C215.589 348.571 216.062 348.69 216.476 348.929C216.899 349.168 217.229 349.499 217.468 349.921C217.716 350.344 217.84 350.822 217.84 351.355V356.165H216.545V351.768C216.545 351.355 216.471 351.006 216.324 350.721C216.177 350.436 215.966 350.216 215.69 350.059C215.424 349.894 215.116 349.811 214.767 349.811C214.418 349.811 214.105 349.894 213.83 350.059C213.563 350.216 213.352 350.441 213.196 350.735C213.04 351.019 212.961 351.364 212.961 351.768V356.165H211.68Z" fill="#2E1065"/>
<path d="M106.236 352.83L104.426 357.353L100.808 347.402L110.759 351.021L106.236 352.83ZM106.236 352.83L110.759 357.353M99.1685 341.285L99.8709 343.907M97.3121 346.465L94.6906 345.763M105.285 342.924L103.366 344.843M98.2488 349.961L96.3297 351.88" stroke="#6F44F3" stroke-width="1.41355" stroke-linecap="round" stroke-linejoin="round"/>
<rect x="126.591" y="382.232" width="390.819" height="43.4243" rx="6.78505" fill="white" stroke="#2E1065" stroke-width="0.904673"/>
<path d="M168.897 409.54V399.273H172.26C173.298 399.273 174.203 399.484 174.975 399.907C175.747 400.329 176.344 400.926 176.767 401.698C177.189 402.461 177.401 403.361 177.401 404.4C177.401 405.429 177.189 406.329 176.767 407.101C176.344 407.873 175.747 408.474 174.975 408.906C174.203 409.329 173.298 409.54 172.26 409.54H168.897ZM170.248 408.3H172.274C173.036 408.3 173.693 408.139 174.245 407.818C174.805 407.496 175.237 407.046 175.54 406.467C175.843 405.879 175.995 405.19 175.995 404.4C175.995 403.6 175.839 402.911 175.526 402.332C175.223 401.753 174.791 401.308 174.231 400.995C173.68 400.674 173.027 400.513 172.274 400.513H170.248V408.3ZM181.044 409.706C180.557 409.706 180.126 409.618 179.749 409.444C179.381 409.26 179.092 409.012 178.881 408.7C178.669 408.378 178.564 408.01 178.564 407.597C178.564 407.202 178.646 406.848 178.812 406.536C178.986 406.214 179.253 405.943 179.611 405.723C179.979 405.502 180.438 405.346 180.989 405.254L183.746 404.799V405.874L181.279 406.288C180.801 406.37 180.452 406.522 180.231 406.743C180.02 406.963 179.914 407.234 179.914 407.556C179.914 407.859 180.034 408.112 180.273 408.314C180.521 408.516 180.829 408.617 181.196 408.617C181.665 408.617 182.069 408.52 182.409 408.327C182.758 408.125 183.029 407.854 183.222 407.514C183.424 407.174 183.525 406.798 183.525 406.384V404.496C183.525 404.092 183.374 403.766 183.07 403.517C182.776 403.26 182.386 403.132 181.899 403.132C181.476 403.132 181.1 403.242 180.769 403.462C180.447 403.674 180.208 403.959 180.052 404.317L178.936 403.738C179.074 403.398 179.294 403.095 179.597 402.828C179.901 402.553 180.254 402.337 180.659 402.181C181.063 402.024 181.485 401.946 181.926 401.946C182.496 401.946 182.997 402.057 183.429 402.277C183.861 402.488 184.196 402.787 184.435 403.173C184.683 403.55 184.807 403.991 184.807 404.496V409.54H183.553V408.135L183.787 408.217C183.631 408.511 183.42 408.768 183.153 408.989C182.887 409.21 182.574 409.384 182.216 409.513C181.858 409.641 181.467 409.706 181.044 409.706ZM189.678 409.623C188.952 409.623 188.392 409.416 187.997 409.003C187.611 408.589 187.418 408.006 187.418 407.252V403.338H186.067V402.112H186.343C186.673 402.112 186.935 402.011 187.128 401.809C187.321 401.606 187.418 401.34 187.418 401.009V400.403H188.699V402.112H190.367V403.338H188.699V407.211C188.699 407.459 188.736 407.675 188.81 407.859C188.892 408.043 189.026 408.19 189.209 408.3C189.393 408.401 189.637 408.451 189.94 408.451C190.004 408.451 190.082 408.447 190.174 408.438C190.275 408.429 190.367 408.419 190.45 408.41V409.54C190.33 409.568 190.197 409.586 190.05 409.595C189.903 409.614 189.779 409.623 189.678 409.623ZM195.34 409.706C194.623 409.706 193.985 409.536 193.424 409.196C192.864 408.856 192.423 408.392 192.101 407.804C191.78 407.207 191.619 406.54 191.619 405.805C191.619 405.061 191.775 404.4 192.088 403.821C192.409 403.242 192.841 402.787 193.383 402.456C193.934 402.116 194.55 401.946 195.23 401.946C195.781 401.946 196.268 402.047 196.691 402.25C197.123 402.442 197.486 402.709 197.78 403.049C198.083 403.38 198.313 403.761 198.469 404.193C198.634 404.615 198.717 405.056 198.717 405.516C198.717 405.617 198.708 405.732 198.689 405.86C198.68 405.98 198.666 406.095 198.648 406.205H192.556V405.102H197.904L197.297 405.599C197.38 405.121 197.334 404.694 197.159 404.317C196.985 403.94 196.728 403.642 196.388 403.421C196.048 403.201 195.662 403.09 195.23 403.09C194.798 403.09 194.403 403.201 194.045 403.421C193.686 403.642 193.406 403.959 193.204 404.372C193.011 404.776 192.933 405.259 192.97 405.819C192.933 406.361 193.016 406.839 193.218 407.252C193.429 407.657 193.723 407.974 194.1 408.203C194.486 408.424 194.904 408.534 195.354 408.534C195.85 408.534 196.268 408.419 196.608 408.19C196.948 407.96 197.224 407.666 197.435 407.308L198.51 407.859C198.363 408.199 198.133 408.511 197.821 408.796C197.518 409.072 197.155 409.292 196.732 409.458C196.319 409.623 195.855 409.706 195.34 409.706Z" fill="#2E1065"/>
<path d="M146.041 398.968V395.35M153.278 398.968V395.35M145.136 402.587H154.183M143.327 411.634H155.992C156.992 411.634 157.802 410.824 157.802 409.824V398.968C157.802 397.969 156.992 397.159 155.992 397.159H143.327C142.328 397.159 141.518 397.969 141.518 398.968V409.824C141.518 410.824 142.328 411.634 143.327 411.634Z" stroke="#6F44F3" stroke-width="1.41355" stroke-linecap="round" stroke-linejoin="round"/>
</svg>
