<svg width="171" height="74" viewBox="0 0 171 74" fill="none" xmlns="http://www.w3.org/2000/svg">
<path d="M132.935 19.9139C133.733 19.6479 134.53 19.3818 135.637 19.137C135.371 18.8711 134.887 18.6424 134.413 18.3924C133.876 18.1105 133.094 17.8393 133.642 17.0892C134.131 16.4295 134.78 17.0465 135.264 17.3284C135.663 17.5678 135.988 17.9561 136.275 18.339C136.339 18.4242 136.121 18.7274 135.632 19.1211C135.1 19.8659 135.015 20.568 136.105 20.7541C136.334 20.802 136.525 21.1105 136.728 21.2914C137.004 21.4296 137.26 21.5573 137.536 21.6956C137.813 21.8339 138.068 21.9615 138.345 22.0998C138.621 22.2381 138.877 22.3657 139.153 22.504C140.302 22.7061 141.414 22.956 141.76 24.3124C142.037 24.4507 142.292 24.5784 142.569 24.7167C142.845 24.855 143.101 24.9826 143.377 25.1209C143.654 25.2592 143.909 25.3868 144.186 25.5251C145.335 25.7271 146.447 25.9771 146.793 27.3335C147.069 27.4718 147.325 27.5995 147.601 27.7378C148.511 27.4877 148.362 28.3175 148.607 28.7324C148.883 28.8707 149.139 28.9984 149.415 29.1366C150.437 29.0621 151.001 29.5834 151.214 30.5409C151.49 30.6791 151.745 30.8068 152.022 30.9451C153.043 30.8705 153.607 31.3918 153.82 32.3493C154.097 32.4876 154.352 32.6152 154.629 32.7535C155.538 32.5034 155.39 33.3333 155.634 33.7482L156.443 34.1524C156.72 34.2907 156.975 34.4183 157.252 34.5566C158.161 34.3065 158.012 35.1364 158.257 35.5513C158.534 35.6896 158.789 35.8172 159.066 35.9555L159.874 36.3597C160.784 36.1096 160.635 36.9395 160.88 37.3544C161.077 37.3597 161.257 37.3703 161.46 37.3916C162.273 37.4926 162.779 38.6362 163.779 38.0723C163.353 37.434 162.912 36.801 162.481 36.1467C162.204 36.0084 161.949 35.8808 161.406 35.5298C161.284 35.3755 161.443 35.4287 161.582 35.4712C161.518 35.5989 161.465 35.7053 161.401 35.833C161.268 35.7532 161.135 35.6734 161.007 35.5564C161.002 35.5404 161.076 35.3915 161.401 35.5138C161.943 35.8648 162.199 35.9925 162.475 36.1308C162.975 35.9286 163.183 34.9019 164.023 35.5614C164.194 34.9018 164.3 34.2103 164.55 33.5772C164.619 33.4123 165.124 33.2261 165.316 33.3218C166.241 33.7579 167.204 34.1994 168.024 34.7951C168.401 35.077 168.423 35.8324 168.901 34.8748C169.641 33.3693 169.736 33.3374 168.492 32.1566C167.816 31.513 167.3 30.8161 166.672 29.2522C166.587 28.9969 166.784 29.1618 166.901 29.3533C167.007 29.5129 167.023 29.7203 167.087 29.9118C166.832 29.8374 166.496 29.8427 166.369 29.6725C166.236 29.4863 166.284 29.1512 166.651 29.2416C167.523 30.2097 167.991 30.4969 168.422 30.832C168.896 31.1884 169.295 31.6405 169.789 31.9543C169.997 32.0979 170.417 32.1351 170.625 32.0128C170.79 31.9223 170.901 31.5127 170.875 31.2733C170.449 28.7732 168.608 27.0817 167.15 25.2093C166.187 23.97 165.241 22.7253 164.24 21.5338C162.979 20.0391 161.426 18.7838 159.915 17.5498C154.42 13.0871 148.164 9.80019 141.716 7.05584C138.636 5.74217 135.513 4.08805 131.997 4.07238C129.071 2.31718 125.635 2.43448 122.47 1.45063C119.937 0.663549 117.06 0.913811 114.336 0.722533C111.485 0.520627 108.655 0.754931 105.814 0.797724C104.878 0.808441 104.043 0.909571 103.16 1.07987C102.394 1.22888 101.59 1.213 100.808 1.20775C99.2603 1.19192 97.7762 1.89953 96.34 1.89965C94.6909 1.89979 93.3558 2.73508 91.8716 2.80435C88.132 2.96957 84.8872 4.72528 81.4083 5.67246C80.7434 5.85869 80.1529 6.26835 79.3124 5.87477C78.8921 5.67799 77.8602 5.9334 77.5996 6.32175C76.7273 7.64107 75.3123 7.75822 74.0835 8.06154C70.5248 8.92892 67.2906 10.6634 64.0831 12.2648C61.5564 13.5151 58.7105 14.4463 56.6626 16.6009C54.338 17.1277 52.6519 18.8248 50.6785 19.9793C48.822 21.0593 47.1358 22.4372 45.3964 23.7087C44.2102 24.5653 43.0028 25.4112 41.8805 26.3528C40.8432 27.2306 40.0348 28.4755 38.8964 29.1565C37.2368 30.1354 36.2847 31.8005 34.6942 32.8273C33.657 33.4924 33.0294 34.7478 32.1784 35.7054C31.072 36.9609 29.9922 38.243 28.8061 39.4187C26.1625 42.0202 24.2317 45.1642 22.0031 48.1061C21.2531 49.101 21.2639 50.4628 20.3437 51.4789C19.4661 52.4631 19.2321 53.8355 19.1843 55.1814C19.461 55.3196 19.7163 55.4473 19.9929 55.5856C20.2802 55.4898 20.5993 55.277 20.86 55.3142C21.5781 55.4471 20.9824 55.8408 20.9931 56.1387C20.9931 56.4047 21.0623 56.8249 21.2166 56.9154C22.7008 57.6972 21.3709 58.0697 21.1316 58.841C21.3072 60.0592 21.3658 60.9263 21.3872 61.7881C21.3978 62.1923 22.1267 62.7296 21.3341 62.9584C21.1107 63.0329 20.5946 62.3892 20.3552 61.9903C20.169 61.6977 20.254 61.2615 20.121 60.9158C19.9933 60.586 19.4986 60.1658 19.589 60.0115C19.8496 59.5167 20.3017 59.1177 20.7166 58.7134C20.7432 58.6868 21.0625 58.9528 21.1316 58.841C20.8336 58.107 20.7697 57.2771 20.4931 57.1921C19.3866 56.8517 20.1632 56.0962 19.9929 55.5856C19.7163 55.4473 19.461 55.3196 19.1843 55.1814C18.8811 55.2825 18.3757 55.3091 18.3119 55.49C17.5833 57.7721 16.9133 60.0702 16.2272 62.3736C16.1794 62.5492 16.089 62.7035 16.0198 62.8684C15.8868 62.7354 15.6527 62.6184 15.5995 62.4588C14.2321 58.3576 12.5827 54.3148 11.6089 50.1178C11.1459 48.1443 10.4489 46.1601 10.2519 44.1866C10.0336 41.8833 8.95354 39.814 8.75653 37.6277C8.56486 35.6169 7.82527 33.6115 8.52195 31.4464C9.10694 29.6377 7.42057 28.4091 5.55346 28.9784C4.79809 29.2125 4.52152 29.4998 4.86204 30.3083C5.35685 31.5265 4.6919 31.1276 4.05352 30.8616C3.76626 30.7446 3.23427 30.6383 3.12257 30.7819C1.0588 33.261 -0.0208578 35.873 0.426267 39.3413C0.873406 42.8096 1.01733 46.379 1.02827 49.9218C1.03893 50.2197 0.921925 50.5602 1.03366 50.7889C2.3744 53.4273 2.25229 56.4116 3.10366 59.1777C3.5453 60.6086 3.61989 62.1619 3.96577 63.6248C4.317 65.1036 5.19484 66.46 4.80133 68.0984C4.72157 68.4442 4.92375 69.1038 5.18976 69.2634C6.88145 70.1888 7.62635 72.3166 9.66909 72.7526C9.82337 72.7899 9.99362 72.7686 10.1532 72.7685C10.1106 72.4813 10.1106 72.1621 9.99351 71.9174C9.84455 71.6302 8.6902 71.625 9.75938 71.0557C10.3179 70.7631 10.9616 70.6726 11.552 70.4225C11.7701 70.3321 11.9829 70.0129 11.9935 69.7788C12.0307 69.3054 11.9455 68.8373 11.9083 68.3532C12.5679 68.6829 13.2808 68.9595 13.85 69.3903C14.0149 69.5127 13.8501 70.1351 13.781 70.5128C13.7437 70.7202 13.5363 70.8958 13.5257 71.0766C13.5151 71.5767 12.4671 71.9438 13.3289 72.5608C14.095 73.1034 14.5367 74.3747 15.8346 73.6937C16.7282 73.2361 17.9464 73.4328 18.4729 72.2465C18.5633 72.0391 19.0421 72.039 19.2868 71.8688C19.9038 71.4325 20.6912 72.7836 21.2018 71.709C21.7018 70.6557 22.5956 71.8472 23.2711 71.2673C23.7977 70.8258 24.6541 70.5225 25.3456 70.5756C28.3831 70.7509 30.9257 69.1229 33.7184 68.4046C34.6334 68.1704 35.6015 67.9363 36.4047 67.4734C37.1335 67.0531 37.7399 66.7445 38.6389 66.7285C39.4474 66.7071 40.2347 66.2496 41.0486 65.9782C41.9422 65.6803 42.8678 65.4249 43.7455 65.079C44.5913 64.7438 45.3519 64.1533 46.203 63.9404C46.8893 63.7648 47.352 63.3977 47.9106 63.0519C49.7829 61.9134 51.7032 60.8653 53.6128 59.7852C54.5384 59.2638 54.448 59.2585 54.7723 57.1998C54.8733 56.5455 55.6127 55.9975 55.9637 55.3485C56.6126 54.1569 56.5434 54.2154 55.3358 53.4655C54.0857 52.6942 52.9473 52.5241 51.5217 53.0881C49.1759 54.0298 46.4682 54.312 44.3884 55.6261C41.7554 57.302 38.8456 57.8821 36.0476 58.9036C34.4518 59.4889 32.6591 59.537 31.0207 59.9946C30.0792 60.2553 28.8929 60.2075 28.3664 61.3938C28.2973 61.5587 27.8557 61.6173 27.5738 61.6226C27.0844 61.644 26.595 61.5589 26.1109 61.5962C25.0151 61.6601 24.1215 62.8092 22.8979 62.2241C23.1691 61.0698 23.4404 59.9154 23.7116 58.761C23.8126 58.3727 23.9349 57.995 23.7699 57.3939C23.6476 57.2397 23.8072 57.2928 23.9455 57.3354L23.7646 57.6971C23.6317 57.6173 23.4987 57.5376 23.371 57.4205C23.3657 57.4046 23.4401 57.2556 23.7646 57.378C24.2806 57.2768 24.6476 56.9949 24.7434 56.6438C25.4772 53.8988 26.5889 51.8081 28.5196 49.0897C29.9079 47.1373 32.0941 45.8232 32.9291 43.4347C33.0461 43.0942 33.8706 43.0675 34.2164 42.7217C35.9451 40.9927 37.6471 39.2372 39.429 37.5613C40.1844 36.8485 41.3227 36.4334 42.0727 35.545C42.1366 35.4705 42.2908 35.5078 42.36 35.4492C42.961 34.8055 43.5621 34.1618 44.1631 33.5181C45.3229 34.2308 45.7962 32.8849 46.6473 32.6189C47.4133 32.3635 47.9824 31.5176 48.6473 30.959C48.9558 30.7143 49.3175 30.5228 49.6686 30.3525C51.6101 29.4746 53.7965 28.9052 55.4454 27.6284C56.8391 26.5431 58.7009 26.5961 59.77 25.4949C61.0041 24.25 62.6371 24.3616 63.9138 23.5636C68.5043 20.7385 73.8397 19.8816 78.7761 17.9342C79.3559 17.7055 80.4358 17.8064 79.8718 16.5936L80.4783 16.3914C80.6432 17.4181 81.2709 16.9606 81.8827 16.9339C84.8563 16.8113 86.3617 16.3271 88.9043 14.5927C89.2341 14.3586 89.6915 14.2948 90.1011 14.1937C90.1809 14.1671 90.4257 14.4224 90.4097 14.5341C90.3885 14.8426 89.8565 15.481 90.5906 15.2894C92.2716 14.8531 93.862 14.0923 95.6069 14.9113C96.5165 13.5441 97.6763 14.9484 98.655 14.6398C99.7296 14.2992 100.762 14.0438 101.916 14.2086C103.07 14.3734 104.246 14.2829 105.421 14.2988C105.618 14.3041 105.815 14.2562 106.012 14.2083C107.001 13.9316 108.076 13.0591 108.869 14.5325C111.486 13.3939 113.688 15.2662 116.114 15.5746C118.449 15.8776 120.731 16.6062 123.045 17.1113C124.386 17.4091 125.737 17.6324 127.227 17.8451C127.274 17.8291 127.179 17.8611 127.099 17.8877C127.094 17.7121 127.067 17.5259 127.12 17.3663C127.141 17.3238 127.381 17.3504 127.519 17.3397C127.461 17.4833 127.407 17.6429 127.221 17.8291C127.886 18.2812 128.69 18.6695 129.892 19.0843C129.823 18.9301 129.44 18.8982 129.424 18.7971C129.381 18.4566 129.456 18.0949 129.482 17.7492C129.812 17.8342 130.248 17.8129 130.424 18.0204C130.562 18.1693 130.355 18.6108 129.886 19.0684C130.216 20.2174 131.498 19.7013 132.493 20.0789C132.504 19.898 132.509 19.7012 132.52 19.5203C132.701 19.6373 132.903 19.765 133.084 19.882L132.935 19.9139ZM155.655 31.099C155.799 31.1575 155.959 31.2107 156.102 31.2692C156.038 31.3969 155.985 31.5033 155.921 31.631C155.788 31.5512 155.65 31.4555 155.528 31.3544C155.522 31.3384 155.597 31.1895 156.193 31.5405C156.469 31.6788 156.725 31.8064 157.001 31.9447C157.911 31.6946 157.762 32.5245 158.007 32.9394L158.815 33.3436C159.725 33.0935 159.576 33.9234 159.911 34.6096L159.821 34.3383C159.996 34.333 160.183 34.3064 160.342 34.3595C160.385 34.3808 160.358 34.6202 160.369 34.7585C160.225 34.7 160.066 34.6468 159.837 34.333C158.927 34.5831 159.076 33.7532 158.831 33.3383L158.023 32.9341C157.113 33.1842 157.262 32.3543 157.017 31.9394C156.741 31.8011 156.485 31.6735 155.677 31.1097L155.655 31.099ZM153.841 29.7002C153.985 29.7587 154.144 29.8118 154.288 29.8704C154.224 29.998 154.171 30.1044 154.107 30.2321C153.974 30.1523 153.836 30.0566 153.714 29.9555C153.708 29.9395 153.783 29.7906 154.464 30.397L154.373 30.1257C154.549 30.1203 154.735 30.0937 154.895 30.1469C154.937 30.1682 154.911 30.4076 154.921 30.5459C154.778 30.4874 154.618 30.4342 153.852 29.6789L153.841 29.7002ZM152.58 28.7374C152.304 28.5991 152.049 28.4715 151.24 27.9077C151.384 27.9662 151.543 28.0194 151.687 28.0779C151.623 28.2055 151.57 28.3119 151.506 28.4396C151.373 28.3598 151.235 28.2641 151.112 28.163C151.107 28.1471 151.181 27.9981 151.777 28.3492C152.054 28.4874 152.309 28.6151 152.671 29.0087L152.58 28.7374C152.756 28.7321 152.942 28.7055 153.102 28.7586C153.144 28.7799 153.118 29.0193 153.128 29.1576C152.985 29.0991 152.825 29.0459 152.596 28.7321L152.58 28.7374ZM149.442 26.5035C149.585 26.562 149.745 26.6151 149.889 26.6736C149.825 26.8013 149.772 26.9077 149.708 27.0354C149.575 26.9556 149.442 26.8758 149.314 26.7588C149.309 26.7429 149.383 26.5939 150.064 27.2003L149.974 26.929C150.149 26.9236 150.335 26.897 150.495 26.9502C150.538 26.9715 150.511 27.2109 150.522 27.3492C150.378 27.2907 150.218 27.2375 149.452 26.4822L149.442 26.5035ZM148.16 25.5301C147.883 25.3918 147.628 25.2642 147.351 25.1259C147.074 24.9876 146.819 24.8599 146.01 24.2961C146.154 24.3546 146.314 24.4078 146.457 24.4663C146.393 24.594 146.34 24.7004 146.276 24.8281C146.144 24.7483 146.005 24.6526 145.883 24.5515C145.877 24.5355 145.952 24.3866 146.548 24.7376C146.824 24.8759 147.08 25.0036 147.356 25.1418C147.633 25.2801 147.888 25.4078 148.25 25.8014L148.16 25.5301C148.335 25.5248 148.521 25.4981 148.681 25.5513C148.724 25.5726 148.697 25.812 148.708 25.9503C148.564 25.8918 148.404 25.8386 148.176 25.5248L148.16 25.5301ZM144.766 23.3281C144.489 23.1898 144.234 23.0622 143.957 22.9239C143.68 22.7856 143.425 22.6579 142.616 22.0941C142.76 22.1526 142.92 22.2058 143.063 22.2643C142.999 22.392 142.946 22.4984 142.882 22.6261C142.749 22.5463 142.611 22.4505 142.489 22.3495C142.483 22.3335 142.558 22.1846 143.154 22.5356L143.962 22.9398C144.239 23.0781 144.494 23.2058 144.856 23.5994L144.766 23.3281C144.941 23.3227 145.127 23.2961 145.287 23.3493C145.33 23.3706 145.303 23.61 145.314 23.7483C145.17 23.6898 145.01 23.6366 144.782 23.3228L144.766 23.3281ZM127.381 14.4778C127.524 14.5363 127.684 14.5895 127.827 14.648C127.764 14.7757 127.71 14.8821 127.647 15.0097C127.514 14.9299 127.381 14.8502 127.253 14.7332C127.248 14.7172 127.322 14.5682 128.003 15.1746L127.913 14.9033C128.088 14.898 128.274 14.8714 128.434 14.9246C128.476 14.9458 128.45 15.1852 128.461 15.3235C128.317 15.265 128.157 15.2118 127.391 14.4565L127.381 14.4778ZM105.826 12.639C105.884 12.4954 105.937 12.3358 105.996 12.1922L106.358 12.373C106.278 12.506 106.198 12.639 106.081 12.7667C106.065 12.772 105.916 12.6975 106.522 12.0166L106.251 12.1071C106.246 11.9315 106.219 11.7453 106.272 11.5857C106.294 11.5432 106.533 11.5697 106.671 11.5591C106.613 11.7027 106.56 11.8623 105.804 12.6284L105.826 12.639ZM126.827 5.79634C127.311 5.97185 127.859 6.17926 128.412 6.40264C128.476 6.43455 128.502 6.67394 128.502 6.67394C128.316 6.75375 128.098 6.89739 127.912 6.87081C127.524 6.82296 127.146 6.70063 126.779 6.55703C126.656 6.50917 126.577 6.323 126.529 6.17938C126.513 6.1315 126.64 6.03574 128.614 6.95586L128.524 6.68456C128.699 6.67923 128.885 6.65261 129.045 6.70579C129.088 6.72707 129.061 6.96646 129.072 7.10476C128.928 7.04626 128.768 6.99308 126.843 5.79102L126.827 5.79634ZM130.13 6.82274C130.417 6.72697 130.646 6.56205 130.8 6.59927C132.63 7.14172 134.508 7.56179 136.232 8.37022C137.078 8.77976 138.12 8.55625 138.865 9.46051C139.461 10.1839 140.504 10.7052 141.637 10.487C142.594 12.2955 144.892 11.4761 146.111 12.7367C147.6 14.2793 149.563 15.0079 151.436 15.8376C153.521 16.7737 154.66 19.2312 157.234 19.2948C157.325 19.3001 157.479 19.3906 157.484 19.4597C157.479 21.0396 159.426 20.8692 159.83 22.082C161.352 22.3373 161.544 23.9757 162.592 24.7256C162.73 24.8214 162.725 25.1246 162.788 25.3161C162.592 25.3108 162.384 25.3268 162.203 25.263C161.9 25.1513 161.581 25.0449 161.352 24.8375C157.059 20.896 152.117 17.9335 147.015 15.1837C146.366 14.8326 145.483 14.6838 145.079 14.1625C144.345 13.1837 143.164 13.0987 142.291 12.3966C141.291 11.5775 139.993 11.0882 138.583 11.3277C138.397 11.3543 138.131 11.3011 138.019 11.1788C136.227 9.09899 133.577 9.02475 131.221 8.28553C130.843 8.16321 130.449 7.93981 130.173 7.64194C130.029 7.47705 130.109 7.07807 162.82 25.8906C162.911 25.6299 162.964 25.4171 163.038 25.215C163.198 25.3214 163.437 25.4012 163.48 25.5288C163.565 25.7842 163.501 26.0714 163.501 26.3374C163.299 26.2097 163.108 26.0608 130.104 6.79614L130.13 6.82274ZM137.759 15.1844C138.408 14.578 138.828 14.1896 139.248 13.8012C139.429 14.0246 139.743 14.2214 139.77 14.4608C139.903 15.2321 139.174 15.1205 138.754 15.2961C138.562 15.3599 138.318 15.2642 137.748 15.2057L137.759 15.1844ZM103.565 10.9104C103.825 11.2136 104.065 11.3997 104.043 11.4955C103.873 11.9955 103.639 12.4637 103.427 12.9425C103.309 12.8042 103.059 12.6393 103.091 12.5222C103.203 12.0062 103.379 11.5221 103.586 10.921L103.565 10.9104ZM135.509 14.0196C135.546 13.493 135.557 13.3121 135.583 13.126C135.769 13.2589 136.014 13.3546 136.142 13.5249C136.222 13.6578 136.136 13.8813 136.115 14.0834C135.876 14.0569 135.626 14.0515 135.514 14.0356L135.509 14.0196ZM21.7856 54.9524C21.626 54.6332 21.477 54.3992 21.4025 54.1226C21.3759 54.0428 21.5887 53.8832 21.711 53.7715C21.86 54.0055 22.0462 54.2449 22.1632 54.4896C22.1845 54.5534 21.977 54.729 21.8015 54.9471L21.7856 54.9524ZM104.686 2.04259C104.793 2.09577 104.878 2.13832 104.963 2.18086C104.857 2.28726 104.761 2.42559 104.628 2.50539C104.58 2.52135 104.458 2.42029 104.373 2.37774C104.474 2.25538 104.58 2.14899 104.686 2.04259ZM92.0268 13.7467C92.0055 13.8956 91.9683 14.0499 91.947 14.1988C91.8619 14.1563 91.7077 14.119 91.6917 14.0712C91.6757 13.9169 91.7289 13.7573 91.7502 13.6084C91.8353 13.6509 91.9204 13.6935 92.0268 13.7467ZM114.06 9.73387C114.039 9.88282 114.002 10.0371 113.98 10.1861C113.895 10.1435 113.741 10.1063 113.725 10.0584C113.709 9.90413 113.762 9.74454 113.783 9.5956C113.869 9.63815 113.954 9.68069 114.06 9.73387ZM118.311 13.8668C118.332 13.7179 118.369 13.5636 118.39 13.4146C118.476 13.4572 118.63 13.4944 118.646 13.5423C118.662 13.6966 118.609 13.8561 118.587 14.0051C118.502 13.9625 118.417 13.92 118.311 13.8668ZM124.295 12.3502C124.274 12.4992 124.237 12.6535 124.215 12.8024C124.13 12.7599 123.976 12.7226 123.96 12.6748C123.944 12.5205 123.997 12.3609 124.018 12.212C124.104 12.2545 124.189 12.2971 124.295 12.3502ZM29.2695 47.031C29.1631 46.9778 29.078 46.9352 28.9929 46.8927C29.0993 46.7863 29.195 46.648 29.328 46.5682C29.3759 46.5522 29.4982 46.6533 29.5833 46.6958C29.4823 46.8182 29.3759 46.9246 29.2695 47.031ZM125.492 16.9516C125.386 16.8984 125.301 16.8558 125.216 16.8133C125.322 16.7069 125.418 16.5685 125.551 16.4887C125.599 16.4728 125.721 16.5738 125.806 16.6164C125.705 16.7387 125.599 16.8452 125.492 16.9516ZM132.142 17.2702C132.163 17.1212 132.2 16.967 132.222 16.818C132.307 16.8606 132.461 16.8978 132.477 16.9456C132.493 17.0999 132.44 17.2595 132.418 17.4085C132.333 17.3659 132.248 17.3234 132.142 17.2702ZM20.1745 63.5223C20.1745 63.5223 20.4138 63.6021 20.4298 63.65C20.4458 63.8043 20.3926 63.9638 20.3713 64.1128C20.2862 64.0702 20.1319 64.033 20.116 63.9851C20.1 63.8309 20.1532 63.6713 20.1745 63.5223ZM14.7008 65.4538C14.8498 65.4751 15.004 65.5123 15.153 65.5335C15.1104 65.6187 15.0732 65.7729 15.0253 65.7889C14.8711 65.8049 14.7115 65.7517 14.5625 65.7304C14.6051 65.6453 14.6476 65.5602 14.7008 65.4538ZM164.251 26.9384C164.4 26.9597 164.555 26.9969 164.704 27.0182C164.661 27.1033 164.624 27.2576 164.576 27.2735C164.422 27.2895 164.262 27.2363 164.113 27.2151C164.156 27.13 164.198 27.0448 164.251 26.9384Z" fill="#250D51"/>
</svg>
