<svg width="210" height="63" viewBox="0 0 210 63" fill="none" xmlns="http://www.w3.org/2000/svg">
<path d="M12.3855 34.0534C9.94467 29.6954 7.63586 25.2634 5.02265 21.0236C3.6477 18.801 3.41314 16.33 2.84444 13.9595C2.33915 11.857 3.77724 10.5528 5.98474 10.6609C7.25853 10.7282 7.93351 11.9332 8.43211 12.6299C10.0204 14.8848 11.7241 17.075 13.3124 19.3299C16.0253 23.167 17.9148 27.5085 20.7538 31.1448C23.0797 34.136 24.7413 37.4124 26.6525 40.5924C28.5452 43.7395 30.4894 46.901 31.9932 50.2442C33.0063 52.5176 33.8728 54.9166 33.9152 57.6253C33.9437 59.496 32.6382 59.2947 31.8736 59.788C31.4629 60.0614 30.1752 59.6983 29.8741 59.2381C28.725 57.4962 27.5251 55.9345 25.4424 55.236C25.0726 55.1179 24.7952 54.6227 24.5495 54.2615C22.643 51.3608 20.6704 48.497 18.8629 45.5408C17.0811 42.5919 15.4809 39.5412 13.7982 36.5368L12.4021 34.0442L12.3855 34.0534Z" fill="#F5F3FF"/>
<path d="M189.121 30.101C191.618 25.7752 194.247 21.525 196.554 17.1115C197.762 14.7935 199.765 13.3287 201.512 11.6279C203.061 10.1188 204.917 10.6879 205.952 12.6404C206.546 13.7695 205.855 14.9657 205.511 15.7504C204.385 18.2682 203.374 20.8522 202.248 23.3701C200.338 27.6633 197.572 31.5068 195.899 35.8058C194.517 39.334 192.551 42.4371 190.795 45.7055C189.058 48.9411 187.335 52.2284 185.23 55.23C183.794 57.263 182.176 59.2341 179.869 60.6554C178.276 61.6363 177.782 60.4114 176.967 60.0065C176.522 59.7933 176.176 58.501 176.417 58.0069C177.327 56.1288 178.055 54.2992 177.591 52.1521C177.503 51.7739 177.787 51.2823 177.972 50.8865C179.49 47.765 180.943 44.6056 182.56 41.5408C184.183 38.5018 185.987 35.5669 187.708 32.5847L189.137 30.1105L189.121 30.101Z" fill="#F5F3FF"/>
<path d="M116.389 32.258C116.389 37.253 116.237 42.248 116.446 47.2241C116.559 49.8352 115.556 52.1056 114.894 54.4518C114.308 56.533 112.416 56.9682 110.542 55.7951C109.464 55.114 109.464 53.7328 109.369 52.8814C109.085 50.1379 108.669 47.3944 108.385 44.6509C107.893 39.9776 108.366 35.2663 107.666 30.7065C107.099 26.9602 107.25 23.2896 107.137 19.5812C107.023 15.9106 106.872 12.2021 107.193 8.55048C107.42 6.07188 107.837 3.55546 109.123 1.17147C110.013 -0.474621 111.053 0.338963 111.961 0.2822C112.453 0.244358 113.399 1.19037 113.437 1.73906C113.589 3.82033 113.872 5.76915 115.348 7.39632C115.613 7.68013 115.613 8.24773 115.651 8.68291C115.897 12.1454 116.219 15.6078 116.351 19.0703C116.464 22.5139 116.37 25.9574 116.37 29.401L116.37 32.258L116.389 32.258Z" fill="#F5F3FF"/>
</svg>
