<svg width="242" height="320" viewBox="0 0 242 320" fill="none" xmlns="http://www.w3.org/2000/svg">
<path d="M95.9798 52.553H233.088C238.017 52.553 242 48.151 242 42.7029V-27.7295C242 -33.1776 238.017 -37.5796 233.088 -37.5796H90.4592C85.5301 -37.5796 81.5473 -33.1776 81.5473 -27.7295V36.6011C81.5473 45.4488 75.0803 52.553 67.1149 52.553H9.89767C4.41649 52.553 0 57.3473 0 63.2748V130.264C0 136.192 4.41649 140.986 9.89767 140.986H67.5486C75.3169 141.247 81.5473 148.264 81.5473 156.894V215.123C81.5473 223.971 75.0803 231.075 67.1149 231.075H9.89767C4.41649 231.075 0 235.869 0 241.797V308.786C0 314.713 4.41649 319.508 9.89767 319.508H71.6497C77.1309 319.508 81.5473 314.713 81.5473 308.786V246.983C81.5473 238.31 87.8172 231.336 95.546 231.075H233.088C238.017 231.075 242 226.673 242 221.225V150.836C242 145.388 238.017 140.986 233.088 140.986H95.546C95.546 140.986 95.8221 140.942 95.9798 140.942C87.9749 140.942 81.5473 133.794 81.5473 124.99V68.4613C81.5473 59.6137 88.0143 52.5094 95.9798 52.5094V52.553Z" fill="#2E1065"/>
<path d="M95.9798 52.553H233.088C238.017 52.553 242 48.151 242 42.7029V-27.7295C242 -33.1776 238.017 -37.5796 233.088 -37.5796H90.4592C85.5301 -37.5796 81.5473 -33.1776 81.5473 -27.7295V36.6011C81.5473 45.4488 75.0803 52.553 67.1149 52.553H9.89767C4.41649 52.553 0 57.3473 0 63.2748V130.264C0 136.192 4.41649 140.986 9.89767 140.986H67.5486C75.3169 141.247 81.5473 148.264 81.5473 156.894V215.123C81.5473 223.971 75.0803 231.075 67.1149 231.075H9.89767C4.41649 231.075 0 235.869 0 241.797V308.786C0 314.713 4.41649 319.508 9.89767 319.508H71.6497C77.1309 319.508 81.5473 314.713 81.5473 308.786V246.983C81.5473 238.31 87.8172 231.336 95.546 231.075H233.088C238.017 231.075 242 226.673 242 221.225V150.836C242 145.388 238.017 140.986 233.088 140.986H95.546C95.546 140.986 95.8221 140.942 95.9798 140.942C87.9749 140.942 81.5473 133.794 81.5473 124.99V68.4613C81.5473 59.6137 88.0143 52.5094 95.9798 52.5094V52.553Z" fill="black" fill-opacity="0.2"/>
</svg>
