<svg width="144" height="193" viewBox="0 0 144 193" fill="none" xmlns="http://www.w3.org/2000/svg">
<path d="M57.188 49.0577H138.702C141.632 49.0577 144 46.6899 144 43.7594V5.87444C144 2.94398 141.632 0.576172 138.702 0.576172H53.9059C50.9755 0.576172 48.6076 2.94398 48.6076 5.87444V40.4773C48.6076 45.2364 44.7629 49.0577 40.0273 49.0577H6.01046C2.75179 49.0577 0.126099 51.6365 0.126099 54.8249V90.8578C0.126099 94.0462 2.75179 96.625 6.01046 96.625H40.2851C44.9035 96.7656 48.6076 100.54 48.6076 105.182V136.503C48.6076 141.262 44.7629 145.083 40.0273 145.083H6.01046C2.75179 145.083 0.126099 147.662 0.126099 150.85V186.883C0.126099 190.071 2.75179 192.65 6.01046 192.65H42.7233C45.982 192.65 48.6076 190.071 48.6076 186.883V153.64C48.6076 148.975 52.3352 145.224 56.9302 145.083H138.702C141.632 145.083 144 142.715 144 139.785V101.923C144 98.9928 141.632 96.625 138.702 96.625H56.9302C56.9302 96.625 57.0943 96.6015 57.188 96.6015C52.429 96.6015 48.6076 92.7568 48.6076 88.0211V57.6147C48.6076 52.8556 52.4524 49.0343 57.188 49.0343V49.0577Z" fill="#2E1065"/>
<path d="M57.188 49.0577H138.702C141.632 49.0577 144 46.6899 144 43.7594V5.87444C144 2.94398 141.632 0.576172 138.702 0.576172H53.9059C50.9755 0.576172 48.6076 2.94398 48.6076 5.87444V40.4773C48.6076 45.2364 44.7629 49.0577 40.0273 49.0577H6.01046C2.75179 49.0577 0.126099 51.6365 0.126099 54.8249V90.8578C0.126099 94.0462 2.75179 96.625 6.01046 96.625H40.2851C44.9035 96.7656 48.6076 100.54 48.6076 105.182V136.503C48.6076 141.262 44.7629 145.083 40.0273 145.083H6.01046C2.75179 145.083 0.126099 147.662 0.126099 150.85V186.883C0.126099 190.071 2.75179 192.65 6.01046 192.65H42.7233C45.982 192.65 48.6076 190.071 48.6076 186.883V153.64C48.6076 148.975 52.3352 145.224 56.9302 145.083H138.702C141.632 145.083 144 142.715 144 139.785V101.923C144 98.9928 141.632 96.625 138.702 96.625H56.9302C56.9302 96.625 57.0943 96.6015 57.188 96.6015C52.429 96.6015 48.6076 92.7568 48.6076 88.0211V57.6147C48.6076 52.8556 52.4524 49.0343 57.188 49.0343V49.0577Z" fill="black" fill-opacity="0.2"/>
</svg>
