<svg width="126" height="38" viewBox="0 0 126 38" fill="none" xmlns="http://www.w3.org/2000/svg">
<path d="M118.536 16.863C120.003 19.4818 121.39 22.145 122.961 24.6928C123.787 26.0284 123.928 27.5132 124.269 28.9377C124.573 30.2011 123.709 30.9848 122.382 30.9198C121.617 30.8794 121.211 30.1553 120.912 29.7367C119.957 28.3817 118.934 27.0655 117.979 25.7105C116.349 23.4048 115.214 20.7959 113.508 18.6108C112.11 16.8134 111.111 14.8446 109.963 12.9336C108.826 11.0426 107.657 9.14275 106.754 7.13381C106.145 5.76766 105.624 4.32611 105.599 2.69843C105.582 1.57429 106.366 1.69527 106.826 1.39883C107.072 1.23453 107.846 1.45271 108.027 1.72927C108.718 2.77599 109.439 3.7144 110.69 4.13413C110.912 4.20515 111.079 4.50273 111.227 4.71977C112.372 6.46284 113.558 8.1837 114.644 9.96011C115.715 11.7322 116.676 13.5653 117.687 15.3707L118.526 16.8686L118.536 16.863Z" fill="#E2DCFF"/>
<path d="M12.1502 19.5402C10.6494 22.1396 9.06981 24.6936 7.68302 27.3457C6.95759 28.7386 5.75356 29.6189 4.70402 30.6409C3.77346 31.5477 2.65808 31.2057 2.03575 30.0325C1.67916 29.354 2.09413 28.6352 2.30071 28.1636C2.97731 26.6507 3.58499 25.0979 4.26159 23.5849C5.40973 21.005 7.07141 18.6954 8.07713 16.1121C8.90733 13.992 10.0889 12.1273 11.1441 10.1633C12.1879 8.21898 13.2233 6.24361 14.4879 4.43991C15.3507 3.21825 16.3234 2.03377 17.7093 1.1797C18.6666 0.59025 18.9637 1.32631 19.4534 1.56964C19.7208 1.69775 19.9289 2.47429 19.7837 2.77121C19.2371 3.89978 18.7993 4.99922 19.0784 6.28942C19.131 6.51671 18.9604 6.81209 18.8494 7.04993C17.9371 8.92571 17.0641 10.8242 16.0927 12.6659C15.1172 14.4921 14.0333 16.2557 12.9987 18.0477L12.1403 19.5345L12.1502 19.5402Z" fill="#E2DCFF"/>
<path d="M56.0394 17.942C56.0394 14.9404 56.1304 11.9389 56.0053 8.94865C55.9371 7.37965 56.5397 6.0153 56.9376 4.60548C57.2901 3.35482 58.427 3.09331 59.5526 3.79823C60.2007 4.20753 60.2007 5.03752 60.2575 5.54915C60.4281 7.19774 60.6782 8.84632 60.8488 10.4949C61.1444 13.3032 60.8601 16.1342 61.2808 18.8743C61.6219 21.1255 61.5309 23.3312 61.5991 25.5596C61.6674 27.7653 61.7583 29.9938 61.565 32.1881C61.4286 33.6775 61.1785 35.1897 60.4053 36.6222C59.871 37.6114 59.2456 37.1225 58.6999 37.1566C58.4043 37.1793 57.8358 36.6109 57.8131 36.2812C57.7221 35.0305 57.5516 33.8594 56.6648 32.8816C56.5056 32.7111 56.5056 32.37 56.4828 32.1085C56.335 30.0279 56.1418 27.9472 56.0622 25.8666C55.9939 23.7973 56.0508 21.7281 56.0508 19.6588L56.0508 17.942L56.0394 17.942Z" fill="#E2DCFF"/>
</svg>
