<svg width="87" height="358" viewBox="0 0 87 358" fill="none" xmlns="http://www.w3.org/2000/svg">
<path d="M-59.0202 90.6141H78.0882C83.0173 90.6141 87 86.212 87 80.764V10.3315C87 4.88347 83.0173 0.481445 78.0882 0.481445H-64.5408C-69.4699 0.481445 -73.4527 4.88347 -73.4527 10.3315V74.6622C-73.4527 83.5098 -79.9197 90.6141 -87.8851 90.6141H-145.102C-150.584 90.6141 -155 95.4084 -155 101.336V168.325C-155 174.253 -150.584 179.047 -145.102 179.047H-87.4514C-79.6831 179.308 -73.4527 186.325 -73.4527 194.955V253.184C-73.4527 262.032 -79.9197 269.136 -87.8851 269.136H-145.102C-150.584 269.136 -155 273.93 -155 279.858V346.847C-155 352.774 -150.584 357.569 -145.102 357.569H-83.3503C-77.8691 357.569 -73.4527 352.774 -73.4527 346.847V285.044C-73.4527 276.371 -67.1828 269.397 -59.454 269.136H78.0882C83.0173 269.136 87 264.734 87 259.286V188.897C87 183.449 83.0173 179.047 78.0882 179.047H-59.454C-59.454 179.047 -59.1779 179.003 -59.0202 179.003C-67.0251 179.003 -73.4527 171.855 -73.4527 163.051V106.522C-73.4527 97.6747 -66.9857 90.5705 -59.0202 90.5705V90.6141Z" fill="#2E1065"/>
<path d="M-59.0202 90.6141H78.0882C83.0173 90.6141 87 86.212 87 80.764V10.3315C87 4.88347 83.0173 0.481445 78.0882 0.481445H-64.5408C-69.4699 0.481445 -73.4527 4.88347 -73.4527 10.3315V74.6622C-73.4527 83.5098 -79.9197 90.6141 -87.8851 90.6141H-145.102C-150.584 90.6141 -155 95.4084 -155 101.336V168.325C-155 174.253 -150.584 179.047 -145.102 179.047H-87.4514C-79.6831 179.308 -73.4527 186.325 -73.4527 194.955V253.184C-73.4527 262.032 -79.9197 269.136 -87.8851 269.136H-145.102C-150.584 269.136 -155 273.93 -155 279.858V346.847C-155 352.774 -150.584 357.569 -145.102 357.569H-83.3503C-77.8691 357.569 -73.4527 352.774 -73.4527 346.847V285.044C-73.4527 276.371 -67.1828 269.397 -59.454 269.136H78.0882C83.0173 269.136 87 264.734 87 259.286V188.897C87 183.449 83.0173 179.047 78.0882 179.047H-59.454C-59.454 179.047 -59.1779 179.003 -59.0202 179.003C-67.0251 179.003 -73.4527 171.855 -73.4527 163.051V106.522C-73.4527 97.6747 -66.9857 90.5705 -59.0202 90.5705V90.6141Z" fill="black" fill-opacity="0.2"/>
</svg>
