<svg width="310" height="120" viewBox="0 0 310 120" fill="none" xmlns="http://www.w3.org/2000/svg">
<path d="M59.2495 55.1586C57.7149 55.1586 56.1803 55.1586 54.1239 54.9212C54.4308 55.5997 55.1367 56.346 55.8119 57.1262C56.5793 58.0083 57.7763 59.026 56.3951 60.1115C55.1674 61.0614 54.4001 59.467 53.7249 58.6189C53.1724 57.9065 52.8348 56.9566 52.5585 56.0407C52.4972 55.8371 53.0497 55.3961 54.1239 54.9551C55.4744 53.8695 56.0268 52.5804 54.2466 51.5288C53.8783 51.2913 53.7248 50.5789 53.4793 50.104C53.0803 49.663 52.712 49.2559 52.313 48.8149C51.9139 48.3739 51.5457 47.9668 51.1467 47.5258C50.7477 47.0848 50.3794 46.6777 49.9804 46.2366C48.1081 45.1172 46.3279 43.9298 46.5121 41.1142C46.1131 40.6732 45.7448 40.2661 45.3458 39.825C44.9468 39.384 44.5784 38.977 44.1794 38.5359C43.7804 38.0949 43.4121 37.6879 43.0131 37.2468C41.1409 36.1274 39.3608 34.94 39.5449 32.1243C39.1459 31.6833 38.7776 31.2762 38.3786 30.8352C36.6598 30.7335 37.3964 29.2408 37.2123 28.2909C36.8133 27.8499 36.4449 27.4428 36.0459 27.0018C34.2351 26.493 33.5598 25.136 33.744 23.1684C33.345 22.7274 32.9767 22.3204 32.5777 21.8793C30.7668 21.3705 30.0916 20.0135 30.2757 18.0459C29.8767 17.6049 29.5084 17.1978 29.1094 16.7568C27.3906 16.6551 28.1273 15.1624 27.9431 14.2125L26.7768 12.9234C26.3778 12.4824 26.0095 12.0753 25.6105 11.6343C23.8917 11.5325 24.6283 10.0399 24.4441 9.09002C24.0451 8.64901 23.6768 8.24194 23.2778 7.80093L22.1115 6.5118C20.3927 6.41003 21.1293 4.91738 20.9452 3.96751C20.6075 3.83182 20.3007 3.69613 19.9631 3.52651C18.6126 2.81411 18.3977 0.303741 16.3413 0.744759C16.7096 2.2374 17.1087 3.73006 17.477 5.25664C17.876 5.69765 18.2443 6.10471 18.9809 7.12243C19.1036 7.4956 18.8581 7.29205 18.6432 7.12243C18.8274 6.91889 18.9809 6.74928 19.165 6.54573C19.3492 6.7832 19.5334 7.02068 19.6868 7.326C19.6868 7.35992 19.472 7.59737 18.9809 7.15636C18.2443 6.13865 17.876 5.73155 17.477 5.29054C16.4948 5.35839 15.5433 7.1903 14.4691 5.39233C13.7938 6.54575 13.2106 7.80092 12.4126 8.85255C12.1978 9.12395 11.2157 9.15788 10.9394 8.85255C9.58897 7.42776 8.17711 5.96904 7.10287 4.30677C6.61179 3.52652 7.01076 2.06777 5.6296 3.59435C3.48112 6.00294 3.29696 6.00294 4.77021 9.05609C5.56821 10.7184 6.05933 12.3806 6.24348 15.773C6.24348 16.3158 5.99789 15.8748 5.90582 15.4338C5.81374 15.0606 5.90582 14.6536 5.90582 14.2465C6.30482 14.5518 6.88803 14.7553 7.0108 15.1624C7.13357 15.6034 6.85727 16.2141 6.27411 15.807C5.32264 13.3984 4.67816 12.5503 4.12569 11.6343C3.51184 10.6505 3.08215 9.53104 2.40691 8.61509C2.13068 8.20801 1.42469 7.86876 0.994989 7.97053C0.657371 8.03838 0.227679 8.75079 0.135601 9.22572C-0.570328 14.2804 1.6396 18.6905 3.08215 23.2024C4.03362 26.1877 4.95434 29.173 5.99789 32.0904C7.31767 35.7542 9.282 39.1466 11.1849 42.4711C18.1215 54.5141 27.053 64.793 36.6291 74.156C41.2023 78.6339 45.6527 83.7904 51.7299 86.0633C55.7813 91.2876 61.797 93.2551 66.7078 97.1564C70.6364 100.277 75.7621 101.634 80.366 103.738C85.1847 105.943 90.2183 107.3 95.1598 109.03C96.7865 109.606 98.2904 109.946 99.9171 110.183C101.329 110.387 102.71 110.929 104.061 111.438C106.731 112.456 109.708 112.049 112.194 112.965C115.049 114.017 117.842 113.27 120.45 114.084C127.019 116.154 133.648 114.865 140.216 115.272C141.475 115.34 142.733 114.932 143.961 116.222C144.575 116.866 146.508 117.036 147.184 116.459C149.455 114.491 151.972 115.17 154.274 115.373C160.934 115.984 167.533 114.729 174.009 113.711C179.104 112.931 184.567 112.965 189.355 110.149C193.683 110.624 197.581 108.453 201.663 107.503C205.5 106.621 209.213 105.061 212.958 103.738C215.505 102.856 218.083 102.007 220.57 100.922C222.872 99.9042 224.989 98.0384 227.353 97.4617C230.79 96.6475 233.399 94.0693 236.745 93.1195C238.924 92.5088 240.735 90.5073 242.76 89.2182C245.4 87.522 248.009 85.758 250.74 84.2653C256.818 80.9747 261.974 76.1914 267.529 71.9849C269.401 70.5601 270.169 67.9479 272.348 66.591C274.435 65.2679 275.632 62.7915 276.491 60.2472C276.092 59.8062 275.724 59.3991 275.325 58.9581C274.773 58.9581 274.097 59.1617 273.668 58.9242C272.501 58.2118 273.76 57.8386 273.913 57.2619C274.067 56.753 274.189 55.905 273.975 55.6336C271.857 53.1911 274.374 53.3268 275.233 52.0037C275.632 49.5612 276.031 47.865 276.491 46.2027C276.706 45.4225 275.755 43.9298 277.259 43.9977C277.688 43.9977 278.21 45.5582 278.394 46.4741C278.548 47.1526 278.149 47.9328 278.18 48.6792C278.21 49.3916 278.824 50.5111 278.578 50.7485C277.842 51.5288 276.829 52.0037 275.878 52.5126C275.816 52.5465 275.417 51.8341 275.233 52.0037C275.325 53.5981 274.957 55.2265 275.387 55.5657C277.105 56.9227 275.325 57.8725 275.325 58.9581C275.724 59.3991 276.092 59.8062 276.491 60.2472C277.075 60.2472 277.965 60.5186 278.18 60.2133C280.758 56.312 283.244 52.343 285.761 48.3739C285.945 48.0686 286.19 47.8311 286.405 47.5597C286.559 47.8989 286.896 48.2721 286.896 48.6113C286.896 57.3298 287.418 66.116 286.681 74.7666C286.344 78.8375 286.405 83.078 285.607 86.9792C284.656 91.525 285.331 96.1726 284.41 100.481C283.581 104.45 283.704 108.758 281.249 112.456C279.192 115.543 281.402 118.969 284.963 119.071C286.405 119.105 287.05 118.732 286.927 116.968C286.773 114.322 287.694 115.509 288.646 116.425C289.075 116.832 289.935 117.375 290.211 117.171C295.214 113.745 298.59 109.437 299.818 102.516C301.046 95.5959 302.856 88.6754 304.882 81.8906C305.035 81.3139 305.435 80.7372 305.373 80.2284C304.575 74.3256 306.509 68.6943 306.632 62.8593C306.693 59.8401 307.46 56.8209 307.706 53.8017C307.951 50.7485 307.215 47.5936 308.841 44.7101C309.179 44.0995 309.21 42.7086 308.841 42.2337C306.447 39.3841 306.386 34.8382 303.102 32.701C302.856 32.5314 302.549 32.4636 302.273 32.3618C302.181 32.9385 301.997 33.5491 302.058 34.0919C302.15 34.7365 304.145 35.4828 301.966 35.8899C300.831 36.0934 299.664 35.8559 298.498 35.9577C298.068 35.9916 297.516 36.4666 297.362 36.9076C297.025 37.7896 296.902 38.7395 296.687 39.6894C295.736 38.6377 294.661 37.6539 293.925 36.4666C293.71 36.1273 294.354 35.0418 294.692 34.3633C294.876 33.9901 295.337 33.7866 295.459 33.4474C295.766 32.4975 297.792 32.4636 296.656 30.7334C295.644 29.2069 295.613 26.493 292.973 26.9679C291.162 27.2732 289.168 26.1198 287.572 28.0535C287.295 28.3927 286.467 28.0874 285.945 28.257C284.625 28.698 284.042 25.6109 282.538 27.3411C281.065 29.0373 280.205 26.1877 278.701 26.8661C277.535 27.375 275.878 27.4089 274.711 26.8661C269.555 24.5932 264.214 26.0859 258.966 25.6788C257.247 25.5431 255.436 25.3735 253.779 25.7467C252.275 26.0859 251.047 26.2894 249.482 25.7467C248.07 25.2717 246.443 25.6449 244.878 25.6449C243.159 25.6449 241.41 25.5431 239.691 25.6449C238.034 25.7466 236.376 26.3912 234.78 26.2555C233.491 26.1537 232.478 26.5608 231.312 26.8661C227.414 27.8499 223.485 28.6302 219.557 29.4783C217.654 29.8854 217.807 29.9532 216.058 33.6848C215.505 34.8722 213.909 35.4489 212.927 36.4666C211.116 38.3324 211.27 38.2645 212.927 40.4696C214.646 42.7425 216.518 43.7941 219.311 43.6245C223.915 43.3192 228.764 44.5066 233.123 43.3192C238.647 41.7926 244.019 42.5389 249.451 42.3693C252.551 42.2676 255.682 43.3192 258.782 43.4888C260.562 43.5906 262.588 44.4387 264.184 42.505C264.399 42.2336 265.197 42.4033 265.688 42.5729C266.547 42.8443 267.345 43.3192 268.204 43.5567C270.138 44.1334 272.348 42.5051 274.128 44.4048C272.993 46.4402 271.857 48.4756 270.721 50.5111C270.322 51.1895 269.893 51.8341 269.831 53.0893C269.954 53.4624 269.708 53.2589 269.494 53.0893L270.015 52.5126C270.199 52.7501 270.384 52.9875 270.537 53.2928C270.537 53.3267 270.322 53.5642 269.831 53.1232C268.88 52.9875 268.082 53.2928 267.713 53.9035C264.859 58.6867 261.728 61.9773 256.817 65.9464C253.288 68.796 248.745 69.9155 245.922 73.9525C245.523 74.5292 244.08 74.0542 243.282 74.4952C239.292 76.7003 235.333 78.9732 231.281 81.0425C229.563 81.9246 227.353 81.9924 225.542 83.2137C225.388 83.3154 225.143 83.1458 224.989 83.2137C223.577 84.0618 222.166 84.9099 220.754 85.758C219.158 83.6547 217.562 85.9276 215.935 85.8937C214.462 85.8937 212.989 87.1488 211.515 87.7934C210.84 88.0648 210.103 88.2005 209.398 88.3022C205.53 88.7433 201.417 88.438 197.826 89.8288C194.788 91.0162 191.596 89.7271 189.11 91.1519C186.255 92.7463 183.493 91.4911 180.823 92.2035C171.247 94.6799 161.517 92.9159 151.849 93.4926C150.713 93.5604 148.903 92.6784 149.179 95.3584H148.012C148.319 93.2891 146.969 93.764 145.895 93.4248C140.677 91.7625 137.792 91.7286 132.39 93.4248C131.684 93.6622 130.855 93.4926 130.088 93.4248C129.935 93.4248 129.658 92.7802 129.75 92.5767C129.965 92 131.254 91.1179 129.873 91.0162C126.712 90.7787 123.52 91.2197 120.972 88.5397C118.609 90.5751 117.412 87.1488 115.54 87.1149C113.483 87.081 111.55 86.9114 109.647 85.8597C107.744 84.8081 105.657 84.2314 103.631 83.4511C103.293 83.3154 102.925 83.2815 102.557 83.2476C100.685 83.1458 98.3211 84.1296 97.7993 80.8051C92.6123 81.3139 89.8807 76.3271 85.86 74.1899C81.9927 72.1206 78.4631 69.271 74.7493 66.8285C72.6008 65.4037 70.3909 64.1145 67.9355 62.7576C67.8435 62.7576 68.0276 62.7576 68.181 62.7576C68.089 63.0968 68.0276 63.47 67.8435 63.7414C67.7821 63.8092 67.383 63.6057 67.1375 63.5378C67.3217 63.3004 67.5058 63.029 67.9355 62.7915C67.0455 61.5024 65.8791 60.2472 64.0375 58.6867C64.0682 59.026 64.7127 59.3313 64.682 59.5348C64.5593 60.2133 64.2217 60.8578 63.9762 61.5024C63.4544 61.1292 62.6871 60.8918 62.5029 60.3829C62.3494 60.0098 62.9633 59.2973 64.0375 58.7206C64.1296 56.312 61.6128 56.4817 60.1089 55.1247C59.9861 55.464 59.8634 55.8371 59.7406 56.1763C59.495 55.8371 59.2188 55.464 58.9733 55.1247L59.2495 55.1586ZM26.3778 19.2672C26.1629 19.0636 25.9174 18.8601 25.7026 18.6566C25.8867 18.453 26.0401 18.2834 26.2243 18.0799C26.4084 18.3173 26.5926 18.5887 26.7461 18.8601C26.7461 18.894 26.5313 19.1315 25.7026 18.0799C25.3036 17.6388 24.9352 17.2318 24.5362 16.7908C22.8174 16.689 23.554 15.1963 23.3699 14.2465L22.2036 12.9573C20.4848 12.8556 21.2215 11.3629 21.0373 9.83635V10.413C20.7304 10.3113 20.3927 10.2434 20.1472 10.0399C20.0858 9.97204 20.27 9.53104 20.3314 9.25965C20.5462 9.4632 20.7917 9.66673 21.0066 10.413C22.7254 10.5148 21.9888 12.0075 22.1729 12.9573L23.3393 14.2465C25.058 14.3482 24.3213 15.8409 24.5055 16.7908C24.9045 17.2318 25.2728 17.6388 26.3471 19.2333L26.3778 19.2672ZM28.7105 23.1006C28.4956 22.897 28.2501 22.6935 28.0352 22.4899C28.2194 22.2864 28.3728 22.1168 28.5569 21.9132C28.7411 22.1507 28.9253 22.4221 29.0788 22.6935C29.0788 22.7274 28.8639 22.9649 28.0352 21.3705V21.9472C27.7283 21.8454 27.3906 21.7776 27.1451 21.574C27.0837 21.5062 27.2679 21.0651 27.3293 20.7938C27.5441 20.9973 27.7897 21.2008 28.6797 23.1345L28.7105 23.1006ZM30.3372 25.7467C30.7362 26.1877 31.1044 26.5947 32.1786 28.1892C31.9638 27.9856 31.7182 27.7821 31.5034 27.5785C31.6876 27.375 31.8411 27.2054 32.0252 27.0018C32.2094 27.2393 32.3936 27.5107 32.547 27.7821C32.547 27.816 32.3321 28.0535 31.5034 27.0018C31.1044 26.5608 30.7362 26.1537 30.3372 25.1699V25.7467C30.0302 25.6449 29.6926 25.577 29.4471 25.3735C29.3857 25.3056 29.5698 24.8646 29.6312 24.5932C29.846 24.7968 30.0916 25.0003 30.3064 25.7467H30.3372ZM34.4806 32.0226C34.2657 31.819 34.0202 31.6155 33.8053 31.4119C33.9895 31.2084 34.143 31.0388 34.3272 30.8352C34.5113 31.0727 34.6955 31.3102 34.849 31.6155C34.849 31.6494 34.634 31.8869 33.8053 30.2924V30.8691C33.4984 30.7674 33.1609 30.6995 32.9153 30.496C32.8539 30.4281 33.0381 29.9871 33.0995 29.7157C33.3143 29.9193 33.5599 30.1228 34.45 32.0565L34.4806 32.0226ZM36.138 34.7026C36.537 35.1436 36.9053 35.5506 37.3043 35.9917C37.7033 36.4327 38.0717 36.8398 39.1459 38.4342C38.9311 38.2306 38.6855 38.0271 38.4707 37.8235C38.6548 37.62 38.8082 37.4504 38.9924 37.2468C39.1765 37.4843 39.3607 37.7557 39.5142 38.0271C39.5142 38.061 39.2994 38.2985 38.4707 37.2468C38.0717 36.8058 37.7033 36.3987 37.3043 35.9577C36.9053 35.5167 36.537 35.1096 36.138 34.1258V34.7026C35.8311 34.6008 35.4934 34.5329 35.2479 34.3294C35.1865 34.2615 35.3707 33.8205 35.432 33.5491C35.6469 33.7527 35.8924 33.9562 36.1073 34.7026H36.138ZM40.7419 41.0802C41.1409 41.5212 41.5092 41.9283 41.9082 42.3693C42.3072 42.8103 42.6756 43.2174 43.7498 44.8119C43.5349 44.6083 43.2894 44.4048 43.0746 44.2012C43.2587 43.9977 43.4121 43.8281 43.5963 43.6245C43.7804 43.862 43.9646 44.1334 44.1181 44.4048C44.1181 44.4387 43.9033 44.6762 43.0746 43.6245L41.9082 42.3354C41.5092 41.8944 41.1409 41.4873 40.7419 40.5035V41.0802C40.435 40.9785 40.0973 40.9106 39.8518 40.7071C39.7904 40.6392 39.9745 40.1982 40.0359 39.9268C40.2508 40.1304 40.4963 40.3339 40.7112 41.0802H40.7419ZM65.7257 69.1013C65.5108 68.8978 65.2653 68.6943 65.0504 68.4907C65.2346 68.2872 65.388 68.1176 65.5722 67.914C65.7563 68.1515 65.9405 68.3889 66.094 68.6943C66.094 68.7282 65.8791 68.9656 65.0504 67.3712V67.9479C64.7435 67.8462 64.4059 67.7783 64.1603 67.5748C64.0989 67.5069 64.2831 67.0659 64.3445 66.7945C64.5593 66.9981 64.8049 67.2016 65.695 69.1353L65.7257 69.1013ZM101.974 86.3686C101.789 86.6061 101.605 86.8774 101.421 87.1149L100.899 86.5382C101.114 86.3347 101.329 86.1311 101.605 85.9615C101.636 85.9615 101.851 86.199 100.408 87.1149H100.93C100.838 87.4542 100.777 87.8273 100.592 88.0987C100.531 88.1666 100.132 87.963 99.8864 87.8952C100.071 87.6577 100.255 87.3863 102.004 86.4025L101.974 86.3686ZM61.6742 86.0633C60.9376 85.4187 60.1089 84.6724 59.2802 83.8922C59.1881 83.7904 59.2802 83.3154 59.2802 83.3154C59.6485 83.2815 60.1089 83.1458 60.4158 83.3154C61.0604 83.6547 61.6435 84.1296 62.196 84.6385C62.3801 84.8081 62.4108 85.2152 62.4108 85.5205C62.4108 85.6223 62.1346 85.724 59.2495 82.7048V83.2815C58.9426 83.1798 58.6049 83.1119 58.3594 82.9084C58.298 82.8405 58.4821 82.3995 58.5435 82.1281C58.7584 82.3316 59.004 82.5352 61.6435 86.0633H61.6742ZM56.5485 81.9924C55.9961 81.9924 55.505 82.162 55.2595 81.9924C52.4051 79.7874 49.3972 77.7859 46.8804 75.1398C45.6527 73.8168 43.7191 73.5793 42.9518 71.3742C42.3379 69.6102 40.834 67.9479 38.7469 67.6426C38.133 63.5718 33.6826 63.6735 32.3014 60.4847C30.6133 56.5834 27.6362 53.9374 24.8739 51.1556C21.8046 48.0346 21.2521 42.6068 16.8324 40.8428C16.6789 40.7749 16.4641 40.5035 16.4948 40.3678C17.4156 37.3486 13.9473 36.4327 13.9473 33.8545C11.4612 32.3957 12.075 29.139 10.6938 27.0358C10.5097 26.7644 10.6938 26.1877 10.6938 25.7806C11.0315 25.9163 11.3998 26.018 11.676 26.2555C12.1364 26.6626 12.6275 27.0697 12.9037 27.6125C18.0601 37.8914 24.9046 46.7116 32.148 55.2265C33.0688 56.312 34.5113 57.1601 34.9103 58.4153C35.6163 60.7561 37.6112 61.672 38.7162 63.5717C39.9746 65.7768 41.9389 67.5408 44.5171 67.9819C44.8547 68.0497 45.2844 68.3211 45.4071 68.6264C47.3101 73.7489 51.8526 75.5808 55.505 78.4982C56.0882 78.9732 56.6406 79.6517 56.9476 80.398C57.101 80.8051 56.7327 81.5175 10.9701 24.6611C10.6631 25.1021 10.4483 25.4753 10.2028 25.8145C9.98791 25.5092 9.61968 25.2039 9.61968 24.9325C9.61968 24.3897 9.89587 23.8808 10.0493 23.372C10.3256 23.7451 10.5711 24.1522 56.5793 82.0603L56.5485 81.9924ZM48.1695 61.1292C46.6963 61.8756 45.7448 62.3505 44.7933 62.8254C44.6092 62.2827 44.1794 61.706 44.2715 61.231C44.4864 59.6705 45.6834 60.349 46.5121 60.2812C46.8804 60.2812 47.2487 60.6204 48.2002 61.0953L48.1695 61.1292ZM104.889 91.1179C104.613 90.3716 104.306 89.8628 104.398 89.6931C104.981 88.845 105.657 88.0987 106.301 87.3184C106.424 87.6577 106.762 88.1326 106.639 88.3362C106.148 89.2521 105.565 90.0663 104.859 91.084L104.889 91.1179ZM51.3922 64.793C51.0239 65.7768 50.9012 66.1161 50.7477 66.4553C50.5022 66.0821 50.1338 65.7429 50.011 65.3358C49.9496 65.0305 50.2259 64.6573 50.3794 64.2842C50.7784 64.4877 51.2081 64.6573 51.3922 64.7591V64.793ZM271.857 59.026C271.949 59.7384 272.072 60.2811 272.041 60.8579C272.041 61.0275 271.581 61.1971 271.304 61.3328C271.182 60.79 270.997 60.2133 270.936 59.6705C270.936 59.5348 271.396 59.3313 271.826 59.026H271.857ZM97.8301 107.367C97.6766 107.198 97.5538 107.062 97.431 106.926C97.6766 106.791 97.9221 106.587 98.1984 106.519C98.2904 106.519 98.4439 106.791 98.5667 106.926C98.3211 107.096 98.0756 107.232 97.8301 107.367ZM126.497 93.0516C126.62 92.7802 126.773 92.5088 126.896 92.2374C127.019 92.3731 127.264 92.5427 127.264 92.6445C127.203 92.9498 127.019 93.2212 126.896 93.4926C126.773 93.3569 126.65 93.2212 126.497 93.0516ZM86.0441 86.6739C86.1669 86.4025 86.3204 86.1311 86.4432 85.8597C86.5659 85.9954 86.8114 86.165 86.8114 86.2668C86.7501 86.5721 86.5659 86.8435 86.4432 87.1149C86.3204 86.9792 86.1976 86.8435 86.0441 86.6739ZM81.072 76.0557C80.9492 76.3271 80.7957 76.5985 80.6729 76.8699C80.5502 76.7342 80.3046 76.5646 80.3046 76.4628C80.366 76.1575 80.5502 75.8861 80.6729 75.6147C80.7957 75.7504 80.9185 75.8861 81.072 76.0557ZM69.8385 75.1398C69.9612 74.8684 70.1147 74.597 70.2375 74.3256C70.3603 74.4613 70.6058 74.6309 70.6058 74.7327C70.5444 75.038 70.3603 75.3094 70.2375 75.5808C70.1147 75.4451 69.9919 75.3094 69.8385 75.1398ZM254.331 69.4067C254.485 69.5763 254.608 69.712 254.73 69.8477C254.485 69.9834 254.239 70.1869 253.963 70.2547C253.871 70.2547 253.718 69.9834 253.595 69.8477C253.84 69.6781 254.086 69.5423 254.331 69.4067ZM70.4216 65.5733C70.5751 65.7429 70.6978 65.8786 70.8206 66.0143C70.575 66.15 70.3295 66.3535 70.0532 66.4214C69.9612 66.4214 69.8077 66.15 69.6849 66.0143C69.9305 65.8446 70.1761 65.709 70.4216 65.5733ZM59.0961 60.7222C58.9733 60.9935 58.8198 61.2649 58.6971 61.5363C58.5743 61.4006 58.3288 61.231 58.3288 61.1292C58.3901 60.8239 58.5743 60.5525 58.6971 60.2812C58.8198 60.4169 58.9426 60.5525 59.0961 60.7222ZM279.591 43.6585C279.591 43.6585 279.223 43.3531 279.223 43.2514C279.284 42.946 279.469 42.6747 279.591 42.4033C279.714 42.539 279.96 42.7086 279.96 42.8104C279.898 43.1157 279.714 43.3871 279.591 43.6585ZM290.18 43.4549C289.935 43.3192 289.689 43.1496 289.444 43.0139C289.566 42.8782 289.72 42.6068 289.812 42.6068C290.088 42.6746 290.334 42.8782 290.579 43.0139C290.457 43.1496 290.334 43.2853 290.18 43.4549ZM9.09787 21.7436C8.85233 21.6079 8.60682 21.4383 8.36128 21.3026C8.48405 21.1669 8.6375 20.8955 8.72957 20.8955C9.00581 20.9634 9.25135 21.1669 9.49689 21.3026C9.37412 21.4383 9.25133 21.574 9.09787 21.7436Z" fill="#250D51"/>
</svg>
