<svg width="210" height="63" viewBox="0 0 210 63" fill="none" xmlns="http://www.w3.org/2000/svg">
<path d="M12.3855 33.9231C9.94467 29.565 7.63586 25.133 5.02265 20.8932C3.6477 18.6706 3.41314 16.1997 2.84444 13.8291C2.33915 11.7266 3.77724 10.4224 5.98474 10.5305C7.25853 10.5978 7.93351 11.8029 8.43211 12.4995C10.0204 14.7544 11.7241 16.9446 13.3124 19.1996C16.0253 23.0366 17.9148 27.3782 20.7538 31.0144C23.0797 34.0056 24.7413 37.282 26.6525 40.4621C28.5452 43.6091 30.4894 46.7706 31.9932 50.1138C33.0063 52.3873 33.8728 54.7862 33.9152 57.4949C33.9437 59.3656 32.6382 59.1643 31.8736 59.6576C31.4629 59.931 30.1752 59.5679 29.8741 59.1077C28.725 57.3658 27.5251 55.8042 25.4424 55.1057C25.0726 54.9875 24.7952 54.4923 24.5495 54.1311C22.643 51.2304 20.6704 48.3666 18.8629 45.4104C17.0811 42.4615 15.4809 39.4109 13.7982 36.4065L12.4021 33.9138L12.3855 33.9231Z" fill="#F5F3FF"/>
<path d="M189.121 29.9706C191.618 25.6448 194.247 21.3946 196.554 16.9811C197.762 14.6632 199.765 13.1983 201.512 11.4976C203.061 9.98842 204.917 10.5576 205.952 12.51C206.546 13.6392 205.855 14.8353 205.511 15.62C204.385 18.1378 203.374 20.7219 202.248 23.2397C200.338 27.5329 197.572 31.3765 195.899 35.6755C194.517 39.2036 192.551 42.3068 190.795 45.5751C189.058 48.8107 187.335 52.098 185.23 55.0996C183.794 57.1326 182.176 59.1037 179.869 60.525C178.276 61.506 177.782 60.2811 176.967 59.8761C176.522 59.6629 176.176 58.3707 176.417 57.8765C177.327 55.9984 178.055 54.1688 177.591 52.0217C177.503 51.6435 177.787 51.152 177.972 50.7562C179.49 47.6346 180.943 44.4752 182.56 41.4104C184.183 38.3714 185.987 35.4365 187.708 32.4543L189.137 29.9801L189.121 29.9706Z" fill="#F5F3FF"/>
<path d="M116.389 32.1276C116.389 37.1226 116.237 42.1176 116.446 47.0938C116.559 49.7048 115.556 51.9753 114.894 54.3214C114.308 56.4027 112.416 56.8378 110.542 55.6648C109.464 54.9836 109.464 53.6024 109.369 52.751C109.085 50.0075 108.669 47.264 108.385 44.5206C107.893 39.8472 108.366 35.1359 107.666 30.5761C107.099 26.8298 107.25 23.1592 107.137 19.4508C107.023 15.7802 106.872 12.0718 107.193 8.42011C107.42 5.94151 107.837 3.42509 109.123 1.0411C110.013 -0.604992 111.053 0.208592 111.961 0.151829C112.453 0.113987 113.399 1.06 113.437 1.60869C113.589 3.68996 113.872 5.63878 115.348 7.26595C115.613 7.54976 115.613 8.11736 115.651 8.55254C115.897 12.015 116.219 15.4775 116.351 18.9399C116.464 22.3835 116.37 25.827 116.37 29.2706L116.37 32.1276L116.389 32.1276Z" fill="#F5F3FF"/>
</svg>
