<svg width="448" height="526" viewBox="0 0 448 526" fill="none" xmlns="http://www.w3.org/2000/svg">
<rect y="22" width="448" height="502" rx="10" fill="#2E1065"/>
<path d="M46 205.38C46 201.792 48.9092 198.883 52.4979 198.883H424.502C428.091 198.883 431 201.792 431 205.38V523.883H46V205.38Z" fill="#CCC8E2"/>
<path d="M46 204.415C46 201.424 48.4243 199 51.4149 199H425.585C428.576 199 431 201.424 431 204.415V216.328H46V204.415Z" fill="#F5F3FF"/>
<circle cx="65.4936" cy="207.393" r="3.24894" fill="#EB3E3F"/>
<circle cx="76.865" cy="207.393" r="3.24894" fill="#F39429"/>
<circle cx="88.2363" cy="207.393" r="3.24894" fill="#1AB079"/>
<rect x="116.559" y="154.221" width="284.254" height="176.388" rx="8.63763" fill="white" stroke="#C8C8C8" stroke-width="0.442075"/>
<path d="M143.072 203.018L141.2 195.865H142.813L144.224 201.856H143.792L145.28 195.865H146.817L148.305 201.856H147.873L149.284 195.865H150.897L149.025 203.018H147.297L145.799 197.257H146.298L144.8 203.018H143.072ZM151.533 203.018V195.75H152.973V198.812L152.8 198.582C152.922 198.268 153.117 198.038 153.386 197.891C153.661 197.737 153.981 197.66 154.346 197.66C154.743 197.66 155.089 197.743 155.383 197.91C155.684 198.076 155.918 198.31 156.084 198.611C156.251 198.905 156.334 199.251 156.334 199.648V203.018H154.894V199.955C154.894 199.75 154.852 199.574 154.769 199.427C154.692 199.28 154.58 199.164 154.433 199.081C154.292 198.998 154.125 198.956 153.933 198.956C153.748 198.956 153.581 198.998 153.434 199.081C153.287 199.164 153.172 199.28 153.089 199.427C153.012 199.574 152.973 199.75 152.973 199.955V203.018H151.533ZM158.903 203.133C158.526 203.133 158.199 203.072 157.924 202.951C157.649 202.829 157.438 202.656 157.29 202.432C157.143 202.202 157.07 201.93 157.07 201.616C157.07 201.322 157.137 201.062 157.271 200.838C157.406 200.608 157.61 200.416 157.886 200.262C158.167 200.109 158.516 200 158.932 199.936L160.536 199.677V200.733L159.191 200.973C158.987 201.011 158.83 201.078 158.721 201.174C158.612 201.264 158.558 201.395 158.558 201.568C158.558 201.728 158.619 201.853 158.74 201.942C158.862 202.032 159.012 202.077 159.191 202.077C159.428 202.077 159.636 202.026 159.816 201.923C159.995 201.821 160.132 201.683 160.228 201.51C160.331 201.331 160.382 201.136 160.382 200.925V199.561C160.382 199.363 160.302 199.196 160.142 199.062C159.988 198.928 159.777 198.86 159.508 198.86C159.252 198.86 159.025 198.931 158.827 199.072C158.635 199.213 158.494 199.398 158.404 199.629L157.252 199.081C157.354 198.787 157.518 198.534 157.742 198.323C157.966 198.112 158.235 197.948 158.548 197.833C158.862 197.718 159.204 197.66 159.575 197.66C160.017 197.66 160.408 197.74 160.747 197.9C161.086 198.06 161.349 198.284 161.534 198.572C161.726 198.854 161.822 199.184 161.822 199.561V203.018H160.478V202.173L160.804 202.115C160.651 202.346 160.481 202.538 160.296 202.691C160.11 202.839 159.902 202.947 159.671 203.018C159.441 203.095 159.185 203.133 158.903 203.133ZM165.31 203.075C164.676 203.075 164.183 202.906 163.831 202.567C163.486 202.221 163.313 201.741 163.313 201.126V199.024H162.429V197.776H162.477C162.746 197.776 162.951 197.708 163.092 197.574C163.239 197.439 163.313 197.238 163.313 196.969V196.585H164.753V197.776H165.982V199.024H164.753V201.03C164.753 201.21 164.785 201.36 164.849 201.482C164.913 201.597 165.012 201.683 165.147 201.741C165.281 201.798 165.447 201.827 165.646 201.827C165.691 201.827 165.742 201.824 165.799 201.818C165.857 201.811 165.918 201.805 165.982 201.798V203.018C165.886 203.031 165.777 203.043 165.655 203.056C165.534 203.069 165.419 203.075 165.31 203.075ZM169.934 203.018L168.129 197.776H169.617L170.884 201.558L170.366 201.549L171.777 197.776H173.025L174.427 201.549L173.909 201.558L175.176 197.776H176.674L174.859 203.018H173.611L172.152 198.966H172.651L171.182 203.018H169.934ZM179.817 203.133C179.298 203.133 178.825 203.015 178.396 202.778C177.973 202.541 177.634 202.218 177.378 201.808C177.128 201.392 177.004 200.922 177.004 200.397C177.004 199.865 177.128 199.395 177.378 198.985C177.634 198.576 177.973 198.252 178.396 198.016C178.825 197.779 179.298 197.66 179.817 197.66C180.335 197.66 180.806 197.779 181.228 198.016C181.651 198.252 181.987 198.576 182.236 198.985C182.492 199.395 182.62 199.865 182.62 200.397C182.62 200.922 182.492 201.392 182.236 201.808C181.987 202.218 181.651 202.541 181.228 202.778C180.806 203.015 180.335 203.133 179.817 203.133ZM179.817 201.837C180.079 201.837 180.306 201.776 180.498 201.654C180.697 201.533 180.85 201.363 180.959 201.146C181.074 200.928 181.132 200.678 181.132 200.397C181.132 200.115 181.074 199.869 180.959 199.657C180.85 199.44 180.697 199.27 180.498 199.148C180.306 199.02 180.079 198.956 179.817 198.956C179.554 198.956 179.324 199.02 179.125 199.148C178.927 199.27 178.77 199.44 178.655 199.657C178.546 199.869 178.492 200.115 178.492 200.397C178.492 200.678 178.546 200.928 178.655 201.146C178.77 201.363 178.927 201.533 179.125 201.654C179.324 201.776 179.554 201.837 179.817 201.837ZM185.351 203.133C184.928 203.133 184.566 203.043 184.266 202.864C183.971 202.679 183.747 202.423 183.594 202.096C183.44 201.77 183.363 201.389 183.363 200.954V197.776H184.803V200.838C184.803 201.037 184.842 201.213 184.919 201.366C185.002 201.514 185.117 201.629 185.264 201.712C185.411 201.795 185.578 201.837 185.763 201.837C185.955 201.837 186.122 201.795 186.263 201.712C186.41 201.629 186.522 201.514 186.599 201.366C186.682 201.213 186.724 201.037 186.724 200.838V197.776H188.164V203.018H186.82V201.981L186.896 202.211C186.775 202.525 186.576 202.759 186.301 202.912C186.032 203.059 185.715 203.133 185.351 203.133ZM189.216 203.018V195.75H190.657V203.018H189.216ZM194.178 203.133C193.666 203.133 193.208 203.011 192.805 202.768C192.402 202.525 192.082 202.195 191.845 201.779C191.614 201.363 191.499 200.902 191.499 200.397C191.499 199.885 191.618 199.424 191.855 199.014C192.091 198.598 192.411 198.268 192.815 198.025C193.218 197.782 193.669 197.66 194.168 197.66C194.552 197.66 194.892 197.734 195.186 197.881C195.487 198.022 195.724 198.224 195.897 198.486L195.676 198.774V195.75H197.116V203.018H195.772V202.058L195.906 202.355C195.727 202.611 195.484 202.807 195.177 202.941C194.869 203.069 194.536 203.133 194.178 203.133ZM194.351 201.837C194.613 201.837 194.844 201.776 195.042 201.654C195.241 201.533 195.394 201.363 195.503 201.146C195.618 200.928 195.676 200.678 195.676 200.397C195.676 200.115 195.618 199.865 195.503 199.648C195.394 199.43 195.241 199.261 195.042 199.139C194.844 199.017 194.613 198.956 194.351 198.956C194.088 198.956 193.852 199.02 193.64 199.148C193.436 199.27 193.276 199.44 193.16 199.657C193.045 199.869 192.987 200.115 192.987 200.397C192.987 200.678 193.045 200.928 193.16 201.146C193.276 201.363 193.436 201.533 193.64 201.654C193.852 201.776 194.088 201.837 194.351 201.837ZM200.712 205.13C200.558 205.13 200.408 205.117 200.261 205.092C200.12 205.066 199.995 205.024 199.886 204.967V203.786C199.976 203.812 200.082 203.834 200.203 203.853C200.325 203.872 200.437 203.882 200.539 203.882C200.821 203.882 201.023 203.815 201.144 203.68C201.266 203.552 201.365 203.405 201.442 203.239L201.797 202.423L201.778 203.623L199.474 197.776H201.019L202.546 201.933H201.97L203.496 197.776H205.042L202.796 203.507C202.655 203.866 202.482 204.167 202.277 204.41C202.072 204.653 201.839 204.832 201.576 204.948C201.32 205.069 201.032 205.13 200.712 205.13ZM208.18 203.133C207.662 203.133 207.188 203.015 206.759 202.778C206.337 202.541 205.997 202.218 205.741 201.808C205.492 201.392 205.367 200.922 205.367 200.397C205.367 199.865 205.492 199.395 205.741 198.985C205.997 198.576 206.337 198.252 206.759 198.016C207.188 197.779 207.662 197.66 208.18 197.66C208.698 197.66 209.169 197.779 209.591 198.016C210.014 198.252 210.35 198.576 210.6 198.985C210.856 199.395 210.984 199.865 210.984 200.397C210.984 200.922 210.856 201.392 210.6 201.808C210.35 202.218 210.014 202.541 209.591 202.778C209.169 203.015 208.698 203.133 208.18 203.133ZM208.18 201.837C208.442 201.837 208.67 201.776 208.862 201.654C209.06 201.533 209.214 201.363 209.323 201.146C209.438 200.928 209.495 200.678 209.495 200.397C209.495 200.115 209.438 199.869 209.323 199.657C209.214 199.44 209.06 199.27 208.862 199.148C208.67 199.02 208.442 198.956 208.18 198.956C207.918 198.956 207.687 199.02 207.489 199.148C207.29 199.27 207.133 199.44 207.018 199.657C206.909 199.869 206.855 200.115 206.855 200.397C206.855 200.678 206.909 200.928 207.018 201.146C207.133 201.363 207.29 201.533 207.489 201.654C207.687 201.776 207.918 201.837 208.18 201.837ZM213.714 203.133C213.291 203.133 212.93 203.043 212.629 202.864C212.334 202.679 212.11 202.423 211.957 202.096C211.803 201.77 211.726 201.389 211.726 200.954V197.776H213.167V200.838C213.167 201.037 213.205 201.213 213.282 201.366C213.365 201.514 213.48 201.629 213.627 201.712C213.775 201.795 213.941 201.837 214.127 201.837C214.319 201.837 214.485 201.795 214.626 201.712C214.773 201.629 214.885 201.514 214.962 201.366C215.045 201.213 215.087 201.037 215.087 200.838V197.776H216.527V203.018H215.183V201.981L215.26 202.211C215.138 202.525 214.94 202.759 214.664 202.912C214.396 203.059 214.079 203.133 213.714 203.133ZM219.305 203.018V195.75H220.745V203.018H219.305ZM221.799 203.018V197.776H223.239V203.018H221.799ZM221.799 197.305V195.865H223.239V197.305H221.799ZM224.293 203.018V195.75H225.733V200.406L225.196 200.233L227.51 197.776H229.286L227.385 199.888L229.276 203.018H227.644L226.06 200.358L226.895 200.147L225.292 201.894L225.733 201.059V203.018H224.293ZM232.35 203.133C231.793 203.133 231.31 203.011 230.9 202.768C230.491 202.519 230.174 202.186 229.95 201.77C229.726 201.354 229.614 200.893 229.614 200.387C229.614 199.862 229.729 199.395 229.96 198.985C230.196 198.576 230.513 198.252 230.91 198.016C231.307 197.779 231.755 197.66 232.254 197.66C232.67 197.66 233.038 197.727 233.358 197.862C233.678 197.99 233.947 198.172 234.165 198.409C234.389 198.646 234.559 198.921 234.674 199.235C234.789 199.542 234.847 199.878 234.847 200.243C234.847 200.345 234.84 200.448 234.827 200.55C234.821 200.646 234.805 200.73 234.779 200.8H230.852V199.744H233.963L233.282 200.243C233.346 199.968 233.342 199.725 233.272 199.513C233.202 199.296 233.077 199.126 232.898 199.004C232.725 198.876 232.51 198.812 232.254 198.812C232.005 198.812 231.79 198.873 231.611 198.995C231.432 199.116 231.297 199.296 231.208 199.533C231.118 199.769 231.083 200.057 231.102 200.397C231.076 200.691 231.112 200.95 231.208 201.174C231.304 201.398 231.451 201.574 231.649 201.702C231.848 201.824 232.088 201.885 232.369 201.885C232.625 201.885 232.843 201.834 233.022 201.731C233.208 201.629 233.352 201.488 233.454 201.309L234.607 201.856C234.504 202.112 234.341 202.336 234.117 202.528C233.899 202.72 233.64 202.871 233.339 202.979C233.038 203.082 232.709 203.133 232.35 203.133ZM239.945 203.075C239.311 203.075 238.818 202.906 238.466 202.567C238.121 202.221 237.948 201.741 237.948 201.126V199.024H237.065V197.776H237.113C237.381 197.776 237.586 197.708 237.727 197.574C237.874 197.439 237.948 197.238 237.948 196.969V196.585H239.388V197.776H240.617V199.024H239.388V201.03C239.388 201.21 239.42 201.36 239.484 201.482C239.548 201.597 239.647 201.683 239.782 201.741C239.916 201.798 240.083 201.827 240.281 201.827C240.326 201.827 240.377 201.824 240.435 201.818C240.492 201.811 240.553 201.805 240.617 201.798V203.018C240.521 203.031 240.412 203.043 240.291 203.056C240.169 203.069 240.054 203.075 239.945 203.075ZM244.063 203.133C243.545 203.133 243.071 203.015 242.642 202.778C242.22 202.541 241.88 202.218 241.624 201.808C241.375 201.392 241.25 200.922 241.25 200.397C241.25 199.865 241.375 199.395 241.624 198.985C241.88 198.576 242.22 198.252 242.642 198.016C243.071 197.779 243.545 197.66 244.063 197.66C244.581 197.66 245.052 197.779 245.474 198.016C245.897 198.252 246.233 198.576 246.483 198.985C246.739 199.395 246.867 199.865 246.867 200.397C246.867 200.922 246.739 201.392 246.483 201.808C246.233 202.218 245.897 202.541 245.474 202.778C245.052 203.015 244.581 203.133 244.063 203.133ZM244.063 201.837C244.325 201.837 244.553 201.776 244.745 201.654C244.943 201.533 245.097 201.363 245.206 201.146C245.321 200.928 245.378 200.678 245.378 200.397C245.378 200.115 245.321 199.869 245.206 199.657C245.097 199.44 244.943 199.27 244.745 199.148C244.553 199.02 244.325 198.956 244.063 198.956C243.801 198.956 243.57 199.02 243.372 199.148C243.173 199.27 243.016 199.44 242.901 199.657C242.792 199.869 242.738 200.115 242.738 200.397C242.738 200.678 242.792 200.928 242.901 201.146C243.016 201.363 243.173 201.533 243.372 201.654C243.57 201.776 243.801 201.837 244.063 201.837ZM249.44 203.018V195.75H250.88V200.406L250.343 200.233L252.657 197.776H254.433L252.532 199.888L254.423 203.018H252.791L251.207 200.358L252.042 200.147L250.439 201.894L250.88 201.059V203.018H249.44ZM255.066 203.018V197.776H256.41V198.812L256.333 198.582C256.455 198.268 256.65 198.038 256.919 197.891C257.194 197.737 257.514 197.66 257.879 197.66C258.276 197.66 258.622 197.743 258.916 197.91C259.217 198.076 259.451 198.31 259.617 198.611C259.783 198.905 259.867 199.251 259.867 199.648V203.018H258.427V199.955C258.427 199.75 258.385 199.574 258.302 199.427C258.225 199.28 258.113 199.164 257.966 199.081C257.825 198.998 257.658 198.956 257.466 198.956C257.281 198.956 257.114 198.998 256.967 199.081C256.82 199.164 256.705 199.28 256.621 199.427C256.545 199.574 256.506 199.75 256.506 199.955V203.018H255.066ZM263.416 203.133C262.897 203.133 262.424 203.015 261.995 202.778C261.572 202.541 261.233 202.218 260.977 201.808C260.727 201.392 260.602 200.922 260.602 200.397C260.602 199.865 260.727 199.395 260.977 198.985C261.233 198.576 261.572 198.252 261.995 198.016C262.424 197.779 262.897 197.66 263.416 197.66C263.934 197.66 264.405 197.779 264.827 198.016C265.25 198.252 265.586 198.576 265.835 198.985C266.091 199.395 266.219 199.865 266.219 200.397C266.219 200.922 266.091 201.392 265.835 201.808C265.586 202.218 265.25 202.541 264.827 202.778C264.405 203.015 263.934 203.133 263.416 203.133ZM263.416 201.837C263.678 201.837 263.905 201.776 264.097 201.654C264.296 201.533 264.449 201.363 264.558 201.146C264.673 200.928 264.731 200.678 264.731 200.397C264.731 200.115 264.673 199.869 264.558 199.657C264.449 199.44 264.296 199.27 264.097 199.148C263.905 199.02 263.678 198.956 263.416 198.956C263.153 198.956 262.923 199.02 262.724 199.148C262.526 199.27 262.369 199.44 262.254 199.657C262.145 199.869 262.091 200.115 262.091 200.397C262.091 200.678 262.145 200.928 262.254 201.146C262.369 201.363 262.526 201.533 262.724 201.654C262.923 201.776 263.153 201.837 263.416 201.837ZM268.357 203.018L266.551 197.776H268.04L269.307 201.558L268.789 201.549L270.2 197.776H271.448L272.85 201.549L272.331 201.558L273.599 197.776H275.097L273.282 203.018H272.034L270.574 198.966H271.074L269.605 203.018H268.357ZM277.364 200.81V200.589C277.364 200.307 277.402 200.061 277.479 199.849C277.562 199.632 277.668 199.44 277.796 199.273C277.924 199.107 278.055 198.956 278.189 198.822C278.375 198.636 278.541 198.47 278.689 198.323C278.836 198.169 278.909 197.993 278.909 197.795C278.909 197.66 278.877 197.542 278.813 197.439C278.749 197.331 278.653 197.247 278.525 197.19C278.404 197.126 278.25 197.094 278.065 197.094C277.828 197.094 277.62 197.167 277.44 197.315C277.268 197.455 277.162 197.647 277.124 197.891L275.789 197.555C275.847 197.196 275.978 196.883 276.183 196.614C276.394 196.345 276.663 196.134 276.989 195.98C277.322 195.826 277.693 195.75 278.103 195.75C278.602 195.75 279.021 195.849 279.361 196.047C279.706 196.239 279.966 196.489 280.138 196.796C280.311 197.097 280.398 197.417 280.398 197.756C280.398 198 280.35 198.217 280.254 198.409C280.164 198.595 280.049 198.768 279.908 198.928C279.767 199.081 279.62 199.232 279.466 199.379C279.268 199.565 279.092 199.76 278.938 199.965C278.785 200.169 278.708 200.409 278.708 200.685V200.81H277.364ZM277.325 203.018V201.578H278.765V203.018H277.325ZM145.184 218.133C144.679 218.133 144.212 218.043 143.783 217.864C143.36 217.679 142.989 217.419 142.669 217.086C142.355 216.754 142.112 216.363 141.939 215.915C141.766 215.467 141.68 214.977 141.68 214.446C141.68 213.908 141.766 213.416 141.939 212.968C142.112 212.519 142.355 212.129 142.669 211.796C142.983 211.463 143.354 211.207 143.783 211.028C144.212 210.842 144.679 210.75 145.184 210.75C145.677 210.75 146.119 210.836 146.509 211.009C146.906 211.182 147.239 211.406 147.508 211.681C147.783 211.956 147.978 212.251 148.094 212.564L147.23 212.958C147.063 212.561 146.804 212.241 146.452 211.998C146.1 211.748 145.677 211.623 145.184 211.623C144.685 211.623 144.24 211.742 143.85 211.979C143.466 212.215 143.165 212.545 142.947 212.968C142.73 213.39 142.621 213.883 142.621 214.446C142.621 215.003 142.73 215.493 142.947 215.915C143.165 216.338 143.466 216.667 143.85 216.904C144.24 217.141 144.685 217.259 145.184 217.259C145.677 217.259 146.1 217.138 146.452 216.894C146.804 216.645 147.063 216.322 147.23 215.925L148.094 216.318C147.978 216.632 147.783 216.926 147.508 217.202C147.239 217.477 146.906 217.701 146.509 217.874C146.119 218.047 145.677 218.133 145.184 218.133ZM151.632 218.133C151.133 218.133 150.682 218.018 150.278 217.787C149.875 217.551 149.555 217.227 149.318 216.818C149.081 216.408 148.963 215.944 148.963 215.425C148.963 214.907 149.078 214.446 149.309 214.043C149.545 213.64 149.865 213.32 150.269 213.083C150.672 212.846 151.126 212.727 151.632 212.727C152.131 212.727 152.583 212.846 152.986 213.083C153.389 213.313 153.706 213.63 153.936 214.033C154.173 214.437 154.292 214.901 154.292 215.425C154.292 215.95 154.17 216.418 153.927 216.827C153.684 217.231 153.36 217.551 152.957 217.787C152.56 218.018 152.119 218.133 151.632 218.133ZM151.632 217.269C151.952 217.269 152.24 217.189 152.496 217.029C152.759 216.869 152.963 216.648 153.111 216.366C153.264 216.085 153.341 215.771 153.341 215.425C153.341 215.073 153.264 214.763 153.111 214.494C152.963 214.219 152.759 214.001 152.496 213.841C152.24 213.675 151.952 213.592 151.632 213.592C151.306 213.592 151.011 213.675 150.749 213.841C150.493 214.001 150.288 214.219 150.134 214.494C149.981 214.763 149.904 215.073 149.904 215.425C149.904 215.771 149.981 216.085 150.134 216.366C150.288 216.648 150.493 216.869 150.749 217.029C151.011 217.189 151.306 217.269 151.632 217.269ZM155.456 218.018V212.843H156.33V213.899L156.205 213.736C156.333 213.409 156.538 213.16 156.82 212.987C157.101 212.814 157.418 212.727 157.77 212.727C158.173 212.727 158.535 212.84 158.855 213.064C159.182 213.288 159.406 213.582 159.527 213.947L159.278 213.956C159.412 213.553 159.639 213.249 159.959 213.044C160.279 212.833 160.635 212.727 161.025 212.727C161.383 212.727 161.707 212.811 161.995 212.977C162.289 213.144 162.523 213.374 162.696 213.668C162.868 213.963 162.955 214.296 162.955 214.667V218.018H162.052V214.955C162.052 214.667 162.001 214.424 161.899 214.225C161.796 214.027 161.655 213.873 161.476 213.764C161.303 213.649 161.099 213.592 160.862 213.592C160.631 213.592 160.423 213.649 160.238 213.764C160.058 213.873 159.914 214.03 159.806 214.235C159.703 214.433 159.652 214.673 159.652 214.955V218.018H158.749V214.955C158.749 214.667 158.698 214.424 158.596 214.225C158.493 214.027 158.353 213.873 158.173 213.764C158.001 213.649 157.796 213.592 157.559 213.592C157.328 213.592 157.12 213.649 156.935 213.764C156.756 213.873 156.612 214.03 156.503 214.235C156.4 214.433 156.349 214.673 156.349 214.955V218.018H155.456ZM164.223 219.938V212.843H165.097V213.956L164.982 213.736C165.174 213.428 165.436 213.185 165.769 213.006C166.102 212.82 166.483 212.727 166.911 212.727C167.398 212.727 167.833 212.846 168.217 213.083C168.608 213.32 168.915 213.643 169.139 214.052C169.363 214.456 169.475 214.917 169.475 215.435C169.475 215.941 169.363 216.398 169.139 216.808C168.915 217.218 168.608 217.541 168.217 217.778C167.833 218.015 167.395 218.133 166.902 218.133C166.486 218.133 166.105 218.04 165.759 217.855C165.42 217.669 165.158 217.407 164.972 217.067L165.116 216.914V219.938H164.223ZM166.835 217.269C167.161 217.269 167.452 217.189 167.708 217.029C167.964 216.869 168.163 216.651 168.304 216.376C168.451 216.094 168.524 215.781 168.524 215.435C168.524 215.077 168.451 214.763 168.304 214.494C168.163 214.219 167.964 214.001 167.708 213.841C167.452 213.675 167.161 213.592 166.835 213.592C166.508 213.592 166.214 213.672 165.951 213.832C165.695 213.992 165.49 214.213 165.337 214.494C165.19 214.769 165.116 215.083 165.116 215.435C165.116 215.781 165.19 216.094 165.337 216.376C165.49 216.651 165.695 216.869 165.951 217.029C166.214 217.189 166.508 217.269 166.835 217.269ZM170.646 218.018V210.75H171.539V218.018H170.646ZM175.305 218.133C174.806 218.133 174.361 218.015 173.971 217.778C173.58 217.541 173.273 217.218 173.049 216.808C172.825 216.392 172.713 215.928 172.713 215.416C172.713 214.897 172.822 214.437 173.039 214.033C173.263 213.63 173.564 213.313 173.942 213.083C174.326 212.846 174.755 212.727 175.229 212.727C175.613 212.727 175.952 212.798 176.246 212.939C176.547 213.073 176.8 213.259 177.005 213.496C177.216 213.726 177.376 213.992 177.485 214.293C177.6 214.587 177.658 214.894 177.658 215.214C177.658 215.285 177.651 215.365 177.638 215.454C177.632 215.537 177.622 215.617 177.61 215.694H173.366V214.926H177.091L176.669 215.272C176.726 214.939 176.694 214.641 176.573 214.379C176.451 214.116 176.272 213.908 176.035 213.755C175.798 213.601 175.529 213.524 175.229 213.524C174.928 213.524 174.652 213.601 174.403 213.755C174.153 213.908 173.958 214.129 173.817 214.417C173.683 214.699 173.628 215.035 173.654 215.425C173.628 215.803 173.686 216.136 173.827 216.424C173.974 216.706 174.179 216.926 174.441 217.086C174.71 217.24 175.001 217.317 175.315 217.317C175.661 217.317 175.952 217.237 176.189 217.077C176.426 216.917 176.618 216.712 176.765 216.462L177.514 216.846C177.411 217.083 177.251 217.301 177.034 217.499C176.822 217.691 176.57 217.845 176.275 217.96C175.987 218.075 175.664 218.133 175.305 218.133ZM180.925 218.075C180.419 218.075 180.028 217.931 179.753 217.643C179.484 217.355 179.35 216.949 179.35 216.424V213.697H178.409V212.843H178.601C178.832 212.843 179.014 212.772 179.148 212.631C179.283 212.491 179.35 212.305 179.35 212.075V211.652H180.243V212.843H181.405V213.697H180.243V216.395C180.243 216.568 180.269 216.718 180.32 216.846C180.377 216.974 180.47 217.077 180.598 217.154C180.726 217.224 180.896 217.259 181.107 217.259C181.152 217.259 181.206 217.256 181.27 217.25C181.341 217.243 181.405 217.237 181.462 217.231V218.018C181.379 218.037 181.286 218.05 181.184 218.056C181.081 218.069 180.995 218.075 180.925 218.075ZM184.869 218.133C184.37 218.133 183.925 218.015 183.535 217.778C183.144 217.541 182.837 217.218 182.613 216.808C182.389 216.392 182.277 215.928 182.277 215.416C182.277 214.897 182.386 214.437 182.603 214.033C182.827 213.63 183.128 213.313 183.506 213.083C183.89 212.846 184.319 212.727 184.792 212.727C185.176 212.727 185.516 212.798 185.81 212.939C186.111 213.073 186.364 213.259 186.569 213.496C186.78 213.726 186.94 213.992 187.049 214.293C187.164 214.587 187.221 214.894 187.221 215.214C187.221 215.285 187.215 215.365 187.202 215.454C187.196 215.537 187.186 215.617 187.173 215.694H182.93V214.926H186.655L186.233 215.272C186.29 214.939 186.258 214.641 186.137 214.379C186.015 214.116 185.836 213.908 185.599 213.755C185.362 213.601 185.093 213.524 184.792 213.524C184.492 213.524 184.216 213.601 183.967 213.755C183.717 213.908 183.522 214.129 183.381 214.417C183.247 214.699 183.192 215.035 183.218 215.425C183.192 215.803 183.25 216.136 183.391 216.424C183.538 216.706 183.743 216.926 184.005 217.086C184.274 217.24 184.565 217.317 184.879 217.317C185.224 217.317 185.516 217.237 185.752 217.077C185.989 216.917 186.181 216.712 186.329 216.462L187.077 216.846C186.975 217.083 186.815 217.301 186.597 217.499C186.386 217.691 186.133 217.845 185.839 217.96C185.551 218.075 185.228 218.133 184.869 218.133ZM192.398 218.133C191.911 218.133 191.473 218.015 191.082 217.778C190.698 217.541 190.394 217.218 190.17 216.808C189.946 216.398 189.834 215.941 189.834 215.435C189.834 214.917 189.946 214.456 190.17 214.052C190.394 213.643 190.698 213.32 191.082 213.083C191.473 212.846 191.911 212.727 192.398 212.727C192.827 212.727 193.207 212.82 193.54 213.006C193.873 213.185 194.135 213.428 194.328 213.736L194.184 213.956V210.75H195.086V218.018H194.212V216.914L194.328 217.067C194.148 217.407 193.886 217.669 193.54 217.855C193.201 218.04 192.82 218.133 192.398 218.133ZM192.474 217.269C192.801 217.269 193.092 217.189 193.348 217.029C193.604 216.869 193.806 216.651 193.953 216.376C194.107 216.094 194.184 215.781 194.184 215.435C194.184 215.083 194.107 214.769 193.953 214.494C193.806 214.213 193.604 213.992 193.348 213.832C193.092 213.672 192.801 213.592 192.474 213.592C192.154 213.592 191.863 213.675 191.601 213.841C191.345 214.001 191.143 214.219 190.996 214.494C190.849 214.763 190.775 215.077 190.775 215.435C190.775 215.781 190.849 216.094 190.996 216.376C191.143 216.651 191.345 216.869 191.601 217.029C191.857 217.189 192.148 217.269 192.474 217.269ZM198.849 218.133C198.35 218.133 197.905 218.015 197.515 217.778C197.124 217.541 196.817 217.218 196.593 216.808C196.369 216.392 196.257 215.928 196.257 215.416C196.257 214.897 196.366 214.437 196.583 214.033C196.807 213.63 197.108 213.313 197.486 213.083C197.87 212.846 198.299 212.727 198.772 212.727C199.156 212.727 199.496 212.798 199.79 212.939C200.091 213.073 200.344 213.259 200.549 213.496C200.76 213.726 200.92 213.992 201.029 214.293C201.144 214.587 201.202 214.894 201.202 215.214C201.202 215.285 201.195 215.365 201.182 215.454C201.176 215.537 201.166 215.617 201.154 215.694H196.91V214.926H200.635L200.213 215.272C200.27 214.939 200.238 214.641 200.117 214.379C199.995 214.116 199.816 213.908 199.579 213.755C199.342 213.601 199.073 213.524 198.772 213.524C198.472 213.524 198.196 213.601 197.947 213.755C197.697 213.908 197.502 214.129 197.361 214.417C197.227 214.699 197.172 215.035 197.198 215.425C197.172 215.803 197.23 216.136 197.371 216.424C197.518 216.706 197.723 216.926 197.985 217.086C198.254 217.24 198.545 217.317 198.859 217.317C199.204 217.317 199.496 217.237 199.733 217.077C199.969 216.917 200.161 216.712 200.309 216.462L201.058 216.846C200.955 217.083 200.795 217.301 200.577 217.499C200.366 217.691 200.113 217.845 199.819 217.96C199.531 218.075 199.208 218.133 198.849 218.133ZM205.542 218.133C205.203 218.133 204.902 218.072 204.64 217.951C204.384 217.823 204.182 217.65 204.035 217.432C203.888 217.208 203.814 216.952 203.814 216.664C203.814 216.389 203.872 216.142 203.987 215.925C204.109 215.701 204.294 215.512 204.544 215.358C204.8 215.205 205.12 215.096 205.504 215.032L207.424 214.715V215.464L205.706 215.752C205.373 215.81 205.13 215.915 204.976 216.069C204.829 216.222 204.755 216.411 204.755 216.635C204.755 216.846 204.838 217.022 205.005 217.163C205.178 217.304 205.392 217.375 205.648 217.375C205.974 217.375 206.256 217.307 206.493 217.173C206.736 217.032 206.925 216.843 207.059 216.606C207.2 216.37 207.271 216.107 207.271 215.819V214.504C207.271 214.222 207.165 213.995 206.954 213.822C206.749 213.643 206.477 213.553 206.138 213.553C205.843 213.553 205.581 213.63 205.35 213.784C205.126 213.931 204.96 214.129 204.851 214.379L204.073 213.976C204.169 213.739 204.323 213.528 204.534 213.342C204.745 213.15 204.992 213 205.274 212.891C205.555 212.782 205.85 212.727 206.157 212.727C206.554 212.727 206.903 212.804 207.203 212.958C207.504 213.105 207.738 213.313 207.904 213.582C208.077 213.844 208.164 214.152 208.164 214.504V218.018H207.29V217.038L207.453 217.096C207.344 217.301 207.197 217.48 207.011 217.634C206.826 217.787 206.608 217.909 206.358 217.999C206.109 218.088 205.837 218.133 205.542 218.133ZM209.548 218.018V212.843H210.422V213.851L210.278 213.764C210.406 213.438 210.611 213.185 210.892 213.006C211.18 212.82 211.516 212.727 211.9 212.727C212.272 212.727 212.601 212.811 212.889 212.977C213.184 213.144 213.414 213.374 213.581 213.668C213.753 213.963 213.84 214.296 213.84 214.667V218.018H212.937V214.955C212.937 214.667 212.886 214.424 212.784 214.225C212.681 214.027 212.534 213.873 212.342 213.764C212.156 213.649 211.942 213.592 211.699 213.592C211.455 213.592 211.238 213.649 211.046 213.764C210.86 213.873 210.713 214.03 210.604 214.235C210.495 214.433 210.441 214.673 210.441 214.955V218.018H209.548ZM216.971 218.133C216.452 218.133 216.001 218.005 215.617 217.749C215.233 217.493 214.961 217.147 214.801 216.712L215.511 216.366C215.658 216.674 215.86 216.917 216.116 217.096C216.372 217.275 216.657 217.365 216.971 217.365C217.252 217.365 217.486 217.298 217.671 217.163C217.857 217.029 217.95 216.853 217.95 216.635C217.95 216.482 217.905 216.36 217.815 216.27C217.732 216.174 217.63 216.101 217.508 216.05C217.387 215.992 217.275 215.95 217.172 215.925L216.395 215.704C215.927 215.569 215.585 215.377 215.367 215.128C215.156 214.878 215.05 214.587 215.05 214.254C215.05 213.947 215.127 213.681 215.281 213.457C215.441 213.227 215.655 213.048 215.924 212.92C216.199 212.792 216.507 212.727 216.846 212.727C217.3 212.727 217.707 212.843 218.065 213.073C218.43 213.304 218.689 213.627 218.843 214.043L218.113 214.379C217.998 214.11 217.825 213.899 217.595 213.745C217.364 213.585 217.105 213.505 216.817 213.505C216.555 213.505 216.346 213.572 216.193 213.707C216.039 213.835 215.962 213.998 215.962 214.196C215.962 214.344 216.001 214.465 216.078 214.561C216.154 214.651 216.247 214.721 216.356 214.773C216.465 214.817 216.571 214.856 216.673 214.888L217.518 215.137C217.94 215.259 218.267 215.448 218.497 215.704C218.734 215.96 218.852 216.267 218.852 216.626C218.852 216.914 218.772 217.173 218.612 217.403C218.452 217.634 218.232 217.813 217.95 217.941C217.668 218.069 217.342 218.133 216.971 218.133ZM221.118 218.018L219.342 212.843H220.331L221.742 217.173L221.397 217.163L222.779 212.843H223.624L225.007 217.163L224.661 217.173L226.082 212.843H227.061L225.285 218.018H224.431L223.067 213.697H223.336L221.973 218.018H221.118ZM230.147 218.133C229.648 218.133 229.203 218.015 228.813 217.778C228.422 217.541 228.115 217.218 227.891 216.808C227.667 216.392 227.555 215.928 227.555 215.416C227.555 214.897 227.664 214.437 227.881 214.033C228.105 213.63 228.406 213.313 228.784 213.083C229.168 212.846 229.597 212.727 230.07 212.727C230.455 212.727 230.794 212.798 231.088 212.939C231.389 213.073 231.642 213.259 231.847 213.496C232.058 213.726 232.218 213.992 232.327 214.293C232.442 214.587 232.5 214.894 232.5 215.214C232.5 215.285 232.493 215.365 232.48 215.454C232.474 215.537 232.464 215.617 232.452 215.694H228.208V214.926H231.933L231.511 215.272C231.568 214.939 231.536 214.641 231.415 214.379C231.293 214.116 231.114 213.908 230.877 213.755C230.64 213.601 230.371 213.524 230.07 213.524C229.77 213.524 229.494 213.601 229.245 213.755C228.995 213.908 228.8 214.129 228.659 214.417C228.525 214.699 228.47 215.035 228.496 215.425C228.47 215.803 228.528 216.136 228.669 216.424C228.816 216.706 229.021 216.926 229.283 217.086C229.552 217.24 229.843 217.317 230.157 217.317C230.503 217.317 230.794 217.237 231.031 217.077C231.267 216.917 231.459 216.712 231.607 216.462L232.356 216.846C232.253 217.083 232.093 217.301 231.875 217.499C231.664 217.691 231.411 217.845 231.117 217.96C230.829 218.075 230.506 218.133 230.147 218.133ZM233.664 218.018V212.843H234.538V213.793L234.442 213.659C234.563 213.364 234.749 213.147 234.998 213.006C235.248 212.859 235.552 212.785 235.911 212.785H236.227V213.63H235.776C235.411 213.63 235.117 213.745 234.893 213.976C234.669 214.2 234.557 214.52 234.557 214.936V218.018H233.664ZM237.001 218.018V216.866H237.932V218.018H237.001Z" fill="#2E1065"/>
<rect x="141.408" y="229.466" width="234.87" height="45.2157" rx="2.33845" fill="white" stroke="#C8C8C8" stroke-width="0.627996"/>
<rect x="332.071" y="290.159" width="44.1199" height="21.6333" rx="2.88998" fill="#8B5CF6"/>
<path d="M344.483 303.975V298.234H348.22V299.043H345.392V300.769H347.912V301.578H345.392V303.975H344.483ZM348.744 303.975V299.806H349.615V303.975H348.744ZM348.744 299.236V298.234H349.615V299.236H348.744ZM350.479 303.975V299.806H351.312V300.623L351.211 300.515C351.314 300.253 351.479 300.055 351.705 299.921C351.931 299.783 352.193 299.713 352.491 299.713C352.799 299.713 353.071 299.78 353.308 299.914C353.544 300.047 353.729 300.232 353.863 300.469C353.996 300.705 354.063 300.977 354.063 301.285V303.975H353.2V301.517C353.2 301.306 353.161 301.129 353.084 300.985C353.007 300.836 352.897 300.723 352.753 300.646C352.614 300.564 352.455 300.523 352.275 300.523C352.095 300.523 351.933 300.564 351.789 300.646C351.651 300.723 351.543 300.836 351.466 300.985C351.389 301.134 351.35 301.311 351.35 301.517V303.975H350.479ZM354.841 303.975V299.806H355.712V303.975H354.841ZM354.841 299.236V298.234H355.712V299.236H354.841ZM358.117 304.068C357.691 304.068 357.315 303.962 356.992 303.752C356.673 303.541 356.45 303.258 356.321 302.904L356.992 302.588C357.105 302.824 357.259 303.012 357.454 303.15C357.655 303.289 357.876 303.359 358.117 303.359C358.322 303.359 358.489 303.312 358.618 303.22C358.746 303.127 358.811 303.001 358.811 302.842C358.811 302.739 358.782 302.657 358.726 302.596C358.669 302.529 358.597 302.475 358.51 302.434C358.428 302.393 358.343 302.362 358.256 302.341L357.601 302.156C357.241 302.054 356.971 301.899 356.791 301.694C356.617 301.483 356.529 301.239 356.529 300.962C356.529 300.71 356.594 300.492 356.722 300.307C356.851 300.117 357.028 299.97 357.254 299.867C357.48 299.765 357.734 299.713 358.017 299.713C358.397 299.713 358.736 299.808 359.034 299.998C359.332 300.183 359.543 300.443 359.666 300.777L358.996 301.093C358.913 300.892 358.782 300.733 358.603 300.615C358.428 300.497 358.23 300.438 358.009 300.438C357.819 300.438 357.667 300.484 357.554 300.576C357.441 300.664 357.385 300.779 357.385 300.923C357.385 301.021 357.411 301.103 357.462 301.17C357.513 301.232 357.58 301.283 357.662 301.324C357.745 301.36 357.829 301.391 357.917 301.416L358.595 301.617C358.939 301.714 359.204 301.869 359.389 302.079C359.574 302.285 359.666 302.531 359.666 302.819C359.666 303.066 359.599 303.284 359.466 303.474C359.337 303.659 359.157 303.806 358.926 303.913C358.695 304.016 358.425 304.068 358.117 304.068ZM360.365 303.975V298.141H361.236V300.623L361.097 300.515C361.2 300.253 361.364 300.055 361.591 299.921C361.817 299.783 362.079 299.713 362.377 299.713C362.685 299.713 362.957 299.78 363.193 299.914C363.43 300.047 363.615 300.232 363.748 300.469C363.882 300.705 363.949 300.975 363.949 301.278V303.975H363.086V301.517C363.086 301.306 363.044 301.129 362.962 300.985C362.885 300.836 362.777 300.723 362.639 300.646C362.5 300.564 362.341 300.523 362.161 300.523C361.986 300.523 361.827 300.564 361.683 300.646C361.544 300.723 361.434 300.836 361.352 300.985C361.275 301.134 361.236 301.311 361.236 301.517V303.975H360.365Z" fill="white"/>
<path d="M150.32 242.078V238.178H149.117V237.642H152.095V238.178H150.91V242.078H150.32ZM152.526 243.389C152.455 243.389 152.383 243.383 152.312 243.371C152.24 243.359 152.173 243.339 152.109 243.311V242.817C152.153 242.825 152.207 242.833 152.27 242.841C152.338 242.853 152.403 242.859 152.467 242.859C152.653 242.859 152.794 242.817 152.889 242.734C152.989 242.654 153.082 242.515 153.169 242.317L153.372 241.834L153.36 242.317L151.99 238.869H152.592L153.658 241.608H153.479L154.539 238.869H155.152L153.705 242.46C153.638 242.63 153.55 242.785 153.443 242.924C153.34 243.067 153.213 243.18 153.062 243.264C152.911 243.347 152.733 243.389 152.526 243.389ZM155.645 243.27V238.869H156.187V239.559L156.116 239.422C156.235 239.232 156.397 239.081 156.604 238.97C156.81 238.855 157.047 238.797 157.313 238.797C157.614 238.797 157.884 238.871 158.123 239.017C158.365 239.164 158.555 239.365 158.694 239.619C158.833 239.869 158.903 240.155 158.903 240.477C158.903 240.79 158.833 241.074 158.694 241.328C158.555 241.582 158.365 241.783 158.123 241.93C157.884 242.077 157.612 242.15 157.307 242.15C157.049 242.15 156.812 242.092 156.598 241.977C156.388 241.862 156.225 241.699 156.11 241.489L156.199 241.394V243.27H155.645ZM157.265 241.614C157.467 241.614 157.648 241.564 157.807 241.465C157.966 241.366 158.089 241.231 158.176 241.06C158.267 240.885 158.313 240.691 158.313 240.477C158.313 240.254 158.267 240.06 158.176 239.893C158.089 239.722 157.966 239.587 157.807 239.488C157.648 239.385 157.467 239.333 157.265 239.333C157.062 239.333 156.88 239.383 156.717 239.482C156.558 239.581 156.431 239.718 156.336 239.893C156.245 240.064 156.199 240.258 156.199 240.477C156.199 240.691 156.245 240.885 156.336 241.06C156.431 241.231 156.558 241.366 156.717 241.465C156.88 241.564 157.062 241.614 157.265 241.614ZM161.106 242.15C160.796 242.15 160.52 242.077 160.278 241.93C160.036 241.783 159.845 241.582 159.706 241.328C159.567 241.07 159.498 240.782 159.498 240.465C159.498 240.143 159.565 239.857 159.7 239.607C159.839 239.357 160.026 239.16 160.26 239.017C160.498 238.871 160.764 238.797 161.058 238.797C161.296 238.797 161.507 238.841 161.689 238.928C161.876 239.012 162.033 239.127 162.16 239.274C162.291 239.416 162.39 239.581 162.458 239.768C162.529 239.95 162.565 240.141 162.565 240.34C162.565 240.383 162.561 240.433 162.553 240.488C162.549 240.54 162.543 240.59 162.535 240.637H159.903V240.161H162.213L161.951 240.375C161.987 240.169 161.967 239.984 161.892 239.821C161.816 239.659 161.705 239.53 161.558 239.434C161.411 239.339 161.245 239.291 161.058 239.291C160.872 239.291 160.701 239.339 160.546 239.434C160.391 239.53 160.27 239.667 160.183 239.845C160.099 240.02 160.066 240.228 160.081 240.471C160.066 240.705 160.101 240.911 160.189 241.09C160.28 241.265 160.407 241.402 160.57 241.501C160.737 241.596 160.917 241.644 161.112 241.644C161.326 241.644 161.507 241.594 161.654 241.495C161.801 241.396 161.92 241.269 162.011 241.114L162.475 241.352C162.412 241.499 162.313 241.634 162.178 241.757C162.047 241.876 161.89 241.971 161.707 242.043C161.529 242.114 161.328 242.15 161.106 242.15ZM164.489 243.389C164.418 243.389 164.346 243.383 164.275 243.371C164.203 243.359 164.136 243.339 164.072 243.311V242.817C164.116 242.825 164.169 242.833 164.233 242.841C164.3 242.853 164.366 242.859 164.429 242.859C164.616 242.859 164.757 242.817 164.852 242.734C164.952 242.654 165.045 242.515 165.132 242.317L165.335 241.834L165.323 242.317L163.953 238.869H164.554L165.62 241.608H165.442L166.502 238.869H167.115L165.668 242.46C165.601 242.63 165.513 242.785 165.406 242.924C165.303 243.067 165.176 243.18 165.025 243.264C164.874 243.347 164.695 243.389 164.489 243.389ZM169.074 242.15C168.765 242.15 168.485 242.078 168.235 241.936C167.985 241.789 167.786 241.588 167.639 241.334C167.492 241.08 167.419 240.792 167.419 240.471C167.419 240.149 167.49 239.863 167.633 239.613C167.78 239.363 167.979 239.164 168.229 239.017C168.479 238.871 168.761 238.797 169.074 238.797C169.384 238.797 169.664 238.871 169.914 239.017C170.164 239.16 170.361 239.357 170.504 239.607C170.65 239.857 170.724 240.145 170.724 240.471C170.724 240.796 170.649 241.086 170.498 241.34C170.347 241.59 170.146 241.789 169.896 241.936C169.65 242.078 169.376 242.15 169.074 242.15ZM169.074 241.614C169.273 241.614 169.452 241.564 169.61 241.465C169.773 241.366 169.9 241.229 169.991 241.054C170.087 240.88 170.134 240.685 170.134 240.471C170.134 240.252 170.087 240.06 169.991 239.893C169.9 239.722 169.773 239.587 169.61 239.488C169.452 239.385 169.273 239.333 169.074 239.333C168.872 239.333 168.689 239.385 168.526 239.488C168.368 239.587 168.241 239.722 168.145 239.893C168.05 240.06 168.002 240.252 168.002 240.471C168.002 240.685 168.05 240.88 168.145 241.054C168.241 241.229 168.368 241.366 168.526 241.465C168.689 241.564 168.872 241.614 169.074 241.614ZM172.584 242.15C172.353 242.15 172.145 242.096 171.958 241.989C171.776 241.882 171.633 241.733 171.53 241.543C171.43 241.348 171.381 241.126 171.381 240.876V238.869H171.935V240.816C171.935 240.975 171.966 241.114 172.03 241.233C172.097 241.352 172.189 241.445 172.304 241.513C172.423 241.58 172.558 241.614 172.709 241.614C172.86 241.614 172.993 241.58 173.108 241.513C173.227 241.445 173.318 241.348 173.382 241.221C173.449 241.094 173.483 240.943 173.483 240.768V238.869H174.043V242.078H173.501V241.453L173.59 241.507C173.515 241.709 173.386 241.868 173.203 241.983C173.024 242.094 172.818 242.15 172.584 242.15ZM174.901 242.078V238.869H175.443V239.458L175.383 239.375C175.459 239.192 175.574 239.057 175.729 238.97C175.883 238.879 176.072 238.833 176.294 238.833H176.491V239.357H176.211C175.985 239.357 175.802 239.428 175.663 239.571C175.524 239.71 175.455 239.909 175.455 240.167V242.078H174.901ZM178.953 242.15C178.743 242.15 178.556 242.112 178.393 242.037C178.235 241.957 178.109 241.85 178.018 241.715C177.927 241.576 177.881 241.417 177.881 241.239C177.881 241.068 177.917 240.915 177.988 240.78C178.064 240.641 178.179 240.524 178.334 240.429C178.493 240.334 178.691 240.266 178.929 240.226L180.12 240.03V240.494L179.054 240.673C178.848 240.709 178.697 240.774 178.602 240.87C178.51 240.965 178.465 241.082 178.465 241.221C178.465 241.352 178.516 241.461 178.62 241.548C178.727 241.636 178.86 241.679 179.019 241.679C179.221 241.679 179.396 241.638 179.543 241.554C179.694 241.467 179.811 241.35 179.894 241.203C179.981 241.056 180.025 240.893 180.025 240.715V239.899C180.025 239.724 179.96 239.583 179.829 239.476C179.701 239.365 179.533 239.309 179.322 239.309C179.14 239.309 178.977 239.357 178.834 239.452C178.695 239.544 178.592 239.667 178.524 239.821L178.042 239.571C178.102 239.424 178.197 239.293 178.328 239.178C178.459 239.059 178.612 238.966 178.786 238.898C178.961 238.831 179.144 238.797 179.334 238.797C179.58 238.797 179.797 238.845 179.983 238.94C180.17 239.031 180.315 239.16 180.418 239.327C180.525 239.49 180.579 239.681 180.579 239.899V242.078H180.037V241.471L180.138 241.507C180.071 241.634 179.979 241.745 179.864 241.84C179.749 241.936 179.614 242.011 179.459 242.067C179.304 242.122 179.136 242.15 178.953 242.15ZM181.438 242.078V238.869H181.98V239.494L181.89 239.44C181.97 239.238 182.097 239.081 182.271 238.97C182.45 238.855 182.658 238.797 182.897 238.797C183.127 238.797 183.331 238.849 183.51 238.952C183.693 239.055 183.836 239.198 183.939 239.381C184.046 239.563 184.1 239.77 184.1 240V242.078H183.54V240.179C183.54 240 183.508 239.849 183.445 239.726C183.381 239.603 183.29 239.508 183.171 239.44C183.055 239.369 182.922 239.333 182.772 239.333C182.621 239.333 182.486 239.369 182.367 239.44C182.252 239.508 182.16 239.605 182.093 239.732C182.025 239.855 181.991 240.004 181.991 240.179V242.078H181.438ZM186.041 242.15C185.72 242.15 185.44 242.071 185.202 241.912C184.964 241.753 184.795 241.539 184.696 241.269L185.136 241.054C185.228 241.245 185.353 241.396 185.511 241.507C185.67 241.618 185.847 241.674 186.041 241.674C186.216 241.674 186.361 241.632 186.476 241.548C186.591 241.465 186.649 241.356 186.649 241.221C186.649 241.126 186.621 241.05 186.566 240.995C186.514 240.935 186.45 240.889 186.375 240.858C186.3 240.822 186.23 240.796 186.167 240.78L185.684 240.643C185.394 240.56 185.182 240.441 185.047 240.286C184.916 240.131 184.85 239.95 184.85 239.744C184.85 239.553 184.898 239.389 184.993 239.25C185.093 239.107 185.226 238.996 185.392 238.916C185.563 238.837 185.754 238.797 185.964 238.797C186.246 238.797 186.498 238.869 186.72 239.012C186.947 239.154 187.107 239.355 187.203 239.613L186.75 239.821C186.679 239.655 186.572 239.524 186.429 239.428C186.286 239.329 186.125 239.28 185.946 239.28C185.783 239.28 185.654 239.321 185.559 239.405C185.464 239.484 185.416 239.585 185.416 239.708C185.416 239.8 185.44 239.875 185.488 239.935C185.535 239.99 185.593 240.034 185.66 240.066C185.728 240.093 185.793 240.117 185.857 240.137L186.381 240.292C186.643 240.367 186.845 240.484 186.988 240.643C187.135 240.802 187.209 240.993 187.209 241.215C187.209 241.394 187.159 241.554 187.06 241.697C186.961 241.84 186.824 241.951 186.649 242.031C186.474 242.11 186.272 242.15 186.041 242.15ZM188.614 242.078L187.512 238.869H188.126L189.001 241.554L188.787 241.548L189.644 238.869H190.168L191.026 241.548L190.812 241.554L191.693 238.869H192.3L191.199 242.078H190.669L189.823 239.399H189.99L189.144 242.078H188.614ZM194.214 242.15C193.905 242.15 193.629 242.077 193.387 241.93C193.144 241.783 192.954 241.582 192.815 241.328C192.676 241.07 192.606 240.782 192.606 240.465C192.606 240.143 192.674 239.857 192.809 239.607C192.948 239.357 193.134 239.16 193.369 239.017C193.607 238.871 193.873 238.797 194.167 238.797C194.405 238.797 194.615 238.841 194.798 238.928C194.985 239.012 195.141 239.127 195.268 239.274C195.399 239.416 195.499 239.581 195.566 239.768C195.638 239.95 195.673 240.141 195.673 240.34C195.673 240.383 195.669 240.433 195.661 240.488C195.658 240.54 195.652 240.59 195.644 240.637H193.011V240.161H195.322L195.06 240.375C195.096 240.169 195.076 239.984 195 239.821C194.925 239.659 194.814 239.53 194.667 239.434C194.52 239.339 194.353 239.291 194.167 239.291C193.98 239.291 193.809 239.339 193.655 239.434C193.5 239.53 193.379 239.667 193.291 239.845C193.208 240.02 193.174 240.228 193.19 240.471C193.174 240.705 193.21 240.911 193.297 241.09C193.389 241.265 193.516 241.402 193.678 241.501C193.845 241.596 194.026 241.644 194.22 241.644C194.435 241.644 194.615 241.594 194.762 241.495C194.909 241.396 195.028 241.269 195.12 241.114L195.584 241.352C195.521 241.499 195.421 241.634 195.286 241.757C195.155 241.876 194.998 241.971 194.816 242.043C194.637 242.114 194.437 242.15 194.214 242.15ZM196.396 242.078V238.869H196.937V239.458L196.878 239.375C196.953 239.192 197.068 239.057 197.223 238.97C197.378 238.879 197.567 238.833 197.789 238.833H197.986V239.357H197.706C197.479 239.357 197.297 239.428 197.158 239.571C197.019 239.71 196.949 239.909 196.949 240.167V242.078H196.396ZM199.507 242.078V237.57H200.061V239.494L199.96 239.44C200.039 239.238 200.166 239.081 200.341 238.97C200.519 238.855 200.728 238.797 200.966 238.797C201.196 238.797 201.401 238.849 201.579 238.952C201.762 239.055 201.905 239.198 202.008 239.381C202.115 239.563 202.169 239.77 202.169 240V242.078H201.609V240.179C201.609 240 201.575 239.849 201.508 239.726C201.444 239.603 201.355 239.508 201.24 239.44C201.125 239.369 200.992 239.333 200.841 239.333C200.694 239.333 200.561 239.369 200.442 239.44C200.323 239.508 200.229 239.605 200.162 239.732C200.094 239.855 200.061 240.004 200.061 240.179V242.078H199.507ZM204.438 242.15C204.129 242.15 203.853 242.077 203.611 241.93C203.368 241.783 203.178 241.582 203.039 241.328C202.9 241.07 202.83 240.782 202.83 240.465C202.83 240.143 202.898 239.857 203.033 239.607C203.172 239.357 203.358 239.16 203.593 239.017C203.831 238.871 204.097 238.797 204.391 238.797C204.629 238.797 204.839 238.841 205.022 238.928C205.209 239.012 205.365 239.127 205.492 239.274C205.623 239.416 205.723 239.581 205.79 239.768C205.862 239.95 205.897 240.141 205.897 240.34C205.897 240.383 205.893 240.433 205.885 240.488C205.881 240.54 205.876 240.59 205.868 240.637H203.235V240.161H205.546L205.284 240.375C205.32 240.169 205.3 239.984 205.224 239.821C205.149 239.659 205.038 239.53 204.891 239.434C204.744 239.339 204.577 239.291 204.391 239.291C204.204 239.291 204.033 239.339 203.879 239.434C203.724 239.53 203.603 239.667 203.515 239.845C203.432 240.02 203.398 240.228 203.414 240.471C203.398 240.705 203.434 240.911 203.521 241.09C203.613 241.265 203.74 241.402 203.902 241.501C204.069 241.596 204.25 241.644 204.444 241.644C204.659 241.644 204.839 241.594 204.986 241.495C205.133 241.396 205.252 241.269 205.344 241.114L205.808 241.352C205.745 241.499 205.645 241.634 205.51 241.757C205.379 241.876 205.222 241.971 205.04 242.043C204.861 242.114 204.661 242.15 204.438 242.15ZM206.619 242.078V238.869H207.161V239.458L207.102 239.375C207.177 239.192 207.292 239.057 207.447 238.97C207.602 238.879 207.791 238.833 208.013 238.833H208.21V239.357H207.93C207.703 239.357 207.521 239.428 207.382 239.571C207.243 239.71 207.173 239.909 207.173 240.167V242.078H206.619ZM210.178 242.15C209.869 242.15 209.593 242.077 209.351 241.93C209.108 241.783 208.918 241.582 208.779 241.328C208.64 241.07 208.57 240.782 208.57 240.465C208.57 240.143 208.638 239.857 208.773 239.607C208.912 239.357 209.099 239.16 209.333 239.017C209.571 238.871 209.837 238.797 210.131 238.797C210.369 238.797 210.579 238.841 210.762 238.928C210.949 239.012 211.105 239.127 211.232 239.274C211.363 239.416 211.463 239.581 211.53 239.768C211.602 239.95 211.637 240.141 211.637 240.34C211.637 240.383 211.633 240.433 211.626 240.488C211.622 240.54 211.616 240.59 211.608 240.637H208.975V240.161H211.286L211.024 240.375C211.06 240.169 211.04 239.984 210.964 239.821C210.889 239.659 210.778 239.53 210.631 239.434C210.484 239.339 210.317 239.291 210.131 239.291C209.944 239.291 209.773 239.339 209.619 239.434C209.464 239.53 209.343 239.667 209.255 239.845C209.172 240.02 209.138 240.228 209.154 240.471C209.138 240.705 209.174 240.911 209.261 241.09C209.353 241.265 209.48 241.402 209.642 241.501C209.809 241.596 209.99 241.644 210.184 241.644C210.399 241.644 210.579 241.594 210.726 241.495C210.873 241.396 210.992 241.269 211.084 241.114L211.548 241.352C211.485 241.499 211.385 241.634 211.25 241.757C211.119 241.876 210.962 241.971 210.78 242.043C210.601 242.114 210.401 242.15 210.178 242.15ZM212.586 242.078V241.364H213.164V242.078H212.586ZM214.476 242.078V241.364H215.054V242.078H214.476ZM216.366 242.078V241.364H216.944V242.078H216.366Z" fill="#B4B4B4"/>
<g clip-path="url(#clip0_57_417)">
<path d="M143.193 176.118H146.191C146.299 176.118 146.386 176.031 146.386 175.923V174.53C146.386 174.422 146.299 174.335 146.191 174.335H143.072C142.965 174.335 142.877 174.422 142.877 174.53V175.802C142.877 175.977 142.736 176.118 142.562 176.118H141.311C141.191 176.118 141.094 176.213 141.094 176.33V177.655C141.094 177.773 141.191 177.868 141.311 177.868H142.571C142.741 177.873 142.877 178.012 142.877 178.182V179.334C142.877 179.509 142.736 179.65 142.562 179.65H141.311C141.191 179.65 141.094 179.745 141.094 179.862V181.187C141.094 181.305 141.191 181.399 141.311 181.399H142.661C142.781 181.399 142.877 181.305 142.877 181.187V179.965C142.877 179.793 143.015 179.655 143.184 179.65H146.191C146.299 179.65 146.386 179.563 146.386 179.455V178.062C146.386 177.955 146.299 177.868 146.191 177.868H143.184C143.184 177.868 143.19 177.867 143.193 177.867C143.018 177.867 142.877 177.725 142.877 177.551V176.433C142.877 176.258 143.019 176.117 143.193 176.117V176.118Z" fill="#8B5CF6"/>
<path d="M148.267 174.432H152.239V175.103H150.622V179.821H149.891V175.103H148.267V174.432Z" fill="#8B5CF6"/>
<path d="M152.218 180.88H152.688C153.023 180.88 153.291 180.828 153.463 180.366L153.59 180.016L152.121 176.177H152.859L153.917 179.114L154.998 176.177H155.72L153.998 180.642C153.753 181.268 153.387 181.529 152.828 181.529C152.597 181.529 152.403 181.499 152.217 181.455V180.881L152.218 180.88Z" fill="#8B5CF6"/>
<path d="M156.28 176.176H156.914L156.966 176.833C157.212 176.333 157.704 176.072 158.286 176.072C159.329 176.072 159.977 176.855 159.977 177.973C159.977 179.09 159.366 179.918 158.286 179.918C157.704 179.918 157.22 179.672 156.981 179.225V181.454H156.28V176.176ZM158.135 179.285C158.851 179.285 159.276 178.749 159.276 178.003C159.276 177.257 158.851 176.714 158.135 176.714C157.42 176.714 156.988 177.243 156.988 178.003C156.988 178.762 157.42 179.285 158.135 179.285Z" fill="#8B5CF6"/>
<path d="M160.514 178.003C160.514 176.862 161.236 176.072 162.295 176.072C163.354 176.072 164.009 176.788 164.009 177.868V178.13L161.192 178.137C161.245 178.905 161.647 179.33 162.34 179.33C162.884 179.33 163.242 179.106 163.361 178.689H164.017C163.839 179.472 163.227 179.912 162.325 179.912C161.252 179.912 160.515 179.137 160.515 178.004L160.514 178.003ZM161.207 177.667H163.309C163.309 177.064 162.914 176.661 162.295 176.661C161.676 176.661 161.297 177.027 161.207 177.667Z" fill="#8B5CF6"/>
<path d="M167.2 179.821V176.765H165.642V179.821H164.941V176.765H164.404V176.176H164.941V175.595C164.941 174.701 165.417 174.335 166.051 174.335C166.186 174.335 166.342 174.343 166.483 174.365V174.969H166.17C165.745 174.969 165.641 175.2 165.641 175.595V176.176H167.199V174.335H167.892V179.821H167.199H167.2Z" fill="#8B5CF6"/>
<path d="M170.583 176.08C171.672 176.08 172.477 176.87 172.477 177.996C172.477 179.122 171.672 179.912 170.583 179.912C169.495 179.912 168.683 179.122 168.683 177.996C168.683 176.87 169.487 176.08 170.583 176.08ZM170.583 179.285C171.284 179.285 171.776 178.755 171.776 177.996C171.776 177.236 171.283 176.707 170.583 176.707C169.883 176.707 169.391 177.236 169.391 177.996C169.391 178.755 169.875 179.285 170.583 179.285Z" fill="#8B5CF6"/>
<path d="M172.678 176.177H173.4L174.004 178.07C174.086 178.339 174.161 178.615 174.227 178.935C174.287 178.615 174.384 178.309 174.466 178.07L175.078 176.177H175.793L176.397 178.07C176.456 178.249 176.575 178.674 176.636 178.935C176.695 178.645 176.762 178.391 176.867 178.07L177.478 176.177H178.208L176.963 179.822H176.3L175.666 177.869C175.547 177.503 175.472 177.22 175.435 177.019C175.398 177.198 175.331 177.437 175.197 177.876L174.563 179.822H173.87L172.677 176.177H172.678Z" fill="#8B5CF6"/>
<path d="M178.216 179.821L180.184 174.432H180.996L182.972 179.821H182.204L181.72 178.479H179.454L178.977 179.821H178.216ZM179.677 177.846H181.503L180.675 175.594C180.638 175.49 180.601 175.363 180.586 175.281C180.571 175.355 180.534 175.482 180.496 175.594L179.676 177.846H179.677Z" fill="#8B5CF6"/>
<path d="M184.418 179.821H183.687V174.432H184.418V179.821Z" fill="#8B5CF6"/>
</g>
<rect x="77.7124" y="0.712389" width="137.77" height="41.6726" rx="7.83628" fill="#8B5CF6"/>
<rect x="77.7124" y="0.712389" width="137.77" height="41.6726" rx="7.83628" stroke="#8B5CF6" stroke-width="1.42478"/>
<path d="M95.5349 28.5487V15.8112H97.5524V26.7535H103.058V28.5487H95.5349ZM108.564 28.7539C107.641 28.7539 106.82 28.543 106.102 28.1213C105.395 27.6881 104.843 27.1068 104.444 26.3773C104.045 25.6365 103.845 24.8101 103.845 23.8982C103.845 22.9636 104.045 22.1372 104.444 21.4191C104.854 20.701 105.401 20.1368 106.085 19.7265C106.769 19.3047 107.544 19.0939 108.41 19.0939C109.106 19.0939 109.727 19.2136 110.274 19.4529C110.821 19.6923 111.283 20.0228 111.659 20.4446C112.035 20.8549 112.32 21.3279 112.514 21.8636C112.719 22.3994 112.821 22.9693 112.821 23.5734C112.821 23.7216 112.816 23.8754 112.804 24.035C112.793 24.1946 112.77 24.3428 112.736 24.4795H105.367V22.9408H111.642L110.718 23.6418C110.832 23.0833 110.792 22.5874 110.599 22.1543C110.416 21.7098 110.131 21.3621 109.744 21.1114C109.368 20.8492 108.923 20.7181 108.41 20.7181C107.897 20.7181 107.441 20.8492 107.042 21.1114C106.644 21.3621 106.336 21.7269 106.119 22.2056C105.903 22.6729 105.817 23.2428 105.863 23.9153C105.806 24.5422 105.891 25.0893 106.119 25.5567C106.359 26.024 106.689 26.3887 107.111 26.6509C107.544 26.9131 108.034 27.0441 108.581 27.0441C109.14 27.0441 109.613 26.9188 110 26.668C110.399 26.4172 110.713 26.0924 110.941 25.6934L112.514 26.4628C112.331 26.896 112.046 27.2892 111.659 27.6425C111.283 27.9845 110.827 28.2581 110.291 28.4632C109.767 28.657 109.191 28.7539 108.564 28.7539ZM117.051 28.7539C116.424 28.7539 115.871 28.6456 115.393 28.429C114.925 28.2011 114.561 27.8933 114.299 27.5058C114.036 27.1068 113.905 26.6395 113.905 26.1038C113.905 25.6023 114.014 25.152 114.23 24.7531C114.458 24.3542 114.806 24.0179 115.273 23.7444C115.74 23.4708 116.327 23.277 117.034 23.163L120.248 22.633V24.1547L117.41 24.6505C116.897 24.7417 116.521 24.907 116.282 25.1463C116.042 25.3743 115.923 25.6707 115.923 26.0354C115.923 26.3887 116.054 26.6794 116.316 26.9074C116.59 27.1239 116.937 27.2322 117.359 27.2322C117.883 27.2322 118.339 27.1182 118.727 26.8903C119.126 26.6623 119.433 26.3602 119.65 25.9841C119.867 25.5966 119.975 25.1691 119.975 24.7018V22.3253C119.975 21.8693 119.804 21.4989 119.462 21.2139C119.131 20.9176 118.687 20.7694 118.128 20.7694C117.615 20.7694 117.165 20.9062 116.778 21.1798C116.402 21.4419 116.122 21.7839 115.94 22.2056L114.333 21.402C114.504 20.9461 114.783 20.5471 115.17 20.2052C115.558 19.8519 116.008 19.5783 116.521 19.3845C117.046 19.1908 117.598 19.0939 118.18 19.0939C118.909 19.0939 119.553 19.2307 120.112 19.5042C120.682 19.7778 121.12 20.1596 121.428 20.6497C121.747 21.1285 121.907 21.687 121.907 22.3253V28.5487H120.06V26.8732L120.454 26.9245C120.237 27.3006 119.958 27.6254 119.616 27.899C119.285 28.1726 118.903 28.3834 118.47 28.5316C118.049 28.6798 117.576 28.7539 117.051 28.7539ZM128.098 28.7539C127.209 28.7539 126.411 28.543 125.705 28.1213C125.009 27.6881 124.456 27.1068 124.046 26.3773C123.647 25.6479 123.448 24.8272 123.448 23.9153C123.448 23.0035 123.653 22.1828 124.063 21.4533C124.474 20.7238 125.026 20.1482 125.722 19.7265C126.417 19.3047 127.203 19.0939 128.081 19.0939C128.822 19.0939 129.477 19.2421 130.047 19.5384C130.617 19.8348 131.067 20.2451 131.398 20.7694L131.107 21.2139V15.606H133.022V28.5487H131.193V26.668L131.415 27.027C131.096 27.5856 130.64 28.013 130.047 28.3093C129.455 28.6057 128.805 28.7539 128.098 28.7539ZM128.286 26.9587C128.822 26.9587 129.301 26.8276 129.722 26.5654C130.156 26.3033 130.492 25.9442 130.731 25.4883C130.982 25.021 131.107 24.4966 131.107 23.9153C131.107 23.334 130.982 22.8154 130.731 22.3595C130.492 21.9035 130.156 21.5445 129.722 21.2823C129.301 21.0202 128.822 20.8891 128.286 20.8891C127.751 20.8891 127.266 21.0202 126.833 21.2823C126.4 21.5445 126.064 21.9035 125.824 22.3595C125.585 22.8154 125.465 23.334 125.465 23.9153C125.465 24.4966 125.585 25.021 125.824 25.4883C126.064 25.9442 126.394 26.3033 126.816 26.5654C127.249 26.8276 127.739 26.9587 128.286 26.9587ZM137.583 28.5487V19.299H139.429V21.2994L139.19 20.9917C139.383 20.3648 139.737 19.8918 140.25 19.5726C140.763 19.2534 141.35 19.0939 142.011 19.0939C142.752 19.0939 143.407 19.2933 143.977 19.6923C144.558 20.0798 144.946 20.5984 145.14 21.2481L144.592 21.2994C144.866 20.5585 145.282 20.0057 145.841 19.641C146.411 19.2762 147.06 19.0939 147.79 19.0939C148.428 19.0939 149.004 19.2421 149.517 19.5384C150.041 19.8348 150.457 20.2451 150.765 20.7694C151.072 21.2937 151.226 21.8921 151.226 22.5646V28.5487H149.294V23.0947C149.294 22.6273 149.209 22.2341 149.038 21.9149C148.878 21.5844 148.65 21.3336 148.354 21.1627C148.069 20.9803 147.733 20.8891 147.345 20.8891C146.958 20.8891 146.616 20.9803 146.319 21.1627C146.023 21.3336 145.789 21.5844 145.618 21.9149C145.447 22.2455 145.362 22.6387 145.362 23.0947V28.5487H143.447V23.0947C143.447 22.6273 143.361 22.2341 143.191 21.9149C143.031 21.5844 142.803 21.3336 142.507 21.1627C142.222 20.9803 141.88 20.8891 141.481 20.8891C141.093 20.8891 140.751 20.9803 140.455 21.1627C140.159 21.3336 139.925 21.5844 139.754 21.9149C139.594 22.2455 139.515 22.6387 139.515 23.0947V28.5487H137.583ZM155.722 28.7539C155.095 28.7539 154.542 28.6456 154.063 28.429C153.596 28.2011 153.231 27.8933 152.969 27.5058C152.707 27.1068 152.576 26.6395 152.576 26.1038C152.576 25.6023 152.684 25.152 152.901 24.7531C153.129 24.3542 153.476 24.0179 153.944 23.7444C154.411 23.4708 154.998 23.277 155.705 23.163L158.919 22.633V24.1547L156.081 24.6505C155.568 24.7417 155.192 24.907 154.953 25.1463C154.713 25.3743 154.594 25.6707 154.594 26.0354C154.594 26.3887 154.725 26.6794 154.987 26.9074C155.26 27.1239 155.608 27.2322 156.03 27.2322C156.554 27.2322 157.01 27.1182 157.397 26.8903C157.796 26.6623 158.104 26.3602 158.321 25.9841C158.537 25.5966 158.646 25.1691 158.646 24.7018V22.3253C158.646 21.8693 158.475 21.4989 158.133 21.2139C157.802 20.9176 157.358 20.7694 156.799 20.7694C156.286 20.7694 155.836 20.9062 155.448 21.1798C155.072 21.4419 154.793 21.7839 154.611 22.2056L153.003 21.402C153.174 20.9461 153.454 20.5471 153.841 20.2052C154.229 19.8519 154.679 19.5783 155.192 19.3845C155.716 19.1908 156.269 19.0939 156.85 19.0939C157.58 19.0939 158.224 19.2307 158.782 19.5042C159.352 19.7778 159.791 20.1596 160.099 20.6497C160.418 21.1285 160.578 21.687 160.578 22.3253V28.5487H158.731V26.8732L159.124 26.9245C158.908 27.3006 158.628 27.6254 158.287 27.899C157.956 28.1726 157.574 28.3834 157.141 28.5316C156.719 28.6798 156.246 28.7539 155.722 28.7539ZM166.957 32.3101C166.285 32.3101 165.663 32.2018 165.093 31.9853C164.523 31.7687 164.033 31.4667 163.623 31.0791C163.213 30.703 162.905 30.2584 162.7 29.7455L164.478 29.0103C164.637 29.4435 164.928 29.8025 165.35 30.0875C165.783 30.3724 166.313 30.5149 166.94 30.5149C167.43 30.5149 167.869 30.418 168.256 30.2242C168.644 30.0419 168.952 29.7683 169.18 29.4036C169.408 29.0502 169.522 28.6228 169.522 28.1213V26.0354L169.864 26.4286C169.544 27.0213 169.1 27.4716 168.53 27.7793C167.971 28.0871 167.339 28.241 166.632 28.241C165.777 28.241 165.008 28.0415 164.324 27.6425C163.64 27.2436 163.099 26.6965 162.7 26.0012C162.312 25.3059 162.118 24.5251 162.118 23.6589C162.118 22.7812 162.312 22.0004 162.7 21.3165C163.099 20.6326 163.634 20.0912 164.307 19.6923C164.979 19.2933 165.749 19.0939 166.615 19.0939C167.322 19.0939 167.949 19.2478 168.496 19.5555C169.054 19.8519 169.51 20.285 169.864 20.8549L169.607 21.3336V19.299H171.437V28.1213C171.437 28.9191 171.243 29.6315 170.855 30.2584C170.479 30.8967 169.955 31.3983 169.282 31.763C168.61 32.1278 167.835 32.3101 166.957 32.3101ZM166.854 26.4457C167.367 26.4457 167.823 26.3261 168.222 26.0867C168.621 25.8359 168.935 25.5054 169.163 25.095C169.402 24.6733 169.522 24.2003 169.522 23.676C169.522 23.1516 169.402 22.6786 169.163 22.2569C168.923 21.8351 168.604 21.5046 168.205 21.2652C167.806 21.0145 167.356 20.8891 166.854 20.8891C166.33 20.8891 165.863 21.0145 165.452 21.2652C165.042 21.5046 164.717 21.8351 164.478 22.2569C164.25 22.6672 164.136 23.1402 164.136 23.676C164.136 24.1889 164.25 24.6562 164.478 25.0779C164.717 25.4997 165.042 25.8359 165.452 26.0867C165.863 26.3261 166.33 26.4457 166.854 26.4457ZM173.356 28.5487V19.299H175.203V21.1114L174.98 20.872C175.208 20.2907 175.573 19.8519 176.075 19.5555C176.576 19.2478 177.157 19.0939 177.819 19.0939C178.502 19.0939 179.107 19.2421 179.631 19.5384C180.155 19.8348 180.565 20.2451 180.862 20.7694C181.158 21.2937 181.306 21.8978 181.306 22.5817V28.5487H179.391V23.0947C179.391 22.6273 179.306 22.2341 179.135 21.9149C178.964 21.5844 178.719 21.3336 178.4 21.1627C178.092 20.9803 177.739 20.8891 177.34 20.8891C176.941 20.8891 176.582 20.9803 176.263 21.1627C175.955 21.3336 175.716 21.5844 175.545 21.9149C175.374 22.2455 175.288 22.6387 175.288 23.0947V28.5487H173.356ZM187.375 28.7539C186.452 28.7539 185.631 28.543 184.913 28.1213C184.206 27.6881 183.653 27.1068 183.254 26.3773C182.855 25.6365 182.656 24.8101 182.656 23.8982C182.656 22.9636 182.855 22.1372 183.254 21.4191C183.665 20.701 184.212 20.1368 184.896 19.7265C185.58 19.3047 186.355 19.0939 187.221 19.0939C187.916 19.0939 188.537 19.2136 189.085 19.4529C189.632 19.6923 190.093 20.0228 190.469 20.4446C190.846 20.8549 191.131 21.3279 191.324 21.8636C191.53 22.3994 191.632 22.9693 191.632 23.5734C191.632 23.7216 191.626 23.8754 191.615 24.035C191.604 24.1946 191.581 24.3428 191.547 24.4795H184.178V22.9408H190.452L189.529 23.6418C189.643 23.0833 189.603 22.5874 189.409 22.1543C189.227 21.7098 188.942 21.3621 188.555 21.1114C188.178 20.8492 187.734 20.7181 187.221 20.7181C186.708 20.7181 186.252 20.8492 185.853 21.1114C185.454 21.3621 185.146 21.7269 184.93 22.2056C184.713 22.6729 184.628 23.2428 184.673 23.9153C184.616 24.5422 184.702 25.0893 184.93 25.5567C185.169 26.024 185.5 26.3887 185.922 26.6509C186.355 26.9131 186.845 27.0441 187.392 27.0441C187.95 27.0441 188.423 26.9188 188.811 26.668C189.21 26.4172 189.523 26.0924 189.751 25.6934L191.324 26.4628C191.142 26.896 190.857 27.2892 190.469 27.6425C190.093 27.9845 189.637 28.2581 189.102 28.4632C188.577 28.657 188.002 28.7539 187.375 28.7539ZM197.176 28.6513C196.208 28.6513 195.455 28.3777 194.92 27.8306C194.384 27.2835 194.116 26.5141 194.116 25.5225V21.043H192.492V19.299H192.748C193.181 19.299 193.518 19.1737 193.757 18.9229C193.996 18.6721 194.116 18.3302 194.116 17.8971V17.179H196.048V19.299H198.151V21.043H196.048V25.437C196.048 25.7561 196.099 26.0297 196.202 26.2577C196.304 26.4742 196.47 26.6452 196.698 26.7706C196.926 26.8846 197.222 26.9416 197.587 26.9416C197.678 26.9416 197.781 26.9359 197.895 26.9245C198.009 26.9131 198.117 26.9017 198.219 26.8903V28.5487C198.06 28.5715 197.883 28.5943 197.689 28.6171C197.496 28.6399 197.325 28.6513 197.176 28.6513Z" fill="white"/>
<defs>
<clipPath id="clip0_57_417">
<rect width="43.3234" height="7.19311" fill="white" transform="translate(141.094 174.335)"/>
</clipPath>
</defs>
</svg>
