<?xml version="1.0" encoding="UTF-8"?>
<svg id="Capa_1" data-name="Capa 1" xmlns="http://www.w3.org/2000/svg" viewBox="0 0 272.93 364.42">
  <defs>
    <style>
      .cls-1 {
        fill: #010101;
      }
    </style>
  </defs>
  <path class="cls-1" d="M108.24,91.97h154.64c5.56,0,10.06-4.5,10.06-10.06V10.06c0-5.56-4.5-10.06-10.06-10.06H102.03c-5.56,0-10.06,4.5-10.06,10.06V75.7c0,9.01-7.31,16.27-16.27,16.27H11.16c-6.16,0-11.16,4.9-11.16,10.95v68.37c0,6.05,4.99,10.95,11.16,10.95H76.18c8.78,.26,15.79,7.42,15.79,16.22v59.43c0,9.01-7.31,16.27-16.27,16.27H11.16c-6.16,0-11.16,4.9-11.16,10.95v68.37c0,6.05,4.99,10.95,11.16,10.95H80.81c6.16,0,11.15-4.9,11.15-10.95v-63.05c0-8.85,7.05-15.96,15.79-16.22h155.12c5.56,0,10.06-4.5,10.06-10.06v-71.85c0-5.56-4.5-10.06-10.06-10.06H107.76c.16,0,.32-.05,.48-.05-9.01,0-16.27-7.31-16.27-16.27v-57.68c0-9.01,7.31-16.27,16.27-16.27Z"/>
</svg>