<?xml version="1.0" encoding="UTF-8"?>
<svg id="Capa_1" data-name="Capa 1"
    xmlns="http://www.w3.org/2000/svg" viewBox="0 0 512 512">
    <defs>
        <style>.cls-1{fill:#63f;}.cls-2{fill:#cf6;}</style>
    </defs>
    <title>logo_square_color</title>
    <rect class="cls-1" width="512" height="512"/>
    <path class="cls-2" d="M224.11,155H397.16a11.28,11.28,0,0,0,11.31-11.31V63.31A11.28,11.28,0,0,0,397.16,52h-180A11.25,11.25,0,0,0,206,63.31v73.42A18.25,18.25,0,0,1,187.73,155H115.54A12.38,12.38,0,0,0,103,167.18v76.56a12.31,12.31,0,0,0,12.54,12.2h72.75A18.2,18.2,0,0,1,206,274.08v66.49a18.25,18.25,0,0,1-18.25,18.24H115.54A12.4,12.4,0,0,0,103,371.12v76.57A12.47,12.47,0,0,0,115.54,460h77.9A12.4,12.4,0,0,0,206,447.69V377.17A18.11,18.11,0,0,1,223.67,359h173.6a11.28,11.28,0,0,0,11.31-11.31V267.25a11.28,11.28,0,0,0-11.31-11.31H223.67c.22,0,.33-.11.55-.11A18.24,18.24,0,0,1,206,237.59V173a18.1,18.1,0,0,1,18.13-18Z"/>
</svg>