<?xml version="1.0" standalone="no"?>
<!DOCTYPE svg PUBLIC "-//W3C//DTD SVG 20010904//EN"
 "http://www.w3.org/TR/2001/REC-SVG-20010904/DTD/svg10.dtd">
<svg version="1.0" xmlns="http://www.w3.org/2000/svg"
 width="728.000000pt" height="728.000000pt" viewBox="0 0 728.000000 728.000000"
 preserveAspectRatio="xMidYMid meet">
<metadata>
Created by potrace 1.14, written by Peter Selinger 2001-2017
</metadata>
<g transform="translate(0.000000,728.000000) scale(0.100000,-0.100000)"
fill="#000000" stroke="none">
<path d="M2890 7269 c-44 -18 -90 -59 -112 -102 -21 -42 -21 -45 -23 -747 -1
-388 -5 -718 -10 -735 -14 -53 -45 -105 -84 -143 -52 -50 -59 -55 -111 -77
-43 -18 -82 -19 -735 -21 -379 -1 -704 -5 -722 -8 -71 -14 -137 -73 -161 -145
-9 -26 -12 -228 -12 -759 1 -700 1 -725 20 -762 23 -46 60 -84 99 -105 40 -20
111 -35 111 -23 0 5 5 6 11 3 5 -4 49 -6 97 -5 85 1 113 1 180 -3 17 -1 32 1
32 6 0 4 5 5 10 2 6 -4 95 -6 198 -5 103 0 194 1 202 1 8 0 34 -2 58 -4 23 -2
42 0 42 3 0 4 10 6 23 3 46 -7 267 -8 267 0 0 5 4 6 9 3 4 -3 62 -7 127 -10
107 -3 125 -7 169 -31 62 -34 89 -58 127 -113 53 -77 54 -92 53 -797 l-2 -650
-26 -51 c-34 -68 -110 -144 -158 -159 -13 -4 -30 -13 -38 -19 -10 -8 -209 -11
-705 -12 -380 -1 -707 -4 -727 -7 -69 -12 -125 -55 -158 -122 -20 -39 -20 -59
-18 -780 2 -667 4 -743 19 -770 26 -48 52 -74 102 -100 l47 -25 747 1 c730 0
748 1 789 20 52 25 85 58 109 107 18 35 19 79 20 707 0 369 4 688 8 710 23
119 134 229 254 251 20 4 750 8 1622 8 1740 1 1606 -4 1670 58 58 56 55 7 58
845 l3 772 -22 46 c-14 30 -37 57 -67 77 -41 28 -55 32 -131 36 -47 2 -93 3
-101 3 -41 -2 -186 -2 -195 -1 -6 1 -14 2 -20 1 -26 -5 -197 -1 -205 4 -6 3
-10 2 -10 -2 0 -8 -107 -7 -142 1 -10 2 -18 1 -18 -2 0 -6 -67 -6 -165 -1 -18
1 -151 0 -200 0 -87 -2 -192 -2 -200 -1 -6 1 -14 2 -20 1 -26 -5 -197 -1 -205
4 -6 3 -10 2 -10 -2 0 -8 -107 -7 -142 1 -10 2 -18 1 -18 -2 0 -6 -67 -6 -165
-1 -18 1 -151 0 -200 0 -87 -2 -192 -2 -200 -1 -6 1 -14 2 -20 1 -12 -2 -260
-2 -272 0 -4 1 -12 1 -18 0 -27 -5 -287 -1 -296 4 -5 4 -9 2 -9 -2 0 -5 -26
-7 -57 -6 -32 1 -105 4 -163 6 -81 3 -116 9 -150 26 -92 43 -162 129 -183 223
-9 38 -12 222 -10 663 1 336 4 617 6 625 2 8 8 30 12 48 4 17 11 32 16 32 5 0
9 6 9 14 0 21 69 95 114 121 86 49 32 48 1721 49 1497 1 1592 2 1622 19 41 22
70 52 94 99 18 36 19 68 19 796 0 817 1 795 -52 853 -12 14 -36 34 -53 45 -29
19 -67 19 -1690 21 -1079 1 -1669 -2 -1685 -8z"/>
</g>
</svg>
