<svg width="1403" height="1006" viewBox="0 0 1403 1006" fill="none" xmlns="http://www.w3.org/2000/svg">
<rect width="1403" height="1005.03" rx="57.3341" fill="white"/>
<path d="M0 50.5889C0 22.6494 22.6494 0 50.5889 0H1352.41C1380.35 0 1403 22.6494 1403 50.5889V78H0V50.5889Z" fill="#8B5CF6" fill-opacity="0.5"/>
<path d="M39.0477 41.6012H51.4679C51.9144 41.6012 52.2751 41.2166 52.2751 40.7406V34.5865C52.2751 34.1105 51.9144 33.7258 51.4679 33.7258H38.5476C38.1011 33.7258 37.7403 34.1105 37.7403 34.5865V40.2074C37.7403 40.9805 37.1545 41.6012 36.433 41.6012H31.2499C30.7533 41.6012 30.3533 42.0201 30.3533 42.538V48.3913C30.3533 48.9092 30.7533 49.3281 31.2499 49.3281H36.4722C37.176 49.3509 37.7403 49.9641 37.7403 50.7181V55.8059C37.7403 56.5789 37.1545 57.1997 36.433 57.1997H31.2499C30.7533 57.1997 30.3533 57.6186 30.3533 58.1365V63.9897C30.3533 64.5077 30.7533 64.9266 31.2499 64.9266H36.8437C37.3403 64.9266 37.7403 64.5077 37.7403 63.9897V58.5897C37.7403 57.8318 38.3083 57.2225 39.0084 57.1997H51.4679C51.9144 57.1997 52.2751 56.8151 52.2751 56.339V50.1888C52.2751 49.7127 51.9144 49.3281 51.4679 49.3281H39.0084C39.0084 49.3281 39.0334 49.3243 39.0477 49.3243C38.3226 49.3243 37.7403 48.6997 37.7403 47.9305V42.9912C37.7403 42.2182 38.3262 41.5974 39.0477 41.5974V41.6012Z" fill="#2E1065"/>
<path d="M39.0477 41.6012H51.4679C51.9144 41.6012 52.2751 41.2166 52.2751 40.7406V34.5865C52.2751 34.1105 51.9144 33.7258 51.4679 33.7258H38.5476C38.1011 33.7258 37.7403 34.1105 37.7403 34.5865V40.2074C37.7403 40.9805 37.1545 41.6012 36.433 41.6012H31.2499C30.7533 41.6012 30.3533 42.0201 30.3533 42.538V48.3913C30.3533 48.9092 30.7533 49.3281 31.2499 49.3281H36.4722C37.176 49.3509 37.7403 49.9641 37.7403 50.7181V55.8059C37.7403 56.5789 37.1545 57.1997 36.433 57.1997H31.2499C30.7533 57.1997 30.3533 57.6186 30.3533 58.1365V63.9897C30.3533 64.5077 30.7533 64.9266 31.2499 64.9266H36.8437C37.3403 64.9266 37.7403 64.5077 37.7403 63.9897V58.5897C37.7403 57.8318 38.3083 57.2225 39.0084 57.1997H51.4679C51.9144 57.1997 52.2751 56.8151 52.2751 56.339V50.1888C52.2751 49.7127 51.9144 49.3281 51.4679 49.3281H39.0084C39.0084 49.3281 39.0334 49.3243 39.0477 49.3243C38.3226 49.3243 37.7403 48.6997 37.7403 47.9305V42.9912C37.7403 42.2182 38.3262 41.5974 39.0477 41.5974V41.6012Z" fill="black" fill-opacity="0.2"/>
<ellipse cx="1343.98" cy="48.9021" rx="15.1767" ry="15.8994" fill="#250D51"/>
<rect x="731.854" y="146.708" width="57.7706" height="57.7706" rx="28.8853" fill="#C5ADFB" fill-opacity="0.5"/>
<rect x="818.509" y="161.15" width="129.984" height="28.8853" rx="7.22132" fill="#C5ADFB" fill-opacity="0.5"/>
<rect x="731.854" y="233.364" width="218.445" height="14.4426" rx="7.22132" fill="#EBE7FF"/>
<rect x="731.854" y="262.249" width="243.72" height="14.4426" rx="7.22132" fill="#EBE7FF"/>
<rect x="731.854" y="291.134" width="193.17" height="14.4426" rx="7.22132" fill="#EBE7FF"/>
<rect x="731.854" y="346.048" width="57.7706" height="57.7706" rx="28.8853" fill="#C5ADFB" fill-opacity="0.5"/>
<rect x="818.509" y="360.491" width="129.984" height="28.8853" rx="7.22132" fill="#C5ADFB" fill-opacity="0.5"/>
<rect x="731.854" y="432.704" width="218.445" height="14.4426" rx="7.22132" fill="#EBE7FF"/>
<rect x="731.854" y="461.589" width="243.72" height="14.4426" rx="7.22132" fill="#EBE7FF"/>
<rect x="731.854" y="490.475" width="193.17" height="14.4426" rx="7.22132" fill="#EBE7FF"/>
<rect x="731.854" y="545.389" width="57.7706" height="57.7706" rx="28.8853" fill="#C5ADFB" fill-opacity="0.5"/>
<rect x="818.509" y="559.831" width="129.984" height="28.8853" rx="7.22132" fill="#C5ADFB" fill-opacity="0.5"/>
<rect x="731.854" y="632.044" width="218.445" height="14.4426" rx="7.22132" fill="#EBE7FF"/>
<rect x="731.854" y="660.93" width="243.72" height="14.4426" rx="7.22132" fill="#EBE7FF"/>
<rect x="731.854" y="689.815" width="193.17" height="14.4426" rx="7.22132" fill="#EBE7FF"/>
<rect x="731.854" y="744.729" width="57.7706" height="57.7706" rx="28.8853" fill="#C5ADFB" fill-opacity="0.5"/>
<rect x="818.509" y="759.172" width="129.984" height="28.8853" rx="7.22132" fill="#C5ADFB" fill-opacity="0.5"/>
<rect x="731.854" y="831.385" width="218.445" height="14.4426" rx="7.22132" fill="#EBE7FF"/>
<rect x="731.854" y="860.271" width="243.72" height="14.4426" rx="7.22132" fill="#EBE7FF"/>
<rect x="731.854" y="889.156" width="193.17" height="14.4426" rx="7.22132" fill="#EBE7FF"/>
<rect x="1075.86" y="146.708" width="57.7706" height="57.7706" rx="28.8853" fill="#C5ADFB" fill-opacity="0.5"/>
<rect x="1162.51" y="161.15" width="129.984" height="28.8853" rx="7.22132" fill="#C5ADFB" fill-opacity="0.5"/>
<rect x="1075.86" y="233.364" width="218.445" height="14.4426" rx="7.22132" fill="#EBE7FF"/>
<rect x="1075.86" y="262.249" width="243.72" height="14.4426" rx="7.22132" fill="#EBE7FF"/>
<rect x="1075.86" y="291.134" width="193.17" height="14.4426" rx="7.22132" fill="#EBE7FF"/>
<rect x="1075.86" y="346.048" width="57.7706" height="57.7706" rx="28.8853" fill="#C5ADFB" fill-opacity="0.5"/>
<rect x="1162.51" y="360.491" width="129.984" height="28.8853" rx="7.22132" fill="#C5ADFB" fill-opacity="0.5"/>
<rect x="1075.86" y="432.704" width="218.445" height="14.4426" rx="7.22132" fill="#EBE7FF"/>
<rect x="1075.86" y="461.589" width="243.72" height="14.4426" rx="7.22132" fill="#EBE7FF"/>
<rect x="1075.86" y="490.475" width="193.17" height="14.4426" rx="7.22132" fill="#EBE7FF"/>
<rect x="1075.86" y="545.389" width="57.7706" height="57.7706" rx="28.8853" fill="#C5ADFB" fill-opacity="0.5"/>
<rect x="1162.51" y="559.831" width="129.984" height="28.8853" rx="7.22132" fill="#C5ADFB" fill-opacity="0.5"/>
<rect x="1075.86" y="632.044" width="218.445" height="14.4426" rx="7.22132" fill="#EBE7FF"/>
<rect x="1075.86" y="660.93" width="243.72" height="14.4426" rx="7.22132" fill="#EBE7FF"/>
<rect x="1075.86" y="689.815" width="193.17" height="14.4426" rx="7.22132" fill="#EBE7FF"/>
<rect x="1075.86" y="744.729" width="57.7706" height="57.7706" rx="28.8853" fill="#C5ADFB" fill-opacity="0.5"/>
<rect x="1162.51" y="759.172" width="129.984" height="28.8853" rx="7.22132" fill="#C5ADFB" fill-opacity="0.5"/>
<rect x="1075.86" y="831.385" width="218.445" height="14.4426" rx="7.22132" fill="#EBE7FF"/>
<rect x="1075.86" y="860.271" width="243.72" height="14.4426" rx="7.22132" fill="#EBE7FF"/>
<rect x="1075.86" y="889.156" width="193.17" height="14.4426" rx="7.22132" fill="#EBE7FF"/>
<rect x="92.3248" y="153.031" width="530.013" height="347.828" rx="10.6857" stroke="#2E1065" stroke-width="2.52945" stroke-dasharray="13.49 13.49"/>
<circle cx="179.839" cy="248.977" r="38.1897" fill="#8B5CF6"/>
<path d="M179.839 234.93V263.023M193.886 248.976L165.792 248.976" stroke="white" stroke-width="2.63377" stroke-linecap="round" stroke-linejoin="round"/>
<rect x="141.649" y="318.71" width="430.006" height="28.6671" rx="7.22132" fill="#C5ADFB" fill-opacity="0.5"/>
<rect x="141.649" y="379.417" width="218.445" height="14.4426" rx="7.22132" fill="#EBE7FF"/>
<rect x="141.649" y="408.302" width="243.72" height="14.4426" rx="7.22132" fill="#EBE7FF"/>
<rect x="141.649" y="437.187" width="193.17" height="14.4426" rx="7.22132" fill="#EBE7FF"/>
<g filter="url(#filter0_d_154_26)">
<rect x="92.7463" y="536.243" width="531.184" height="246.2" rx="16.863" fill="white"/>
</g>
<path d="M91.0601 545.1C91.0601 540.208 95.0255 536.243 99.9171 536.243H139.963V782.442H99.9171C95.0255 782.442 91.0601 778.477 91.0601 773.585V545.1Z" fill="#8B5CF6"/>
<rect x="164.628" y="566.596" width="218.445" height="14.4426" rx="7.22132" fill="#EBE7FF"/>
<rect x="164.628" y="588.992" width="430.006" height="28.6671" rx="7.22132" fill="#C5ADFB" fill-opacity="0.5"/>
<rect x="164.628" y="635.09" width="218.445" height="14.4426" rx="7.22132" fill="#EBE7FF"/>
<rect x="164.628" y="657.486" width="430.006" height="28.6671" rx="7.22132" fill="#C5ADFB" fill-opacity="0.5"/>
<rect x="164.628" y="703.584" width="218.445" height="14.4426" rx="7.22132" fill="#EBE7FF"/>
<rect x="164.628" y="725.98" width="430.006" height="28.6671" rx="7.22132" fill="#C5ADFB" fill-opacity="0.5"/>
<defs>
<filter id="filter0_d_154_26" x="75.8834" y="526.125" width="564.91" height="279.925" filterUnits="userSpaceOnUse" color-interpolation-filters="sRGB">
<feFlood flood-opacity="0" result="BackgroundImageFix"/>
<feColorMatrix in="SourceAlpha" type="matrix" values="0 0 0 0 0 0 0 0 0 0 0 0 0 0 0 0 0 0 127 0" result="hardAlpha"/>
<feOffset dy="6.74519"/>
<feGaussianBlur stdDeviation="8.43149"/>
<feComposite in2="hardAlpha" operator="out"/>
<feColorMatrix type="matrix" values="0 0 0 0 0.282975 0 0 0 0 0.282975 0 0 0 0 0.282975 0 0 0 0.1 0"/>
<feBlend mode="normal" in2="BackgroundImageFix" result="effect1_dropShadow_154_26"/>
<feBlend mode="normal" in="SourceGraphic" in2="effect1_dropShadow_154_26" result="shape"/>
</filter>
</defs>
</svg>
