<svg width="553" height="352" viewBox="0 0 553 352" fill="none" xmlns="http://www.w3.org/2000/svg">
<path d="M0 74.5453C0 69.3922 4.17739 65.2148 9.33045 65.2148H543.67C548.823 65.2148 553 69.3922 553 74.5453V351.215H0V74.5453Z" fill="#F5F3FF"/>
<path d="M0 72.7754C0 68.4811 3.48116 65 7.77538 65H545.054C549.348 65 552.829 68.4812 552.829 72.7754V89.8812H0V72.7754Z" fill="white"/>
<circle cx="27.9913" cy="77.0519" r="4.66523" fill="#EB3E3F"/>
<circle cx="44.3196" cy="77.0519" r="4.66523" fill="#F39429"/>
<circle cx="60.6479" cy="77.0519" r="4.66523" fill="#1AB079"/>
<rect x="101.317" y="0.893564" width="408.166" height="253.279" rx="12.403" fill="white" stroke="#C8C8C8" stroke-width="0.634785"/>
<path d="M139.388 71.167L136.7 60.8959H139.016L141.042 69.4988H140.422L142.559 60.8959H144.765L146.902 69.4988H146.281L148.308 60.8959H150.624L147.936 71.167H145.454L143.303 62.895H144.02L141.87 71.167H139.388ZM151.537 71.167V60.7304H153.605V65.1284L153.357 64.7975C153.532 64.3472 153.812 64.0163 154.198 63.8049C154.593 63.5843 155.053 63.474 155.577 63.474C156.147 63.474 156.643 63.5935 157.066 63.8325C157.498 64.0714 157.833 64.4069 158.072 64.8389C158.311 65.2617 158.431 65.758 158.431 66.3279V71.167H156.363V66.769C156.363 66.4749 156.303 66.2222 156.183 66.0108C156.073 65.7994 155.912 65.6339 155.701 65.5144C155.499 65.3949 155.26 65.3352 154.984 65.3352C154.717 65.3352 154.478 65.3949 154.267 65.5144C154.056 65.6339 153.89 65.7994 153.771 66.0108C153.66 66.2222 153.605 66.4749 153.605 66.769V71.167H151.537ZM162.12 71.3324C161.578 71.3324 161.109 71.2451 160.714 71.0705C160.319 70.8959 160.016 70.6477 159.804 70.326C159.593 69.9951 159.487 69.6045 159.487 69.1541C159.487 68.7313 159.584 68.3591 159.777 68.0374C159.97 67.7065 160.264 67.4308 160.659 67.2102C161.063 66.9896 161.564 66.8334 162.162 66.7415L164.464 66.3692V67.8858L162.534 68.2304C162.24 68.2856 162.015 68.3821 161.858 68.5199C161.702 68.6486 161.624 68.837 161.624 69.0852C161.624 69.315 161.711 69.4942 161.886 69.6229C162.061 69.7516 162.277 69.8159 162.534 69.8159C162.874 69.8159 163.173 69.7424 163.43 69.5953C163.687 69.4482 163.885 69.2506 164.023 69.0025C164.17 68.7451 164.243 68.4648 164.243 68.1615V66.2038C164.243 65.9188 164.129 65.6799 163.899 65.4869C163.678 65.2938 163.375 65.1973 162.989 65.1973C162.621 65.1973 162.295 65.2984 162.01 65.5006C161.734 65.7029 161.532 65.9694 161.403 66.3003L159.749 65.5144C159.896 65.0916 160.13 64.7286 160.452 64.4253C160.774 64.122 161.16 63.8876 161.61 63.7222C162.061 63.5567 162.552 63.474 163.085 63.474C163.72 63.474 164.28 63.5889 164.767 63.8187C165.254 64.0484 165.631 64.3701 165.898 64.7837C166.174 65.1881 166.311 65.6615 166.311 66.2038V71.167H164.381V69.9538L164.85 69.871C164.629 70.2019 164.386 70.4777 164.119 70.6982C163.853 70.9096 163.554 71.0659 163.223 71.167C162.892 71.2773 162.525 71.3324 162.12 71.3324ZM171.319 71.2497C170.409 71.2497 169.702 71.0061 169.196 70.519C168.7 70.0227 168.452 69.3334 168.452 68.451V65.4317H167.183V63.6394H167.252C167.638 63.6394 167.932 63.5429 168.135 63.3499C168.346 63.1569 168.452 62.8674 168.452 62.4814V61.9299H170.52V63.6394H172.284V65.4317H170.52V68.3131C170.52 68.5705 170.566 68.7865 170.658 68.9611C170.75 69.1266 170.892 69.2506 171.085 69.3334C171.278 69.4161 171.517 69.4574 171.802 69.4574C171.866 69.4574 171.94 69.4528 172.023 69.4437C172.105 69.4345 172.193 69.4253 172.284 69.4161V71.167C172.147 71.1854 171.99 71.2038 171.816 71.2221C171.641 71.2405 171.476 71.2497 171.319 71.2497ZM177.959 71.167L175.367 63.6394H177.504L179.324 69.0714L178.579 69.0576L180.606 63.6394H182.398L184.411 69.0576L183.667 69.0714L185.486 63.6394H187.637L185.031 71.167H183.239L181.144 65.349H181.861L179.751 71.167H177.959ZM192.15 71.3324C191.406 71.3324 190.726 71.1624 190.11 70.8223C189.503 70.4823 189.016 70.0181 188.648 69.4299C188.29 68.8324 188.111 68.1569 188.111 67.4032C188.111 66.6404 188.29 65.9648 188.648 65.3766C189.016 64.7883 189.503 64.3242 190.11 63.9841C190.726 63.644 191.406 63.474 192.15 63.474C192.895 63.474 193.57 63.644 194.177 63.9841C194.783 64.3242 195.266 64.7883 195.624 65.3766C195.992 65.9648 196.176 66.6404 196.176 67.4032C196.176 68.1569 195.992 68.8324 195.624 69.4299C195.266 70.0181 194.783 70.4823 194.177 70.8223C193.57 71.1624 192.895 71.3324 192.15 71.3324ZM192.15 69.4712C192.527 69.4712 192.853 69.3839 193.129 69.2093C193.414 69.0346 193.635 68.7911 193.791 68.4786C193.956 68.1661 194.039 67.8076 194.039 67.4032C194.039 66.9988 193.956 66.6449 193.791 66.3416C193.635 66.0291 193.414 65.7856 193.129 65.6109C192.853 65.4271 192.527 65.3352 192.15 65.3352C191.773 65.3352 191.442 65.4271 191.158 65.6109C190.873 65.7856 190.647 66.0291 190.482 66.3416C190.326 66.6449 190.248 66.9988 190.248 67.4032C190.248 67.8076 190.326 68.1661 190.482 68.4786C190.647 68.7911 190.873 69.0346 191.158 69.2093C191.442 69.3839 191.773 69.4712 192.15 69.4712ZM200.096 71.3324C199.49 71.3324 198.97 71.2038 198.538 70.9464C198.116 70.6799 197.794 70.3122 197.573 69.8435C197.353 69.3747 197.243 68.8278 197.243 68.2028V63.6394H199.311V68.0374C199.311 68.3223 199.366 68.5751 199.476 68.7957C199.595 69.0071 199.761 69.1725 199.972 69.292C200.184 69.4115 200.423 69.4712 200.689 69.4712C200.965 69.4712 201.204 69.4115 201.406 69.292C201.618 69.1725 201.778 69.0071 201.889 68.7957C202.008 68.5751 202.068 68.3223 202.068 68.0374V63.6394H204.136V71.167H202.206V69.678L202.316 70.0089C202.141 70.4593 201.856 70.7948 201.461 71.0153C201.075 71.2267 200.62 71.3324 200.096 71.3324ZM205.647 71.167V60.7304H207.715V71.167H205.647ZM212.772 71.3324C212.037 71.3324 211.379 71.1578 210.8 70.8085C210.221 70.4593 209.762 69.9859 209.422 69.3885C209.091 68.7911 208.925 68.1293 208.925 67.4032C208.925 66.6679 209.095 66.0062 209.435 65.4179C209.776 64.8205 210.235 64.3472 210.814 63.9979C211.393 63.6486 212.041 63.474 212.758 63.474C213.31 63.474 213.797 63.5797 214.219 63.7911C214.651 63.9933 214.992 64.2828 215.24 64.6597L214.923 65.0733V60.7304H216.991V71.167H215.06V69.7883L215.253 70.2157C214.996 70.5834 214.647 70.8637 214.206 71.0567C213.765 71.2405 213.287 71.3324 212.772 71.3324ZM213.02 69.4712C213.397 69.4712 213.728 69.3839 214.013 69.2093C214.298 69.0346 214.518 68.7911 214.674 68.4786C214.84 68.1661 214.923 67.8076 214.923 67.4032C214.923 66.9988 214.84 66.6404 214.674 66.3279C214.518 66.0154 214.298 65.7718 214.013 65.5972C213.728 65.4225 213.397 65.3352 213.02 65.3352C212.643 65.3352 212.303 65.4271 212 65.6109C211.706 65.7856 211.476 66.0291 211.31 66.3416C211.145 66.6449 211.062 66.9988 211.062 67.4032C211.062 67.8076 211.145 68.1661 211.31 68.4786C211.476 68.7911 211.706 69.0346 212 69.2093C212.303 69.3839 212.643 69.4712 213.02 69.4712ZM222.154 74.2001C221.934 74.2001 221.718 74.1817 221.506 74.1449C221.304 74.1082 221.125 74.0484 220.969 73.9657V72.2699C221.097 72.3067 221.249 72.3389 221.424 72.3664C221.598 72.394 221.759 72.4078 221.906 72.4078C222.311 72.4078 222.6 72.3113 222.775 72.1183C222.949 71.9345 223.092 71.7231 223.202 71.4841L223.712 70.3122L223.685 72.0356L220.376 63.6394H222.595L224.788 69.6091H223.96L226.152 63.6394H228.372L225.146 71.8701C224.944 72.3848 224.696 72.8168 224.402 73.1661C224.107 73.5153 223.772 73.7727 223.395 73.9381C223.027 74.1128 222.614 74.2001 222.154 74.2001ZM232.878 71.3324C232.133 71.3324 231.453 71.1624 230.837 70.8223C230.23 70.4823 229.743 70.0181 229.376 69.4299C229.017 68.8324 228.838 68.1569 228.838 67.4032C228.838 66.6404 229.017 65.9648 229.376 65.3766C229.743 64.7883 230.23 64.3242 230.837 63.9841C231.453 63.644 232.133 63.474 232.878 63.474C233.622 63.474 234.298 63.644 234.904 63.9841C235.511 64.3242 235.993 64.7883 236.352 65.3766C236.719 65.9648 236.903 66.6404 236.903 67.4032C236.903 68.1569 236.719 68.8324 236.352 69.4299C235.993 70.0181 235.511 70.4823 234.904 70.8223C234.298 71.1624 233.622 71.3324 232.878 71.3324ZM232.878 69.4712C233.254 69.4712 233.581 69.3839 233.856 69.2093C234.141 69.0346 234.362 68.7911 234.518 68.4786C234.684 68.1661 234.766 67.8076 234.766 67.4032C234.766 66.9988 234.684 66.6449 234.518 66.3416C234.362 66.0291 234.141 65.7856 233.856 65.6109C233.581 65.4271 233.254 65.3352 232.878 65.3352C232.501 65.3352 232.17 65.4271 231.885 65.6109C231.6 65.7856 231.375 66.0291 231.209 66.3416C231.053 66.6449 230.975 66.9988 230.975 67.4032C230.975 67.8076 231.053 68.1661 231.209 68.4786C231.375 68.7911 231.6 69.0346 231.885 69.2093C232.17 69.3839 232.501 69.4712 232.878 69.4712ZM240.824 71.3324C240.217 71.3324 239.698 71.2038 239.266 70.9464C238.843 70.6799 238.521 70.3122 238.301 69.8435C238.08 69.3747 237.97 68.8278 237.97 68.2028V63.6394H240.038V68.0374C240.038 68.3223 240.093 68.5751 240.203 68.7957C240.323 69.0071 240.488 69.1725 240.7 69.292C240.911 69.4115 241.15 69.4712 241.417 69.4712C241.692 69.4712 241.931 69.4115 242.133 69.292C242.345 69.1725 242.506 69.0071 242.616 68.7957C242.736 68.5751 242.795 68.3223 242.795 68.0374V63.6394H244.863V71.167H242.933V69.678L243.043 70.0089C242.869 70.4593 242.584 70.7948 242.189 71.0153C241.803 71.2267 241.348 71.3324 240.824 71.3324ZM248.852 71.167V60.7304H250.92V71.167H248.852ZM252.433 71.167V63.6394H254.501V71.167H252.433ZM252.433 62.9639V60.8959H254.501V62.9639H252.433ZM256.015 71.167V60.7304H258.083V67.417L257.311 67.1688L260.633 63.6394H263.184L260.454 66.6725L263.17 71.167H260.826L258.551 67.3481L259.751 67.0448L257.449 69.5539L258.083 68.3545V71.167H256.015ZM267.584 71.3324C266.784 71.3324 266.091 71.1578 265.502 70.8085C264.914 70.4501 264.459 69.9721 264.137 69.3747C263.816 68.7773 263.655 68.1155 263.655 67.3894C263.655 66.6358 263.82 65.9648 264.151 65.3766C264.491 64.7883 264.946 64.3242 265.516 63.9841C266.086 63.644 266.729 63.474 267.446 63.474C268.044 63.474 268.572 63.5705 269.032 63.7635C269.491 63.9473 269.877 64.2093 270.19 64.5494C270.512 64.8894 270.755 65.2847 270.921 65.735C271.086 66.1762 271.169 66.6587 271.169 67.1826C271.169 67.3297 271.159 67.4767 271.141 67.6238C271.132 67.7617 271.109 67.8812 271.072 67.9823H265.433V66.4657H269.9L268.921 67.1826C269.013 66.7874 269.009 66.4381 268.908 66.1348C268.807 65.8223 268.627 65.5788 268.37 65.4041C268.122 65.2203 267.814 65.1284 267.446 65.1284C267.088 65.1284 266.78 65.2157 266.523 65.3904C266.265 65.565 266.072 65.8223 265.944 66.1624C265.815 66.5025 265.764 66.9161 265.792 67.4032C265.755 67.826 265.806 68.1983 265.944 68.5199C266.081 68.8416 266.293 69.0944 266.578 69.2782C266.863 69.4528 267.207 69.5402 267.612 69.5402C267.979 69.5402 268.292 69.4666 268.549 69.3196C268.816 69.1725 269.023 68.9703 269.17 68.713L270.824 69.4988C270.677 69.8664 270.443 70.1881 270.121 70.4639C269.808 70.7396 269.436 70.9556 269.004 71.1118C268.572 71.2589 268.099 71.3324 267.584 71.3324ZM278.49 71.2497C277.58 71.2497 276.872 71.0061 276.366 70.519C275.87 70.0227 275.622 69.3334 275.622 68.451V65.4317H274.354V63.6394H274.423C274.809 63.6394 275.103 63.5429 275.305 63.3499C275.516 63.1569 275.622 62.8674 275.622 62.4814V61.9299H277.69V63.6394H279.455V65.4317H277.69V68.3131C277.69 68.5705 277.736 68.7865 277.828 68.9611C277.92 69.1266 278.062 69.2506 278.255 69.3334C278.448 69.4161 278.687 69.4574 278.972 69.4574C279.037 69.4574 279.11 69.4528 279.193 69.4437C279.275 69.4345 279.363 69.4253 279.455 69.4161V71.167C279.317 71.1854 279.161 71.2038 278.986 71.2221C278.811 71.2405 278.646 71.2497 278.49 71.2497ZM284.403 71.3324C283.658 71.3324 282.978 71.1624 282.362 70.8223C281.756 70.4823 281.269 70.0181 280.901 69.4299C280.542 68.8324 280.363 68.1569 280.363 67.4032C280.363 66.6404 280.542 65.9648 280.901 65.3766C281.269 64.7883 281.756 64.3242 282.362 63.9841C282.978 63.644 283.658 63.474 284.403 63.474C285.147 63.474 285.823 63.644 286.429 63.9841C287.036 64.3242 287.519 64.7883 287.877 65.3766C288.245 65.9648 288.428 66.6404 288.428 67.4032C288.428 68.1569 288.245 68.8324 287.877 69.4299C287.519 70.0181 287.036 70.4823 286.429 70.8223C285.823 71.1624 285.147 71.3324 284.403 71.3324ZM284.403 69.4712C284.78 69.4712 285.106 69.3839 285.382 69.2093C285.667 69.0346 285.887 68.7911 286.043 68.4786C286.209 68.1661 286.292 67.8076 286.292 67.4032C286.292 66.9988 286.209 66.6449 286.043 66.3416C285.887 66.0291 285.667 65.7856 285.382 65.6109C285.106 65.4271 284.78 65.3352 284.403 65.3352C284.026 65.3352 283.695 65.4271 283.41 65.6109C283.125 65.7856 282.9 66.0291 282.735 66.3416C282.578 66.6449 282.5 66.9988 282.5 67.4032C282.5 67.8076 282.578 68.1661 282.735 68.4786C282.9 68.7911 283.125 69.0346 283.41 69.2093C283.695 69.3839 284.026 69.4712 284.403 69.4712ZM292.124 71.167V60.7304H294.192V67.417L293.42 67.1688L296.743 63.6394H299.293L296.563 66.6725L299.279 71.167H296.936L294.661 67.3481L295.86 67.0448L293.558 69.5539L294.192 68.3545V71.167H292.124ZM300.202 71.167V63.6394H302.132V65.1284L302.022 64.7975C302.197 64.3472 302.477 64.0163 302.863 63.8049C303.258 63.5843 303.718 63.474 304.242 63.474C304.812 63.474 305.308 63.5935 305.731 63.8325C306.163 64.0714 306.498 64.4069 306.737 64.8389C306.976 65.2617 307.096 65.758 307.096 66.3279V71.167H305.028V66.769C305.028 66.4749 304.968 66.2222 304.848 66.0108C304.738 65.7994 304.577 65.6339 304.366 65.5144C304.164 65.3949 303.925 65.3352 303.649 65.3352C303.382 65.3352 303.143 65.3949 302.932 65.5144C302.721 65.6339 302.555 65.7994 302.436 66.0108C302.325 66.2222 302.27 66.4749 302.27 66.769V71.167H300.202ZM312.192 71.3324C311.447 71.3324 310.767 71.1624 310.151 70.8223C309.545 70.4823 309.057 70.0181 308.69 69.4299C308.331 68.8324 308.152 68.1569 308.152 67.4032C308.152 66.6404 308.331 65.9648 308.69 65.3766C309.057 64.7883 309.545 64.3242 310.151 63.9841C310.767 63.644 311.447 63.474 312.192 63.474C312.936 63.474 313.612 63.644 314.218 63.9841C314.825 64.3242 315.307 64.7883 315.666 65.3766C316.034 65.9648 316.217 66.6404 316.217 67.4032C316.217 68.1569 316.034 68.8324 315.666 69.4299C315.307 70.0181 314.825 70.4823 314.218 70.8223C313.612 71.1624 312.936 71.3324 312.192 71.3324ZM312.192 69.4712C312.568 69.4712 312.895 69.3839 313.17 69.2093C313.455 69.0346 313.676 68.7911 313.832 68.4786C313.998 68.1661 314.08 67.8076 314.08 67.4032C314.08 66.9988 313.998 66.6449 313.832 66.3416C313.676 66.0291 313.455 65.7856 313.17 65.6109C312.895 65.4271 312.568 65.3352 312.192 65.3352C311.815 65.3352 311.484 65.4271 311.199 65.6109C310.914 65.7856 310.689 66.0291 310.523 66.3416C310.367 66.6449 310.289 66.9988 310.289 67.4032C310.289 67.8076 310.367 68.1661 310.523 68.4786C310.689 68.7911 310.914 69.0346 311.199 69.2093C311.484 69.3839 311.815 69.4712 312.192 69.4712ZM319.286 71.167L316.694 63.6394H318.831L320.651 69.0714L319.907 69.0576L321.933 63.6394H323.726L325.738 69.0576L324.994 69.0714L326.814 63.6394H328.965L326.359 71.167H324.567L322.471 65.349H323.188L321.079 71.167H319.286ZM332.22 67.996V67.6789C332.22 67.2745 332.275 66.9207 332.385 66.6174C332.505 66.3049 332.656 66.0291 332.84 65.7902C333.024 65.5512 333.212 65.3352 333.405 65.1422C333.672 64.8756 333.911 64.6367 334.122 64.4253C334.334 64.2047 334.439 63.9519 334.439 63.667C334.439 63.474 334.393 63.304 334.302 63.1569C334.21 63.0007 334.072 62.8812 333.888 62.7984C333.713 62.7065 333.493 62.6606 333.226 62.6606C332.886 62.6606 332.587 62.7663 332.33 62.9777C332.082 63.1799 331.93 63.4556 331.875 63.8049L329.959 63.3223C330.041 62.8076 330.23 62.3573 330.524 61.9712C330.827 61.5852 331.213 61.2819 331.682 61.0613C332.16 60.8407 332.693 60.7304 333.281 60.7304C333.998 60.7304 334.6 60.8729 335.087 61.1578C335.584 61.4336 335.956 61.792 336.204 62.2332C336.452 62.6652 336.576 63.1247 336.576 63.6119C336.576 63.9611 336.507 64.2736 336.37 64.5494C336.241 64.8159 336.075 65.0641 335.873 65.2938C335.671 65.5144 335.46 65.7304 335.239 65.9418C334.954 66.2084 334.701 66.4887 334.481 66.7828C334.26 67.0769 334.15 67.4216 334.15 67.8168V67.996H332.22ZM332.165 71.167V69.099H334.233V71.167H332.165ZM142.421 92.3324C141.695 92.3324 141.024 92.2038 140.408 91.9464C139.802 91.6799 139.268 91.3076 138.809 90.8297C138.359 90.3517 138.009 89.7911 137.761 89.1477C137.513 88.5043 137.389 87.8012 137.389 87.0383C137.389 86.2663 137.513 85.5586 137.761 84.9152C138.009 84.2718 138.359 83.7111 138.809 83.2332C139.259 82.7553 139.792 82.3876 140.408 82.1303C141.024 81.8637 141.695 81.7304 142.421 81.7304C143.129 81.7304 143.763 81.8545 144.324 82.1027C144.893 82.3508 145.371 82.6725 145.757 83.0678C146.153 83.463 146.433 83.8858 146.598 84.3361L145.358 84.9014C145.119 84.3315 144.746 83.872 144.241 83.5227C143.735 83.1643 143.129 82.985 142.421 82.985C141.704 82.985 141.065 83.1551 140.505 83.4951C139.953 83.8352 139.521 84.3086 139.209 84.9152C138.896 85.5218 138.74 86.2295 138.74 87.0383C138.74 87.838 138.896 88.5411 139.209 89.1477C139.521 89.7543 139.953 90.2277 140.505 90.5677C141.065 90.9078 141.704 91.0778 142.421 91.0778C143.129 91.0778 143.735 90.9032 144.241 90.5539C144.746 90.1955 145.119 89.7313 145.358 89.1615L146.598 89.7267C146.433 90.1771 146.153 90.5999 145.757 90.9951C145.371 91.3903 144.893 91.712 144.324 91.9602C143.763 92.2084 143.129 92.3324 142.421 92.3324ZM151.679 92.3324C150.962 92.3324 150.314 92.167 149.735 91.8361C149.156 91.496 148.697 91.0319 148.357 90.4437C148.017 89.8554 147.847 89.1891 147.847 88.4446C147.847 87.7001 148.012 87.0383 148.343 86.4593C148.683 85.8802 149.142 85.4207 149.721 85.0806C150.301 84.7405 150.953 84.5705 151.679 84.5705C152.396 84.5705 153.044 84.7405 153.623 85.0806C154.202 85.4115 154.657 85.8665 154.988 86.4455C155.328 87.0245 155.498 87.6909 155.498 88.4446C155.498 89.1983 155.324 89.8692 154.974 90.4574C154.625 91.0365 154.161 91.496 153.582 91.8361C153.012 92.167 152.378 92.3324 151.679 92.3324ZM151.679 91.0916C152.139 91.0916 152.552 90.9767 152.92 90.747C153.297 90.5172 153.591 90.2001 153.802 89.7957C154.023 89.3913 154.133 88.9409 154.133 88.4446C154.133 87.9391 154.023 87.4933 153.802 87.1073C153.591 86.712 153.297 86.3995 152.92 86.1698C152.552 85.9308 152.139 85.8113 151.679 85.8113C151.21 85.8113 150.788 85.9308 150.411 86.1698C150.043 86.3995 149.749 86.712 149.528 87.1073C149.308 87.4933 149.198 87.9391 149.198 88.4446C149.198 88.9409 149.308 89.3913 149.528 89.7957C149.749 90.2001 150.043 90.5172 150.411 90.747C150.788 90.9767 151.21 91.0916 151.679 91.0916ZM157.17 92.167V84.7359H158.425V86.2525L158.246 86.0181C158.43 85.5494 158.724 85.1909 159.128 84.9427C159.533 84.6946 159.988 84.5705 160.493 84.5705C161.072 84.5705 161.591 84.7314 162.051 85.053C162.52 85.3747 162.841 85.7975 163.016 86.3214L162.658 86.3352C162.851 85.7562 163.177 85.3196 163.636 85.0255C164.096 84.7222 164.606 84.5705 165.167 84.5705C165.681 84.5705 166.146 84.69 166.559 84.929C166.982 85.1679 167.317 85.4988 167.566 85.9216C167.814 86.3444 167.938 86.8223 167.938 87.3554V92.167H166.642V87.769C166.642 87.3554 166.568 87.0062 166.421 86.7212C166.274 86.4363 166.072 86.2157 165.815 86.0595C165.567 85.894 165.272 85.8113 164.932 85.8113C164.601 85.8113 164.303 85.894 164.036 86.0595C163.779 86.2157 163.572 86.4409 163.416 86.735C163.269 87.0199 163.195 87.3646 163.195 87.769V92.167H161.899V87.769C161.899 87.3554 161.826 87.0062 161.679 86.7212C161.532 86.4363 161.329 86.2157 161.072 86.0595C160.824 85.894 160.53 85.8113 160.19 85.8113C159.859 85.8113 159.56 85.894 159.294 86.0595C159.036 86.2157 158.829 86.4409 158.673 86.735C158.526 87.0199 158.453 87.3646 158.453 87.769V92.167H157.17ZM169.759 94.9243V84.7359H171.013V86.3352L170.848 86.0181C171.124 85.5769 171.501 85.2277 171.979 84.9703C172.456 84.7038 173.003 84.5705 173.619 84.5705C174.318 84.5705 174.943 84.7405 175.494 85.0806C176.055 85.4207 176.496 85.8848 176.818 86.4731C177.139 87.0521 177.3 87.7139 177.3 88.4584C177.3 89.1845 177.139 89.8416 176.818 90.4299C176.496 91.0181 176.055 91.4823 175.494 91.8223C174.943 92.1624 174.313 92.3324 173.605 92.3324C173.008 92.3324 172.461 92.1992 171.965 91.9326C171.478 91.6661 171.101 91.2892 170.834 90.8021L171.041 90.5815V94.9243H169.759ZM173.509 91.0916C173.978 91.0916 174.396 90.9767 174.763 90.747C175.131 90.5172 175.416 90.2047 175.618 89.8095C175.83 89.4051 175.935 88.9547 175.935 88.4584C175.935 87.9437 175.83 87.4933 175.618 87.1073C175.416 86.712 175.131 86.3995 174.763 86.1698C174.396 85.9308 173.978 85.8113 173.509 85.8113C173.04 85.8113 172.617 85.9262 172.241 86.156C171.873 86.3858 171.579 86.7029 171.358 87.1073C171.147 87.5025 171.041 87.9528 171.041 88.4584C171.041 88.9547 171.147 89.4051 171.358 89.8095C171.579 90.2047 171.873 90.5172 172.241 90.747C172.617 90.9767 173.04 91.0916 173.509 91.0916ZM178.981 92.167V81.7304H180.264V92.167H178.981ZM185.672 92.3324C184.955 92.3324 184.317 92.1624 183.756 91.8223C183.195 91.4823 182.754 91.0181 182.432 90.4299C182.111 89.8324 181.95 89.1661 181.95 88.4308C181.95 87.6863 182.106 87.0245 182.419 86.4455C182.74 85.8665 183.172 85.4115 183.715 85.0806C184.266 84.7405 184.882 84.5705 185.562 84.5705C186.113 84.5705 186.601 84.6716 187.023 84.8738C187.455 85.0668 187.818 85.3334 188.112 85.6734C188.416 86.0043 188.646 86.3858 188.802 86.8177C188.967 87.2405 189.05 87.6817 189.05 88.1413C189.05 88.2424 189.041 88.3573 189.022 88.4859C189.013 88.6054 188.999 88.7203 188.981 88.8306H182.887V87.7277H188.237L187.63 88.224C187.713 87.746 187.667 87.3187 187.492 86.9418C187.317 86.565 187.06 86.2663 186.72 86.0457C186.38 85.8251 185.994 85.7148 185.562 85.7148C185.13 85.7148 184.735 85.8251 184.376 86.0457C184.018 86.2663 183.737 86.5834 183.535 86.997C183.342 87.4014 183.264 87.8839 183.301 88.4446C183.264 88.9869 183.347 89.4648 183.549 89.8784C183.76 90.2828 184.055 90.5999 184.431 90.8297C184.817 91.0503 185.236 91.1606 185.686 91.1606C186.182 91.1606 186.601 91.0457 186.941 90.8159C187.281 90.5861 187.556 90.292 187.768 89.9335L188.843 90.485C188.696 90.8251 188.466 91.1376 188.154 91.4225C187.851 91.6982 187.487 91.9188 187.065 92.0843C186.651 92.2497 186.187 92.3324 185.672 92.3324ZM193.741 92.2497C193.015 92.2497 192.454 92.0429 192.059 91.6293C191.673 91.2157 191.48 90.6321 191.48 89.8784V85.963H190.129V84.7359H190.405C190.736 84.7359 190.997 84.6348 191.19 84.4326C191.383 84.2304 191.48 83.9639 191.48 83.633V83.0264H192.762V84.7359H194.43V85.963H192.762V89.837C192.762 90.0852 192.799 90.3012 192.872 90.485C192.955 90.6688 193.088 90.8159 193.272 90.9262C193.456 91.0273 193.7 91.0778 194.003 91.0778C194.067 91.0778 194.145 91.0732 194.237 91.0641C194.338 91.0549 194.43 91.0457 194.513 91.0365V92.167C194.394 92.1946 194.26 92.2129 194.113 92.2221C193.966 92.2405 193.842 92.2497 193.741 92.2497ZM199.405 92.3324C198.688 92.3324 198.049 92.1624 197.489 91.8223C196.928 91.4823 196.487 91.0181 196.165 90.4299C195.844 89.8324 195.683 89.1661 195.683 88.4308C195.683 87.6863 195.839 87.0245 196.151 86.4455C196.473 85.8665 196.905 85.4115 197.447 85.0806C197.999 84.7405 198.615 84.5705 199.295 84.5705C199.846 84.5705 200.333 84.6716 200.756 84.8738C201.188 85.0668 201.551 85.3334 201.845 85.6734C202.149 86.0043 202.378 86.3858 202.535 86.8177C202.7 87.2405 202.783 87.6817 202.783 88.1413C202.783 88.2424 202.774 88.3573 202.755 88.4859C202.746 88.6054 202.732 88.7203 202.714 88.8306H196.62V87.7277H201.969L201.363 88.224C201.446 87.746 201.4 87.3187 201.225 86.9418C201.05 86.565 200.793 86.2663 200.453 86.0457C200.113 85.8251 199.727 85.7148 199.295 85.7148C198.863 85.7148 198.468 85.8251 198.109 86.0457C197.751 86.2663 197.47 86.5834 197.268 86.997C197.075 87.4014 196.997 87.8839 197.034 88.4446C196.997 88.9869 197.08 89.4648 197.282 89.8784C197.493 90.2828 197.787 90.5999 198.164 90.8297C198.55 91.0503 198.969 91.1606 199.419 91.1606C199.915 91.1606 200.333 91.0457 200.673 90.8159C201.014 90.5861 201.289 90.292 201.501 89.9335L202.576 90.485C202.429 90.8251 202.199 91.1376 201.887 91.4225C201.583 91.6982 201.22 91.9188 200.798 92.0843C200.384 92.2497 199.92 92.3324 199.405 92.3324ZM210.215 92.3324C209.517 92.3324 208.887 92.1624 208.327 91.8223C207.775 91.4823 207.339 91.0181 207.017 90.4299C206.695 89.8416 206.534 89.1845 206.534 88.4584C206.534 87.7139 206.695 87.0521 207.017 86.4731C207.339 85.8848 207.775 85.4207 208.327 85.0806C208.887 84.7405 209.517 84.5705 210.215 84.5705C210.831 84.5705 211.378 84.7038 211.856 84.9703C212.334 85.2277 212.711 85.5769 212.987 86.0181L212.78 86.3352V81.7304H214.076V92.167H212.821V90.5815L212.987 90.8021C212.729 91.2892 212.352 91.6661 211.856 91.9326C211.369 92.1992 210.822 92.3324 210.215 92.3324ZM210.326 91.0916C210.794 91.0916 211.213 90.9767 211.58 90.747C211.948 90.5172 212.237 90.2047 212.449 89.8095C212.669 89.4051 212.78 88.9547 212.78 88.4584C212.78 87.9528 212.669 87.5025 212.449 87.1073C212.237 86.7029 211.948 86.3858 211.58 86.156C211.213 85.9262 210.794 85.8113 210.326 85.8113C209.866 85.8113 209.448 85.9308 209.071 86.1698C208.703 86.3995 208.414 86.712 208.203 87.1073C207.991 87.4933 207.885 87.9437 207.885 88.4584C207.885 88.9547 207.991 89.4051 208.203 89.8095C208.414 90.2047 208.703 90.5172 209.071 90.747C209.439 90.9767 209.857 91.0916 210.326 91.0916ZM219.479 92.3324C218.762 92.3324 218.124 92.1624 217.563 91.8223C217.002 91.4823 216.561 91.0181 216.239 90.4299C215.918 89.8324 215.757 89.1661 215.757 88.4308C215.757 87.6863 215.913 87.0245 216.226 86.4455C216.547 85.8665 216.979 85.4115 217.522 85.0806C218.073 84.7405 218.689 84.5705 219.369 84.5705C219.921 84.5705 220.408 84.6716 220.83 84.8738C221.262 85.0668 221.625 85.3334 221.92 85.6734C222.223 86.0043 222.453 86.3858 222.609 86.8177C222.774 87.2405 222.857 87.6817 222.857 88.1413C222.857 88.2424 222.848 88.3573 222.83 88.4859C222.82 88.6054 222.807 88.7203 222.788 88.8306H216.694V87.7277H222.044L221.437 88.224C221.52 87.746 221.474 87.3187 221.299 86.9418C221.125 86.565 220.867 86.2663 220.527 86.0457C220.187 85.8251 219.801 85.7148 219.369 85.7148C218.937 85.7148 218.542 85.8251 218.183 86.0457C217.825 86.2663 217.545 86.5834 217.342 86.997C217.149 87.4014 217.071 87.8839 217.108 88.4446C217.071 88.9869 217.154 89.4648 217.356 89.8784C217.568 90.2828 217.862 90.5999 218.239 90.8297C218.625 91.0503 219.043 91.1606 219.493 91.1606C219.989 91.1606 220.408 91.0457 220.748 90.8159C221.088 90.5861 221.364 90.292 221.575 89.9335L222.65 90.485C222.503 90.8251 222.273 91.1376 221.961 91.4225C221.658 91.6982 221.295 91.9188 220.872 92.0843C220.458 92.2497 219.994 92.3324 219.479 92.3324ZM229.09 92.3324C228.603 92.3324 228.171 92.2451 227.794 92.0705C227.427 91.8867 227.137 91.6385 226.926 91.326C226.714 91.0043 226.609 90.6367 226.609 90.2231C226.609 89.8278 226.691 89.474 226.857 89.1615C227.031 88.8398 227.298 88.5687 227.656 88.3481C228.024 88.1275 228.484 87.9712 229.035 87.8793L231.792 87.4244V88.4997L229.325 88.9133C228.847 88.996 228.497 89.1477 228.277 89.3683C228.065 89.5889 227.96 89.86 227.96 90.1817C227.96 90.485 228.079 90.7378 228.318 90.94C228.566 91.1422 228.874 91.2433 229.242 91.2433C229.711 91.2433 230.115 91.1468 230.455 90.9538C230.804 90.7516 231.075 90.4804 231.268 90.1403C231.471 89.8003 231.572 89.4234 231.572 89.0098V87.121C231.572 86.7166 231.42 86.3904 231.117 86.1422C230.823 85.8848 230.432 85.7562 229.945 85.7562C229.522 85.7562 229.145 85.8665 228.814 86.087C228.493 86.2984 228.254 86.5834 228.098 86.9418L226.981 86.3628C227.119 86.0227 227.339 85.7194 227.643 85.4529C227.946 85.1771 228.3 84.9611 228.704 84.8049C229.109 84.6486 229.531 84.5705 229.973 84.5705C230.542 84.5705 231.043 84.6808 231.475 84.9014C231.907 85.1128 232.243 85.4115 232.482 85.7975C232.73 86.1744 232.854 86.6155 232.854 87.121V92.167H231.599V90.7607L231.834 90.8435C231.677 91.1376 231.466 91.3949 231.2 91.6155C230.933 91.8361 230.621 92.0107 230.262 92.1394C229.904 92.2681 229.513 92.3324 229.09 92.3324ZM234.842 92.167V84.7359H236.097V86.1836L235.89 86.0595C236.074 85.5907 236.368 85.2277 236.772 84.9703C237.186 84.7038 237.668 84.5705 238.22 84.5705C238.753 84.5705 239.226 84.69 239.64 84.929C240.063 85.1679 240.393 85.4988 240.632 85.9216C240.881 86.3444 241.005 86.8223 241.005 87.3554V92.167H239.709V87.769C239.709 87.3554 239.635 87.0062 239.488 86.7212C239.341 86.4363 239.13 86.2157 238.854 86.0595C238.587 85.894 238.279 85.8113 237.93 85.8113C237.581 85.8113 237.268 85.894 236.993 86.0595C236.726 86.2157 236.515 86.4409 236.358 86.735C236.202 87.0199 236.124 87.3646 236.124 87.769V92.167H234.842ZM245.5 92.3324C244.756 92.3324 244.108 92.1486 243.556 91.781C243.005 91.4133 242.614 90.917 242.384 90.292L243.405 89.7957C243.616 90.2369 243.905 90.5861 244.273 90.8435C244.641 91.1008 245.05 91.2295 245.5 91.2295C245.905 91.2295 246.24 91.133 246.507 90.94C246.773 90.747 246.906 90.4942 246.906 90.1817C246.906 89.9611 246.842 89.7865 246.713 89.6578C246.594 89.5199 246.447 89.4142 246.272 89.3407C246.098 89.258 245.937 89.1983 245.79 89.1615L244.673 88.8444C244.002 88.6514 243.51 88.3756 243.198 88.0172C242.894 87.6587 242.743 87.2405 242.743 86.7626C242.743 86.3214 242.853 85.94 243.074 85.6183C243.303 85.2874 243.611 85.0301 243.997 84.8462C244.393 84.6624 244.834 84.5705 245.321 84.5705C245.973 84.5705 246.557 84.7359 247.072 85.0668C247.596 85.3977 247.968 85.8619 248.189 86.4593L247.141 86.9418C246.975 86.5558 246.727 86.2525 246.396 86.0319C246.065 85.8021 245.693 85.6872 245.28 85.6872C244.903 85.6872 244.604 85.7837 244.383 85.9768C244.163 86.1606 244.053 86.3949 244.053 86.6799C244.053 86.8913 244.108 87.0659 244.218 87.2038C244.328 87.3324 244.462 87.4335 244.618 87.5071C244.774 87.5714 244.926 87.6266 245.073 87.6725L246.286 88.031C246.893 88.2056 247.361 88.4767 247.692 88.8444C248.032 89.212 248.202 89.6532 248.202 90.1679C248.202 90.5815 248.087 90.9538 247.858 91.2846C247.628 91.6155 247.311 91.8729 246.906 92.0567C246.502 92.2405 246.033 92.3324 245.5 92.3324ZM251.456 92.167L248.905 84.7359H250.325L252.352 90.9538L251.856 90.94L253.841 84.7359H255.054L257.039 90.94L256.543 90.9538L258.583 84.7359H259.99L257.439 92.167H256.212L254.254 85.963H254.64L252.683 92.167H251.456ZM264.421 92.3324C263.704 92.3324 263.065 92.1624 262.504 91.8223C261.944 91.4823 261.503 91.0181 261.181 90.4299C260.859 89.8324 260.698 89.1661 260.698 88.4308C260.698 87.6863 260.855 87.0245 261.167 86.4455C261.489 85.8665 261.921 85.4115 262.463 85.0806C263.015 84.7405 263.63 84.5705 264.311 84.5705C264.862 84.5705 265.349 84.6716 265.772 84.8738C266.204 85.0668 266.567 85.3334 266.861 85.6734C267.164 86.0043 267.394 86.3858 267.55 86.8177C267.716 87.2405 267.799 87.6817 267.799 88.1413C267.799 88.2424 267.789 88.3573 267.771 88.4859C267.762 88.6054 267.748 88.7203 267.73 88.8306H261.636V87.7277H266.985L266.379 88.224C266.461 87.746 266.415 87.3187 266.241 86.9418C266.066 86.565 265.809 86.2663 265.469 86.0457C265.129 85.8251 264.743 85.7148 264.311 85.7148C263.879 85.7148 263.483 85.8251 263.125 86.0457C262.766 86.2663 262.486 86.5834 262.284 86.997C262.091 87.4014 262.013 87.8839 262.05 88.4446C262.013 88.9869 262.095 89.4648 262.298 89.8784C262.509 90.2828 262.803 90.5999 263.18 90.8297C263.566 91.0503 263.984 91.1606 264.435 91.1606C264.931 91.1606 265.349 91.0457 265.689 90.8159C266.029 90.5861 266.305 90.292 266.516 89.9335L267.592 90.485C267.445 90.8251 267.215 91.1376 266.902 91.4225C266.599 91.6982 266.236 91.9188 265.813 92.0843C265.4 92.2497 264.936 92.3324 264.421 92.3324ZM269.47 92.167V84.7359H270.725V86.1008L270.587 85.9078C270.762 85.485 271.028 85.1725 271.387 84.9703C271.745 84.7589 272.182 84.6532 272.696 84.6532H273.151V85.8665H272.503C271.98 85.8665 271.557 86.0319 271.235 86.3628C270.913 86.6845 270.752 87.144 270.752 87.7415V92.167H269.47ZM274.262 92.167V90.5126H275.599V92.167H274.262Z" fill="#2E1065"/>
<rect x="136.999" y="108.94" width="337.255" height="64.9261" rx="3.35783" fill="white" stroke="#C8C8C8" stroke-width="0.901752"/>
<rect x="410.775" y="196.089" width="63.1983" height="30.8326" rx="4.14979" fill="#8B5CF6"/>
<path d="M428.52 216.005V207.761H433.887V208.923H429.826V211.402H433.445V212.564H429.826V216.005H428.52ZM434.64 216.005V210.019H435.89V216.005H434.64ZM434.64 209.2V207.761H435.89V209.2H434.64ZM437.131 216.005V210.019H438.326V211.192L438.182 211.037C438.33 210.66 438.566 210.376 438.89 210.185C439.215 209.985 439.591 209.886 440.019 209.886C440.462 209.886 440.853 209.982 441.192 210.174C441.531 210.365 441.797 210.631 441.989 210.97C442.181 211.31 442.277 211.701 442.277 212.143V216.005H441.037V212.475C441.037 212.173 440.982 211.918 440.871 211.712C440.761 211.498 440.602 211.335 440.395 211.225C440.196 211.107 439.967 211.048 439.709 211.048C439.451 211.048 439.219 211.107 439.012 211.225C438.813 211.335 438.658 211.498 438.547 211.712C438.437 211.926 438.381 212.18 438.381 212.475V216.005H437.131ZM443.394 216.005V210.019H444.644V216.005H443.394ZM443.394 209.2V207.761H444.644V209.2H443.394ZM448.098 216.138C447.486 216.138 446.947 215.987 446.482 215.684C446.025 215.382 445.704 214.976 445.52 214.467L446.482 214.013C446.645 214.353 446.866 214.622 447.146 214.821C447.434 215.02 447.751 215.12 448.098 215.12C448.393 215.12 448.633 215.054 448.817 214.921C449.002 214.788 449.094 214.607 449.094 214.379C449.094 214.231 449.053 214.113 448.972 214.025C448.891 213.929 448.788 213.851 448.662 213.792C448.544 213.733 448.423 213.689 448.297 213.659L447.357 213.394C446.84 213.246 446.453 213.025 446.195 212.73C445.944 212.427 445.818 212.077 445.818 211.679C445.818 211.317 445.911 211.003 446.095 210.738C446.279 210.465 446.534 210.255 446.859 210.107C447.183 209.96 447.548 209.886 447.954 209.886C448.5 209.886 448.987 210.022 449.415 210.295C449.843 210.561 450.145 210.933 450.322 211.413L449.359 211.867C449.241 211.579 449.053 211.35 448.795 211.181C448.544 211.011 448.26 210.926 447.943 210.926C447.67 210.926 447.452 210.992 447.29 211.125C447.128 211.251 447.047 211.417 447.047 211.623C447.047 211.763 447.084 211.881 447.157 211.977C447.231 212.066 447.327 212.14 447.445 212.199C447.563 212.25 447.685 212.295 447.81 212.331L448.784 212.619C449.278 212.759 449.658 212.981 449.924 213.283C450.189 213.578 450.322 213.932 450.322 214.345C450.322 214.7 450.226 215.013 450.035 215.286C449.85 215.552 449.592 215.762 449.26 215.917C448.928 216.064 448.541 216.138 448.098 216.138ZM451.326 216.005V207.628H452.577V211.192L452.377 211.037C452.525 210.66 452.761 210.376 453.086 210.185C453.41 209.985 453.787 209.886 454.214 209.886C454.657 209.886 455.048 209.982 455.387 210.174C455.727 210.365 455.992 210.631 456.184 210.97C456.376 211.31 456.472 211.697 456.472 212.132V216.005H455.232V212.475C455.232 212.173 455.173 211.918 455.055 211.712C454.945 211.498 454.79 211.335 454.591 211.225C454.391 211.107 454.163 211.048 453.905 211.048C453.654 211.048 453.425 211.107 453.218 211.225C453.019 211.335 452.861 211.498 452.743 211.712C452.632 211.926 452.577 212.18 452.577 212.475V216.005H451.326Z" fill="white"/>
<path d="M149.795 126.999V121.397H148.068V120.628H152.344V121.397H150.642V126.999H149.795ZM152.963 128.88C152.86 128.88 152.758 128.871 152.655 128.854C152.553 128.837 152.456 128.809 152.364 128.769V128.059C152.427 128.07 152.504 128.082 152.595 128.093C152.692 128.11 152.786 128.119 152.877 128.119C153.145 128.119 153.348 128.059 153.485 127.939C153.627 127.825 153.761 127.626 153.887 127.341L154.177 126.648L154.16 127.341L152.193 122.389H153.057L154.588 126.323H154.331L155.853 122.389H156.734L154.656 127.546C154.559 127.791 154.434 128.013 154.28 128.213C154.132 128.418 153.949 128.581 153.733 128.7C153.516 128.82 153.259 128.88 152.963 128.88ZM157.442 128.709V122.389H158.22V123.381L158.117 123.185C158.288 122.911 158.522 122.694 158.818 122.535C159.115 122.369 159.454 122.287 159.836 122.287C160.269 122.287 160.657 122.392 160.999 122.603C161.347 122.814 161.62 123.102 161.82 123.467C162.019 123.826 162.119 124.236 162.119 124.698C162.119 125.149 162.019 125.556 161.82 125.921C161.62 126.286 161.347 126.574 160.999 126.785C160.657 126.996 160.266 127.101 159.827 127.101C159.457 127.101 159.118 127.018 158.81 126.853C158.508 126.688 158.274 126.454 158.109 126.152L158.237 126.015V128.709H157.442ZM159.768 126.332C160.058 126.332 160.318 126.26 160.546 126.118C160.774 125.975 160.95 125.781 161.076 125.536C161.207 125.285 161.273 125.006 161.273 124.698C161.273 124.379 161.207 124.1 161.076 123.86C160.95 123.615 160.774 123.421 160.546 123.279C160.318 123.131 160.058 123.056 159.768 123.056C159.477 123.056 159.215 123.128 158.981 123.27C158.753 123.413 158.57 123.609 158.434 123.86C158.302 124.105 158.237 124.385 158.237 124.698C158.237 125.006 158.302 125.285 158.434 125.536C158.57 125.781 158.753 125.975 158.981 126.118C159.215 126.26 159.477 126.332 159.768 126.332ZM165.283 127.101C164.838 127.101 164.442 126.996 164.094 126.785C163.746 126.574 163.473 126.286 163.273 125.921C163.074 125.551 162.974 125.137 162.974 124.681C162.974 124.219 163.071 123.809 163.265 123.45C163.464 123.091 163.732 122.808 164.068 122.603C164.41 122.392 164.792 122.287 165.214 122.287C165.556 122.287 165.858 122.349 166.121 122.475C166.389 122.595 166.614 122.76 166.796 122.971C166.984 123.176 167.127 123.413 167.224 123.681C167.326 123.943 167.378 124.217 167.378 124.502C167.378 124.564 167.372 124.636 167.361 124.715C167.355 124.789 167.346 124.861 167.335 124.929H163.555V124.245H166.873L166.497 124.553C166.548 124.256 166.52 123.991 166.411 123.758C166.303 123.524 166.143 123.339 165.933 123.202C165.722 123.065 165.482 122.997 165.214 122.997C164.946 122.997 164.701 123.065 164.479 123.202C164.256 123.339 164.083 123.535 163.957 123.792C163.837 124.043 163.789 124.342 163.812 124.69C163.789 125.026 163.84 125.322 163.966 125.579C164.097 125.83 164.279 126.027 164.513 126.169C164.752 126.306 165.012 126.374 165.291 126.374C165.599 126.374 165.858 126.303 166.069 126.161C166.28 126.018 166.451 125.836 166.582 125.613L167.249 125.955C167.158 126.166 167.016 126.36 166.822 126.537C166.634 126.708 166.409 126.845 166.146 126.947C165.89 127.05 165.602 127.101 165.283 127.101ZM170.141 128.88C170.038 128.88 169.935 128.871 169.833 128.854C169.73 128.837 169.633 128.809 169.542 128.769V128.059C169.605 128.07 169.682 128.082 169.773 128.093C169.87 128.11 169.964 128.119 170.055 128.119C170.323 128.119 170.525 128.059 170.662 127.939C170.805 127.825 170.939 127.626 171.064 127.341L171.355 126.648L171.338 127.341L169.371 122.389H170.235L171.765 126.323H171.509L173.031 122.389H173.912L171.834 127.546C171.737 127.791 171.611 128.013 171.458 128.213C171.309 128.418 171.127 128.581 170.91 128.7C170.694 128.82 170.437 128.88 170.141 128.88ZM176.725 127.101C176.28 127.101 175.878 126.999 175.519 126.793C175.16 126.582 174.875 126.294 174.664 125.93C174.453 125.565 174.348 125.151 174.348 124.69C174.348 124.228 174.45 123.817 174.655 123.458C174.866 123.099 175.151 122.814 175.511 122.603C175.87 122.392 176.275 122.287 176.725 122.287C177.17 122.287 177.571 122.392 177.931 122.603C178.29 122.808 178.572 123.091 178.777 123.45C178.988 123.809 179.094 124.222 179.094 124.69C179.094 125.157 178.985 125.573 178.769 125.938C178.552 126.297 178.264 126.582 177.905 126.793C177.551 126.999 177.158 127.101 176.725 127.101ZM176.725 126.332C177.01 126.332 177.266 126.26 177.494 126.118C177.728 125.975 177.911 125.779 178.042 125.528C178.179 125.277 178.247 124.998 178.247 124.69C178.247 124.376 178.179 124.1 178.042 123.86C177.911 123.615 177.728 123.421 177.494 123.279C177.266 123.131 177.01 123.056 176.725 123.056C176.434 123.056 176.172 123.131 175.938 123.279C175.71 123.421 175.528 123.615 175.391 123.86C175.254 124.1 175.186 124.376 175.186 124.69C175.186 124.998 175.254 125.277 175.391 125.528C175.528 125.779 175.71 125.975 175.938 126.118C176.172 126.26 176.434 126.332 176.725 126.332ZM181.764 127.101C181.433 127.101 181.134 127.024 180.866 126.87C180.604 126.716 180.399 126.503 180.251 126.229C180.108 125.95 180.037 125.63 180.037 125.271V122.389H180.832V125.186C180.832 125.414 180.878 125.613 180.969 125.784C181.066 125.955 181.197 126.089 181.362 126.186C181.533 126.283 181.727 126.332 181.944 126.332C182.16 126.332 182.351 126.283 182.517 126.186C182.688 126.089 182.819 125.95 182.91 125.767C183.007 125.585 183.055 125.368 183.055 125.117V122.389H183.859V126.999H183.081V126.101L183.209 126.178C183.101 126.468 182.916 126.696 182.653 126.862C182.397 127.021 182.1 127.101 181.764 127.101ZM185.091 126.999V122.389H185.869V123.236L185.784 123.116C185.892 122.854 186.058 122.66 186.28 122.535C186.502 122.404 186.773 122.338 187.092 122.338H187.374V123.091H186.972C186.648 123.091 186.385 123.193 186.186 123.398C185.986 123.598 185.886 123.883 185.886 124.254V126.999H185.091ZM190.91 127.101C190.608 127.101 190.34 127.047 190.106 126.939C189.878 126.825 189.699 126.671 189.567 126.477C189.436 126.277 189.371 126.049 189.371 125.793C189.371 125.548 189.422 125.328 189.525 125.134C189.633 124.935 189.798 124.767 190.021 124.63C190.249 124.493 190.534 124.396 190.876 124.339L192.586 124.057V124.724L191.055 124.98C190.759 125.032 190.542 125.126 190.405 125.263C190.274 125.399 190.209 125.568 190.209 125.767C190.209 125.955 190.283 126.112 190.431 126.237C190.585 126.363 190.776 126.426 191.004 126.426C191.295 126.426 191.546 126.366 191.757 126.246C191.973 126.121 192.141 125.952 192.261 125.741C192.387 125.531 192.449 125.297 192.449 125.04V123.869C192.449 123.618 192.355 123.416 192.167 123.262C191.985 123.102 191.742 123.022 191.44 123.022C191.178 123.022 190.944 123.091 190.739 123.227C190.539 123.359 190.391 123.535 190.294 123.758L189.602 123.398C189.687 123.188 189.824 122.999 190.012 122.834C190.2 122.663 190.42 122.529 190.671 122.432C190.921 122.335 191.184 122.287 191.457 122.287C191.811 122.287 192.121 122.355 192.389 122.492C192.657 122.623 192.865 122.808 193.014 123.048C193.168 123.282 193.245 123.555 193.245 123.869V126.999H192.466V126.126L192.612 126.178C192.515 126.36 192.384 126.52 192.218 126.656C192.053 126.793 191.859 126.902 191.637 126.981C191.415 127.061 191.172 127.101 190.91 127.101ZM194.478 126.999V122.389H195.256V123.287L195.127 123.21C195.241 122.92 195.424 122.694 195.675 122.535C195.931 122.369 196.231 122.287 196.573 122.287C196.903 122.287 197.197 122.361 197.453 122.509C197.716 122.657 197.921 122.863 198.069 123.125C198.223 123.387 198.3 123.683 198.3 124.014V126.999H197.496V124.271C197.496 124.014 197.451 123.798 197.359 123.621C197.268 123.444 197.137 123.307 196.966 123.21C196.801 123.108 196.61 123.056 196.393 123.056C196.176 123.056 195.983 123.108 195.812 123.21C195.646 123.307 195.515 123.447 195.418 123.629C195.321 123.806 195.273 124.02 195.273 124.271V126.999H194.478ZM201.088 127.101C200.627 127.101 200.225 126.987 199.883 126.759C199.541 126.531 199.298 126.223 199.156 125.836L199.789 125.528C199.92 125.801 200.099 126.018 200.327 126.178C200.555 126.337 200.809 126.417 201.088 126.417C201.339 126.417 201.547 126.357 201.713 126.237C201.878 126.118 201.961 125.961 201.961 125.767C201.961 125.63 201.921 125.522 201.841 125.442C201.767 125.357 201.676 125.291 201.567 125.246C201.459 125.194 201.359 125.157 201.268 125.134L200.575 124.938C200.159 124.818 199.854 124.647 199.66 124.425C199.472 124.202 199.378 123.943 199.378 123.646C199.378 123.373 199.447 123.136 199.583 122.937C199.726 122.731 199.917 122.572 200.156 122.458C200.401 122.344 200.675 122.287 200.977 122.287C201.382 122.287 201.744 122.389 202.063 122.595C202.388 122.8 202.619 123.088 202.756 123.458L202.106 123.758C202.003 123.518 201.849 123.33 201.644 123.193C201.439 123.051 201.208 122.979 200.952 122.979C200.718 122.979 200.533 123.039 200.396 123.159C200.259 123.273 200.19 123.418 200.19 123.595C200.19 123.726 200.225 123.835 200.293 123.92C200.362 124 200.444 124.063 200.541 124.108C200.638 124.148 200.732 124.182 200.823 124.211L201.576 124.433C201.952 124.541 202.243 124.71 202.448 124.938C202.659 125.166 202.764 125.439 202.764 125.759C202.764 126.015 202.693 126.246 202.551 126.451C202.408 126.656 202.211 126.816 201.961 126.93C201.71 127.044 201.419 127.101 201.088 127.101ZM204.782 126.999L203.2 122.389H204.081L205.338 126.246L205.03 126.237L206.262 122.389H207.014L208.246 126.237L207.938 126.246L209.203 122.389H210.076L208.494 126.999H207.732L206.518 123.15H206.758L205.543 126.999H204.782ZM212.824 127.101C212.379 127.101 211.983 126.996 211.635 126.785C211.288 126.574 211.014 126.286 210.814 125.921C210.615 125.551 210.515 125.137 210.515 124.681C210.515 124.219 210.612 123.809 210.806 123.45C211.005 123.091 211.273 122.808 211.61 122.603C211.952 122.392 212.334 122.287 212.756 122.287C213.098 122.287 213.4 122.349 213.662 122.475C213.93 122.595 214.155 122.76 214.338 122.971C214.526 123.176 214.668 123.413 214.765 123.681C214.868 123.943 214.919 124.217 214.919 124.502C214.919 124.564 214.913 124.636 214.902 124.715C214.896 124.789 214.888 124.861 214.876 124.929H211.097V124.245H214.414L214.038 124.553C214.09 124.256 214.061 123.991 213.953 123.758C213.844 123.524 213.685 123.339 213.474 123.202C213.263 123.065 213.023 122.997 212.756 122.997C212.488 122.997 212.242 123.065 212.02 123.202C211.798 123.339 211.624 123.535 211.499 123.792C211.379 124.043 211.33 124.342 211.353 124.69C211.33 125.026 211.382 125.322 211.507 125.579C211.638 125.83 211.821 126.027 212.054 126.169C212.294 126.306 212.553 126.374 212.833 126.374C213.14 126.374 213.4 126.303 213.611 126.161C213.822 126.018 213.993 125.836 214.124 125.613L214.791 125.955C214.7 126.166 214.557 126.36 214.363 126.537C214.175 126.708 213.95 126.845 213.688 126.947C213.431 127.05 213.143 127.101 212.824 127.101ZM215.956 126.999V122.389H216.734V123.236L216.649 123.116C216.757 122.854 216.922 122.66 217.145 122.535C217.367 122.404 217.638 122.338 217.957 122.338H218.239V123.091H217.837C217.512 123.091 217.25 123.193 217.05 123.398C216.851 123.598 216.751 123.883 216.751 124.254V126.999H215.956ZM220.424 126.999V120.525H221.219V123.287L221.074 123.21C221.188 122.92 221.37 122.694 221.621 122.535C221.877 122.369 222.177 122.287 222.519 122.287C222.849 122.287 223.143 122.361 223.399 122.509C223.662 122.657 223.867 122.863 224.015 123.125C224.169 123.387 224.246 123.683 224.246 124.014V126.999H223.442V124.271C223.442 124.014 223.394 123.798 223.297 123.621C223.206 123.444 223.077 123.307 222.912 123.21C222.747 123.108 222.556 123.056 222.339 123.056C222.128 123.056 221.937 123.108 221.766 123.21C221.595 123.307 221.461 123.447 221.364 123.629C221.267 123.806 221.219 124.02 221.219 124.271V126.999H220.424ZM227.505 127.101C227.06 127.101 226.664 126.996 226.316 126.785C225.968 126.574 225.695 126.286 225.495 125.921C225.296 125.551 225.196 125.137 225.196 124.681C225.196 124.219 225.293 123.809 225.487 123.45C225.686 123.091 225.954 122.808 226.29 122.603C226.633 122.392 227.014 122.287 227.436 122.287C227.778 122.287 228.081 122.349 228.343 122.475C228.611 122.595 228.836 122.76 229.018 122.971C229.206 123.176 229.349 123.413 229.446 123.681C229.548 123.943 229.6 124.217 229.6 124.502C229.6 124.564 229.594 124.636 229.583 124.715C229.577 124.789 229.568 124.861 229.557 124.929H225.777V124.245H229.095L228.719 124.553C228.77 124.256 228.742 123.991 228.634 123.758C228.525 123.524 228.366 123.339 228.155 123.202C227.944 123.065 227.704 122.997 227.436 122.997C227.168 122.997 226.923 123.065 226.701 123.202C226.479 123.339 226.305 123.535 226.179 123.792C226.06 124.043 226.011 124.342 226.034 124.69C226.011 125.026 226.062 125.322 226.188 125.579C226.319 125.83 226.501 126.027 226.735 126.169C226.975 126.306 227.234 126.374 227.513 126.374C227.821 126.374 228.081 126.303 228.291 126.161C228.502 126.018 228.673 125.836 228.805 125.613L229.472 125.955C229.38 126.166 229.238 126.36 229.044 126.537C228.856 126.708 228.631 126.845 228.368 126.947C228.112 127.05 227.824 127.101 227.505 127.101ZM230.637 126.999V122.389H231.415V123.236L231.329 123.116C231.438 122.854 231.603 122.66 231.825 122.535C232.048 122.404 232.318 122.338 232.638 122.338H232.92V123.091H232.518C232.193 123.091 231.931 123.193 231.731 123.398C231.532 123.598 231.432 123.883 231.432 124.254V126.999H230.637ZM235.747 127.101C235.302 127.101 234.906 126.996 234.558 126.785C234.211 126.574 233.937 126.286 233.737 125.921C233.538 125.551 233.438 125.137 233.438 124.681C233.438 124.219 233.535 123.809 233.729 123.45C233.928 123.091 234.196 122.808 234.533 122.603C234.875 122.392 235.257 122.287 235.679 122.287C236.021 122.287 236.323 122.349 236.585 122.475C236.853 122.595 237.078 122.76 237.261 122.971C237.449 123.176 237.591 123.413 237.688 123.681C237.791 123.943 237.842 124.217 237.842 124.502C237.842 124.564 237.836 124.636 237.825 124.715C237.819 124.789 237.811 124.861 237.799 124.929H234.02V124.245H237.338L236.961 124.553C237.013 124.256 236.984 123.991 236.876 123.758C236.767 123.524 236.608 123.339 236.397 123.202C236.186 123.065 235.947 122.997 235.679 122.997C235.411 122.997 235.166 123.065 234.943 123.202C234.721 123.339 234.547 123.535 234.422 123.792C234.302 124.043 234.253 124.342 234.276 124.69C234.253 125.026 234.305 125.322 234.43 125.579C234.561 125.83 234.744 126.027 234.977 126.169C235.217 126.306 235.476 126.374 235.756 126.374C236.063 126.374 236.323 126.303 236.534 126.161C236.745 126.018 236.916 125.836 237.047 125.613L237.714 125.955C237.623 126.166 237.48 126.36 237.286 126.537C237.098 126.708 236.873 126.845 236.611 126.947C236.354 127.05 236.066 127.101 235.747 127.101ZM239.204 126.999V125.972H240.033V126.999H239.204ZM241.918 126.999V125.972H242.747V126.999H241.918ZM244.632 126.999V125.972H245.461V126.999H244.632Z" fill="#B4B4B4"/>
<g clip-path="url(#clip0_120_212)">
<path d="M139.562 32.3359H143.867C144.021 32.3359 144.146 32.2109 144.146 32.0561V30.0552C144.146 29.9004 144.021 29.7754 143.867 29.7754H139.388C139.233 29.7754 139.108 29.9004 139.108 30.0552V31.8827C139.108 32.1341 138.905 32.3359 138.655 32.3359H136.859C136.687 32.3359 136.548 32.4721 136.548 32.6405V34.5435C136.548 34.7119 136.687 34.8481 136.859 34.8481H138.669C138.913 34.8556 139.108 35.0549 139.108 35.3001V36.9542C139.108 37.2056 138.905 37.4074 138.655 37.4074H136.859C136.687 37.4074 136.548 37.5436 136.548 37.712V39.6151C136.548 39.7834 136.687 39.9196 136.859 39.9196H138.798C138.97 39.9196 139.108 39.7834 139.108 39.6151V37.8593C139.108 37.6129 139.305 37.4148 139.548 37.4074H143.867C144.021 37.4074 144.146 37.2824 144.146 37.1276V35.128C144.146 34.9732 144.021 34.8481 143.867 34.8481H139.548C139.548 34.8481 139.557 34.8469 139.562 34.8469C139.31 34.8469 139.108 34.6438 139.108 34.3937V32.7878C139.108 32.5365 139.311 32.3347 139.562 32.3347V32.3359Z" fill="#8B5CF6"/>
<path d="M146.847 29.9146H152.551V30.8778H150.228V37.6531H149.179V30.8778H146.847V29.9146Z" fill="#8B5CF6"/>
<path d="M152.52 39.1738H153.195C153.677 39.1738 154.062 39.0995 154.308 38.4359L154.49 37.9332L152.381 32.4209H153.441L154.961 36.6381L156.512 32.4209H157.55L155.077 38.8321C154.724 39.731 154.199 40.1062 153.397 40.1062C153.065 40.1062 152.786 40.0628 152.519 39.9997V39.1751L152.52 39.1738Z" fill="#8B5CF6"/>
<path d="M158.353 32.4198H159.263L159.339 33.3621C159.692 32.6452 160.399 32.27 161.233 32.27C162.731 32.27 163.662 33.3943 163.662 34.9989C163.662 36.6036 162.785 37.7922 161.233 37.7922C160.399 37.7922 159.703 37.4393 159.36 36.7967V39.9974H158.353V32.4198ZM161.018 36.8834C162.045 36.8834 162.656 36.1133 162.656 35.0423C162.656 33.9713 162.045 33.1912 161.018 33.1912C159.99 33.1912 159.37 33.9514 159.37 35.0423C159.37 36.1331 159.99 36.8834 161.018 36.8834Z" fill="#8B5CF6"/>
<path d="M164.432 35.0423C164.432 33.4042 165.47 32.27 166.991 32.27C168.511 32.27 169.452 33.2977 169.452 34.8491V35.2243L165.407 35.2354C165.482 36.3374 166.059 36.9478 167.055 36.9478C167.836 36.9478 168.35 36.6271 168.521 36.0278H169.463C169.207 37.1521 168.329 37.7835 167.034 37.7835C165.492 37.7835 164.434 36.6704 164.434 35.0435L164.432 35.0423ZM165.428 34.5606H168.447C168.447 33.6939 167.88 33.1157 166.991 33.1157C166.102 33.1157 165.557 33.6407 165.428 34.5606Z" fill="#8B5CF6"/>
<path d="M174.033 37.6526V33.2645H171.796V37.6526H170.789V33.2645H170.019V32.4189H170.789V31.5843C170.789 30.3004 171.474 29.7754 172.384 29.7754C172.577 29.7754 172.801 29.7865 173.004 29.8187V30.6854H172.555C171.944 30.6854 171.795 31.0173 171.795 31.5843V32.4189H174.032V29.7754H175.027V37.6526H174.032H174.033Z" fill="#8B5CF6"/>
<path d="M178.892 32.2808C180.454 32.2808 181.611 33.4149 181.611 35.032C181.611 36.649 180.454 37.7831 178.892 37.7831C177.329 37.7831 176.163 36.649 176.163 35.032C176.163 33.4149 177.318 32.2808 178.892 32.2808ZM178.892 36.883C179.898 36.883 180.604 36.1228 180.604 35.032C180.604 33.9411 179.897 33.1809 178.892 33.1809C177.886 33.1809 177.179 33.9411 177.179 35.032C177.179 36.1228 177.875 36.883 178.892 36.883Z" fill="#8B5CF6"/>
<path d="M181.899 32.4204H182.937L183.804 35.1394C183.921 35.5245 184.029 35.9207 184.124 36.3813C184.21 35.9207 184.35 35.4824 184.467 35.1394L185.345 32.4204H186.373L187.239 35.1394C187.325 35.3957 187.496 36.0061 187.582 36.3813C187.668 35.964 187.764 35.6 187.914 35.1394L188.792 32.4204H189.841L188.053 37.6541H187.101L186.191 34.8497C186.02 34.3247 185.912 33.9186 185.859 33.6301C185.806 33.8864 185.709 34.2294 185.516 34.8608L184.606 37.6541H183.61L181.898 32.4204H181.899Z" fill="#8B5CF6"/>
<path d="M189.852 37.6531L192.678 29.9146H193.844L196.681 37.6531H195.579L194.883 35.7265H191.629L190.944 37.6531H189.852ZM191.949 34.8164H194.572L193.383 31.5836C193.33 31.4338 193.277 31.2518 193.255 31.1341C193.233 31.2406 193.18 31.4226 193.126 31.5836L191.948 34.8164H191.949Z" fill="#8B5CF6"/>
<path d="M198.757 37.6531H197.708V29.9146H198.757V37.6531Z" fill="#8B5CF6"/>
</g>
<defs>
<clipPath id="clip0_120_212">
<rect width="62.2089" height="10.3287" fill="white" transform="translate(136.548 29.7754)"/>
</clipPath>
</defs>
</svg>
