<?xml version="1.0" encoding="UTF-8"?>
<svg id="Capa_1" data-name="Capa 1" fill="#2e1065"
    xmlns="http://www.w3.org/2000/svg" viewBox="0 0 502.43 83.42">
    <path d="M24.34,22.16H59.11c1.25,0,2.26-1.01,2.26-2.26V3.74c0-1.25-1.01-2.26-2.26-2.26H22.94c-1.25,0-2.26,1.01-2.26,2.26v14.76c0,2.03-1.64,3.66-3.66,3.66H2.51c-1.39,0-2.51,1.1-2.51,2.46v15.37c0,1.36,1.12,2.46,2.51,2.46h14.62c1.97,.06,3.55,1.67,3.55,3.65v13.36c0,2.03-1.64,3.66-3.66,3.66H2.51c-1.39,0-2.51,1.1-2.51,2.46v15.37c0,1.36,1.12,2.46,2.51,2.46h15.66c1.39,0,2.51-1.1,2.51-2.46v-14.18c0-1.99,1.59-3.59,3.55-3.65H59.11c1.25,0,2.26-1.01,2.26-2.26v-16.15c0-1.25-1.01-2.26-2.26-2.26H24.23s.07-.01,.11-.01c-2.03,0-3.66-1.64-3.66-3.66v-12.97c0-2.03,1.64-3.66,3.66-3.66Z"/>
    <g>
        <path d="M83.18,1.12h46.07v7.78h-18.76V63.62h-8.47V8.9h-18.84V1.12Z"/>
        <path d="M129,75.9h5.45c3.89,0,7-.6,8.99-5.96l1.47-4.06-17.03-44.52h8.56l12.27,34.06,12.53-34.06h8.38l-19.97,51.78c-2.85,7.26-7.09,10.29-13.57,10.29-2.68,0-4.93-.35-7.09-.86v-6.66Z"/>
        <path d="M176.11,21.35h7.35l.61,7.61c2.85-5.79,8.56-8.82,15.3-8.82,12.1,0,19.62,9.08,19.62,22.04s-7.09,22.56-19.62,22.56c-6.74,0-12.36-2.85-15.13-8.04v25.85h-8.13V21.35Zm21.52,36.05c8.3,0,13.23-6.22,13.23-14.87s-4.93-14.95-13.23-14.95-13.31,6.14-13.31,14.95,5.01,14.87,13.31,14.87Z"/>
        <path d="M225.21,42.53c0-13.23,8.38-22.39,20.66-22.39s19.88,8.3,19.88,20.83v3.03l-32.67,.09c.61,8.9,5.27,13.83,13.31,13.83,6.31,0,10.46-2.59,11.84-7.43h7.61c-2.07,9.08-9.16,14.18-19.62,14.18-12.45,0-21-8.99-21-22.13Zm8.04-3.89h24.38c0-7-4.58-11.67-11.76-11.67s-11.58,4.24-12.62,11.67Z"/>
        <path d="M302.75,63.62V28.18h-18.07V63.62h-8.13V28.18h-6.22v-6.83h6.22v-6.74c0-10.37,5.53-14.61,12.88-14.61,1.56,0,3.37,.09,5.01,.35V7.35h-3.63c-4.93,0-6.14,2.68-6.14,7.26v6.74h18.07V0h8.04V63.62h-8.04Z"/>
        <path d="M341.99,20.23c12.62,0,21.96,9.16,21.96,22.22s-9.34,22.22-21.96,22.22-22.04-9.16-22.04-22.22,9.33-22.22,22.04-22.22Zm0,37.17c8.13,0,13.83-6.14,13.83-14.95s-5.71-14.95-13.83-14.95-13.83,6.14-13.83,14.95,5.62,14.95,13.83,14.95Z"/>
        <path d="M366.28,21.35h8.38l7,21.96c.95,3.11,1.82,6.31,2.59,10.03,.69-3.72,1.82-7.26,2.77-10.03l7.09-21.96h8.3l7,21.96c.69,2.07,2.07,7,2.77,10.03,.69-3.37,1.47-6.31,2.68-10.03l7.09-21.96h8.47l-14.44,42.27h-7.69l-7.35-22.65c-1.38-4.24-2.25-7.52-2.68-9.85-.43,2.07-1.21,4.84-2.77,9.94l-7.35,22.56h-8.04l-13.83-42.27Z"/>
        <path d="M430.51,63.62L453.33,1.12h9.42l22.91,62.5h-8.9l-5.62-15.56h-26.28l-5.53,15.56h-8.82Zm16.94-22.91h21.18l-9.6-26.11c-.43-1.21-.86-2.68-1.04-3.63-.17,.86-.6,2.33-1.04,3.63l-9.51,26.11Z"/>
        <path d="M502.43,63.62h-8.47V1.12h8.47V63.62Z"/>
    </g>
</svg>