<svg xmlns="http://www.w3.org/2000/svg" width="1em" height="1em" viewBox="0 0 2048 2048">
    <path fill="#5eb408" d="M2048 384v1280H128v-256H0V256h1792v128zm-512 0q0 27 10 50t27 40t41 28t50 10V384zM128 512q27 0 50-10t40-27t28-41t10-50H128zm0 512q53 0 99 20t82 55t55 81t20 100h1024q0-53 20-99t55-82t81-55t100-20V640q-53 0-99-20t-82-55t-55-81t-20-100H384q0 53-20 99t-55 82t-81 55t-100 20zm1536 128q-27 0-50 10t-40 27t-28 41t-10 50h128zM128 1280h128q0-27-10-50t-27-40t-41-28t-50-10zm1792-768h-128v896H256v128h1664zM448 896q-26 0-45-19t-19-45q0-26 19-45t45-19q26 0 45 19t19 45q0 26-19 45t-45 19m896 0q-26 0-45-19t-19-45q0-26 19-45t45-19q26 0 45 19t19 45q0 26-19 45t-45 19m-448 256q-53 0-99-20t-82-55t-55-81t-20-100V768q0-53 20-99t55-82t81-55t100-20q53 0 99 20t82 55t55 81t20 100v128q0 53-20 99t-55 82t-81 55t-100 20M768 896q0 27 10 50t27 40t41 28t50 10q27 0 50-10t40-27t28-41t10-50V768q0-27-10-50t-27-40t-41-28t-50-10q-27 0-50 10t-40 27t-28 41t-10 50z"/>
</svg>