<svg xmlns="http://www.w3.org/2000/svg" width="1em" height="1em" viewBox="0 0 24 24">
    <path fill="#e18e56" d="M17 21q-1.671 0-2.836-1.164T13 17q0-1.671 1.164-2.836T17 13q1.671 0 2.836 1.164T21 17q0 1.671-1.164 2.836T17 21m-5-.038q-3.013-.895-5.007-3.651Q5 14.554 5 11.1V5.692l7-2.615l7 2.615v5.656q-.42-.171-.962-.26Q17.494 11 17 11q-2.496 0-4.248 1.752T11 17q0 1.03.347 2.012q.347.98 1.036 1.81l-.192.07q-.09.031-.191.07m4.615-1.462h.77v-2.115H19.5v-.77h-2.115V14.5h-.77v2.115H14.5v.77h2.115z"/>
</svg>