<svg xmlns="http://www.w3.org/2000/svg" width="1em" height="1em" viewBox="0 0 24 24">
    <path fill="#c8ca4e" d="M12 3a4 4 0 0 0-4 4h2a.5.5 0 0 1 0 1H8v1h2a.5.5 0 0 1 0 1H8v1h2a.5.5 0 0 1 0 1H8a4 4 0 0 0 8 0h-2a.5.5 0 0 1 0-1h2v-1h-2a.5.5 0 0 1 0-1h2V8h-2a.5.5 0 0 1 0-1h2a4 4 0 0 0-4-4"/>
    <path fill="#c8ca4e" fill-rule="evenodd" d="M11.5 20v-2.5h1V20zm-3.5.5a.5.5 0 0 1 .5-.5h7a.5.5 0 0 1 0 1h-7a.5.5 0 0 1-.5-.5" clip-rule="evenodd"/>
    <path fill="#c8ca4e" fill-rule="evenodd" d="M6.227 13.709a.5.5 0 0 1 .647.284a5.5 5.5 0 0 0 10.16.222a.5.5 0 0 1 .916.403a6.5 6.5 0 0 1-12.008-.262a.5.5 0 0 1 .285-.647" clip-rule="evenodd"/>
</svg>