<svg xmlns="http://www.w3.org/2000/svg" width="1em" height="1em" viewBox="0 0 20 20">
    <g fill="#318174">
        <path fill-rule="evenodd" d="M7.175 14.208a2.5 2.5 0 1 1 .233-4.274l5.093-3.01a2.5 2.5 0 1 1 .434 1.486l-4.593 2.714a2.494 2.494 0 0 1-.09 1.963l4.658 2.54a2.5 2.5 0 1 1-.408 1.486z" clip-rule="evenodd" opacity=".2"/>
        <path fill-rule="evenodd" d="M5 12.5a2.5 2.5 0 1 0 0-5a2.5 2.5 0 0 0 0 5m0-4a1.5 1.5 0 1 1 0 3a1.5 1.5 0 0 1 0-3m9-1a2.5 2.5 0 1 0 0-5a2.5 2.5 0 0 0 0 5m0-4a1.5 1.5 0 1 1 0 3a1.5 1.5 0 0 1 0-3m0 14a2.5 2.5 0 1 0 0-5a2.5 2.5 0 0 0 0 5m0-4a1.5 1.5 0 1 1 0 3a1.5 1.5 0 0 1 0-3" clip-rule="evenodd"/>
        <path d="m6.754 9.18l-.508-.86l5.5-3.25l.508.86zM12 14.878l.479-.878l-5.5-3l-.479.878z"/>
    </g>
</svg>